<?xml version="1.0" encoding="UTF-8"?>
<svg id="Layer_2" data-name="Layer 2" xmlns="http://www.w3.org/2000/svg" viewBox="0 0 64 20">
  <defs>
    <style>
      .cls-1 {
        fill: red;
      }

      .cls-2 {
        fill: #c1272d;
      }
    </style>
  </defs>
  <g id="Layer_1-2" data-name="Layer 1">
    <g>
      <rect class="cls-1" x=".03" y=".03" width="63.95" height="19.95" rx=".62" ry=".62"/>
      <path class="cls-2" d="m63.35.05c.33,0,.59.27.59.59v18.71c0,.33-.27.59-.59.59H.65c-.33,0-.59-.27-.59-.59V.65C.05.32.32.05.65.05h62.71m0-.05H.65c-.36,0-.65.29-.65.65v18.71c0,.36.29.65.65.65h62.71c.36,0,.65-.29.65-.65V.65c0-.36-.29-.65-.65-.65h0Z"/>
    </g>
    <g>
      <path d="m5.04,5.44v3.38h3.91v-3.38h1.06v8.08h-1.06v-3.79h-3.91v3.79h-1.04V5.44h1.04Z"/>
      <path d="m18.72,9.4c0,2.78-1.69,4.26-3.75,4.26s-3.63-1.65-3.63-4.1,1.6-4.25,3.75-4.25,3.63,1.69,3.63,4.09Zm-6.27.13c0,1.73.94,3.27,2.58,3.27s2.59-1.52,2.59-3.36c0-1.61-.84-3.29-2.58-3.29s-2.59,1.59-2.59,3.37Z"/>
      <path d="m26.9,9.97c-.06-1.13-.13-2.48-.12-3.49h-.04c-.28.95-.61,1.96-1.02,3.07l-1.43,3.92h-.79l-1.31-3.85c-.38-1.14-.71-2.18-.94-3.14h-.02c-.02,1.01-.08,2.36-.16,3.57l-.22,3.47h-1l.56-8.08h1.33l1.38,3.91c.34,1,.61,1.88.82,2.72h.04c.2-.82.49-1.7.85-2.72l1.44-3.91h1.33l.5,8.08h-1.02l-.2-3.55Z"/>
      <path d="m33.92,9.73h-3.14v2.92h3.5v.88h-4.55V5.44h4.37v.88h-3.32v2.55h3.14v.86Z"/>
      <path d="m35.64,5.53c.5-.08,1.16-.16,2-.16,1.03,0,1.79.24,2.27.67.44.38.71.97.71,1.69s-.22,1.31-.62,1.73c-.55.59-1.45.89-2.47.89-.31,0-.6-.01-.84-.07v3.24h-1.04v-7.99Zm1.04,3.9c.23.06.52.08.86.08,1.26,0,2.03-.61,2.03-1.73s-.76-1.58-1.91-1.58c-.46,0-.8.04-.98.08v3.14Z"/>
      <path d="m42.32,10.98l-.84,2.54h-1.08l2.75-8.08h1.26l2.76,8.08h-1.12l-.86-2.54h-2.87Zm2.65-.82l-.79-2.33c-.18-.53-.3-1.01-.42-1.48h-.02c-.12.48-.25.97-.41,1.46l-.79,2.34h2.43Z"/>
      <path d="m54.33,13.16c-.47.17-1.39.44-2.48.44-1.22,0-2.23-.31-3.02-1.07-.7-.67-1.13-1.75-1.13-3.01.01-2.41,1.67-4.17,4.38-4.17.94,0,1.67.2,2.01.37l-.25.85c-.43-.19-.97-.35-1.79-.35-1.97,0-3.25,1.22-3.25,3.25s1.24,3.26,3.12,3.26c.68,0,1.15-.1,1.39-.22v-2.41h-1.64v-.84h2.66v3.89Z"/>
      <path d="m60.11,9.73h-3.14v2.92h3.5v.88h-4.55V5.44h4.37v.88h-3.32v2.55h3.14v.86Z"/>
    </g>
  </g>
</svg>
