<svg xmlns="http://www.w3.org/2000/svg" data-name="Layer 2" viewBox="0 0 201.3 201.3"><defs><style>.cls-1{fill:#136504;stroke-width:0}</style></defs><g data-name="Layer 1"><rect width="201.3" height="201.3" rx="30.1" ry="30.1" style="fill:#fff;stroke-width:0"/><path d="M184.3 89.2c0-.3 0-.5-.2-.7l-.4-1.3a46 46 0 0 0-9.9-17.6c-3-3-6-4.5-8.9-4.5-2.7 0-5.3 1.3-8 3.7-1.1 1-2.2 2.4-3.2 3.8-.5.7-1 .8-1.8.8l-20 .3c-2.2 0-4.8.4-7.3 3-5 5.2-8.1 14.3-9 26.2-.4 4.4-.3 9-.3 13.4v5.4a339 339 0 0 0 0 8.5v.3H111v-.3l-.2-4.8-.1-12.4v-1.1l-.1-17.6-.3-46.4c0-5.4-.5-9.8-1.2-13.2-2.7-12.2-7-19-12.8-19.6a32.7 32.7 0 0 0-9.4.2c-6.5.8-12.2 12.4-13 26.4-.4 5.3-.4 10.7-.3 16V59c0 9.9 0 20 .2 29.7v5a21046.8 21046.8 0 0 0 .5 62c0 5.7-1.3 6.6-2.5 6.8-1.3.2-2.6.3-4 .3h-2.6a87.2 87.2 0 0 1-5.5 0c-1.3-.1-2-2-2.2-5.8v-8.3l-.2-19-.2-27.8v-2.8l-.3-32.7c0-3.8-.2-8-1-12-1-6.5-3-11.3-6.1-14.4-1.8-1.8-3.5-2.6-5.1-2.6-3 0-5.9 3-8.3 8.8-2 4.5-3 10.2-3 16.4l.1 15.8v17.1c0 5-.8 8.6-2.6 10.5-.6.7-1.4.8-2.3 1H28l-3.2.4c-1 0-1.9.2-2.9.3L9.4 110c-.5.1-1 .4-1.3.7l-.4.3c-.6.4-1 1.6-.8 2.7.5 3.8 2.1 4 2.8 4.2l2 .3 13.5 2H27c1 0 2.1 0 3.4-.2 4.4-.7 8.5-8.6 9.3-17.7.3-4 .5-8 .5-11.8l.2-22.6v-3.4c0-3.1.5-5.6 1.4-7.7.7-1.6 1.7-2.5 2.7-2.5.6 0 1.1.3 1.5.8a29.6 29.6 0 0 1 2 10.8L48 94.4l-.1 14.6-.2 16.9-.2 20V161c.3 5.7 1.5 11.6 3.5 16.2 2.2 5 5 7.8 7.8 8.1l3 .4 3.3.3a139 139 0 0 0 6 .4c2 0 4.5-.3 6.8-3 5-6 7.6-15 7.7-27l.2-35a14644.9 14644.9 0 0 1 .7-73.5c.1-3.3.7-3.3 1.4-3.3l7.4.2c.4 0 1 0 1 3v3.5l-.1 18-.4 57.7c0 5.3 0 10.1.7 15 1.8 12.1 5.7 19.7 11.5 22.5 1.8 1 3.8 1.4 5.8 1.4 1.6 0 3.3-.3 5-1 4-1.3 7.4-6 9.8-13.4 2.7-8 3-17.2 3.2-25.2v-15.9h.5c5.9 0 11.8.2 17.5.3h1.5c1.7 0 3.2 1 4.9 3.2 2.6 3.6 5.6 5.3 8.7 5.3a10 10 0 0 0 4.9-1.4c3.1-1.7 6-4.8 8.9-9.4a43.5 43.5 0 0 0 6-14.3v-4l-.2-1Z" class="cls-1"/><path d="M194.5 98.4v1l-.2.8c-.1.4-.3.6-.5.6s-.4-.1-.5-.5L193 99l-.9-2.8-.5-1.1h-7.1v-6h1.5l3 .1h2.6l.5-1 1-2.9.3-1.3c.1-.4.3-.5.5-.5s.4.2.5.6l.2.7V86l-1.5 6.3 1.5 6.2Z" class="cls-1"/></g></svg>
