<?xml version="1.0" encoding="UTF-8"?>
<svg id="Layer_2" data-name="Layer 2" xmlns="http://www.w3.org/2000/svg" viewBox="0 0 654.45 46">
  <defs>
    <style>
      .cls-1 {
        fill: #006837;
      }

      .cls-1, .cls-2, .cls-3, .cls-4, .cls-5 {
        stroke: #fff;
        stroke-miterlimit: 10;
      }

      .cls-2 {
        fill: #333;
      }

      .cls-3 {
        fill: #d4145a;
      }

      .cls-4 {
        fill: #c1272d;
      }

      .cls-5 {
        fill: #42210b;
      }
    </style>
  </defs>
  <g id="Layer_1-2" data-name="Layer 1">
    <g>
      <path class="cls-2" d="M2.66,44.6c-1.5,0-2.16-.66-2.16-2.16v-7.02c0-1.5.66-2.16,2.16-2.16h16.14c1.02,0,1.56-.78,1.56-1.74,0-1.38-.54-1.92-1.56-2.04l-9-1.26c-5.64-.84-9.3-3.24-9.3-9.96v-6.3C.5,5.12,5.12,1.4,12.92,1.4h16.8c1.5,0,2.16.66,2.16,2.16v7.14c0,1.5-.66,2.16-2.16,2.16h-13.98c-1.02,0-1.62.72-1.62,1.8s.6,1.8,1.62,1.92l8.94,1.2c5.64.84,9.36,3.24,9.36,9.96v6.3c0,6.84-4.68,10.56-12.42,10.56H2.66ZM13.16,6.8c-3.72,0-6.12,2.28-6.12,5.46v4.92c0,3.3,1.44,4.2,3.54,4.62l12.66,2.58c2.22.48,3.66,1.5,3.66,5.28v3.48c0,3.18-2.34,5.46-6.06,5.46H5.9v.6h14.94c4.08,0,6.66-2.52,6.66-6.06v-3.48c0-4.2-1.74-5.4-4.14-5.88l-12.66-2.58c-1.86-.36-3.06-1.2-3.06-4.02v-4.92c0-2.82,2.16-4.86,5.52-4.86h13.32v-.6h-13.32Z"/>
      <path class="cls-2" d="M50.66,44.6h-8.82c-1.5,0-2.16-.66-2.16-2.16v-15.84c0-2.4.72-5.4,2.34-9.6l5.22-13.62c.48-1.38,1.44-1.98,3.06-1.98h16.14c1.56,0,2.52.6,3,1.98l5.22,13.62c1.62,4.2,2.34,7.2,2.34,9.6v15.84c0,1.5-.66,2.16-2.16,2.16h-9.06c-1.62,0-2.34-.66-2.34-2.16v-8.4h-10.62v8.4c0,1.5-.66,2.16-2.16,2.16ZM70.64,39.2v-12.78c0-2.22-.36-4.08-1.02-5.82l-4.14-9.78c-.96-2.34-1.68-4.02-4.32-4.02h-5.88c-2.76,0-3.48,1.74-4.38,3.96l-3.84,9.84c-.66,1.74-1.02,3.6-1.02,5.82v12.78h.6v-10.32h23.4v10.32h.6ZM47.6,20.84l3.84-9.84c.78-2.04,1.44-3.6,3.84-3.6h5.88c2.22,0,2.88,1.56,3.78,3.66l4.14,9.78c.6,1.62.96,3.42.96,5.58v1.86h-23.4v-1.86c0-2.16.36-3.96.96-5.58ZM53.42,23.12h9.42l-2.82-9.12c-.3-.72-.66-1.02-1.14-1.02h-1.5c-.48,0-.84.3-1.14,1.02l-2.82,9.12Z"/>
      <path class="cls-2" d="M86.54,44.6c-1.5,0-2.16-.66-2.16-2.16V3.56c0-1.5.66-2.16,2.16-2.16h9.66c1.26,0,2.04.48,2.76,1.8l5.4,9.78c.42.72.6,1.02,1.08,1.02h.54c.48,0,.66-.3,1.08-1.02l5.34-9.78c.72-1.32,1.5-1.8,2.76-1.8h9.72c1.5,0,2.16.66,2.16,2.16v38.88c0,1.5-.66,2.16-2.16,2.16h-9.24c-1.56,0-2.16-.66-2.16-2.16v-21.12l-3.54,6.54c-.72,1.38-1.62,1.92-3.18,1.92h-2.4c-1.56,0-2.46-.54-3.18-1.92l-3.54-6.54v21.12c0,1.5-.66,2.16-2.16,2.16h-8.94ZM102.44,18.98l-7.32-11.16c-.48-.78-1.14-1.02-1.8-1.02h-1.02c-1.08,0-1.56.54-1.56,1.86v30.54h.6V8.66c0-.66.12-1.26.96-1.26h.9c.54,0,.96.06,1.44.84l7.32,11.04c1.44,2.16,1.8,2.82,3.54,2.82s2.1-.66,3.54-2.82l7.32-11.04c.48-.78.84-.84,1.38-.84h.9c.84,0,1.02.6,1.02,1.26v30.54h.6V8.66c0-1.32-.48-1.86-1.62-1.86h-1.02c-.66,0-1.26.24-1.74,1.02l-7.32,11.16c-1.38,2.1-1.62,2.52-3.06,2.52s-1.68-.42-3.06-2.52Z"/>
      <path class="cls-2" d="M137.48,44.6c-1.5,0-2.16-.66-2.16-2.16V3.56c0-1.5.66-2.16,2.16-2.16h18.36c10.92,0,14.16,4.74,14.16,11.7v7.68c0,6.96-3.24,11.7-14.16,11.7h-6.9v9.96c0,1.5-.66,2.16-2.16,2.16h-9.3ZM164,19.4v-4.44c0-4.68-1.44-8.16-9-8.16h-12.96v32.4h.6v-11.82h12.36c7.56,0,9-3.3,9-7.98ZM142.64,7.4h12.36c7.08,0,8.4,3.24,8.4,7.56v4.44c0,4.32-1.32,7.38-8.4,7.38h-12.36V7.4ZM148.82,21.68h5.4c2.34,0,2.82-1.38,2.82-2.94v-3.18c0-1.56-.48-2.94-2.82-2.94h-5.4v9.06Z"/>
      <path class="cls-2" d="M178.4,44.6c-1.5,0-2.16-.66-2.16-2.16V3.56c0-1.5.66-2.16,2.16-2.16h9.3c1.5,0,2.16.66,2.16,2.16v29.7h8.22v-9.72c0-1.5.66-2.16,2.16-2.16h8.7c1.5,0,2.16.66,2.16,2.16v18.9c0,1.5-.66,2.16-2.16,2.16h-30.54ZM204.86,39.2v-12.42h-.6v11.82h-20.88V6.8h-.6v32.4h22.08Z"/>
      <path class="cls-2" d="M220.1,44.6c-1.5,0-2.16-.66-2.16-2.16V3.56c0-1.5.66-2.16,2.16-2.16h27.84c1.5,0,2.16.66,2.16,2.16v7.02c0,1.5-.66,2.16-2.16,2.16h-16.56v4.62h11.7c1.5,0,2.16.66,2.16,2.16v6.42c0,1.5-.66,2.16-2.16,2.16h-11.7v5.16h16.56c1.5,0,2.16.66,2.16,2.16v7.02c0,1.5-.66,2.16-2.16,2.16h-27.84ZM225.08,38.6v-15.54h14.76v-.6h-14.76V7.4h19.62v-.6h-20.22v32.4h20.22v-.6h-19.62Z"/>
      <path class="cls-2" d="M272.84,44.6c-1.5,0-2.16-.66-2.16-2.16V3.56c0-1.5.66-2.16,2.16-2.16h9.3c1.5,0,2.16.66,2.16,2.16v29.7h8.22v-9.72c0-1.5.66-2.16,2.16-2.16h8.7c1.5,0,2.16.66,2.16,2.16v18.9c0,1.5-.66,2.16-2.16,2.16h-30.54ZM299.3,39.2v-12.42h-.6v11.82h-20.88V6.8h-.6v32.4h22.08Z"/>
      <path class="cls-2" d="M311.42,42.44v-7.14c0-1.5.66-2.16,2.16-2.16h5.94V12.98h-5.94c-1.5,0-2.16-.66-2.16-2.16V3.56c0-1.5.66-2.16,2.16-2.16h25.56c1.5,0,2.16.66,2.16,2.16v7.26c0,1.5-.66,2.16-2.16,2.16h-5.82v20.16h5.82c1.5,0,2.16.66,2.16,2.16v7.14c0,1.5-.66,2.16-2.16,2.16h-25.56c-1.5,0-2.16-.66-2.16-2.16ZM335.9,38.6h-9.18V7.4h9.18v-.6h-19.08v.6h9.3v31.2h-9.3v.6h19.08v-.6Z"/>
      <path class="cls-2" d="M362.78,44.6c-10.08,0-14.76-3.9-14.76-12.24V13.64c0-8.34,4.68-12.24,14.76-12.24h15c1.5,0,2.16.66,2.16,2.16v7.26c0,1.5-.66,2.16-2.16,2.16h-12.48c-2.52,0-3.66.96-3.66,3v14.34c0,2.04.9,2.94,2.76,2.94h5.82v-9.36c0-1.5.66-2.16,2.16-2.16h9.3c1.5,0,2.16.66,2.16,2.16v18.54c0,1.5-.66,2.16-2.16,2.16h-18.9ZM377.3,39.2v-12.06h-.6v11.46h-11.34c-8.1,0-10.2-1.92-10.2-7.14V14.66c0-5.34,1.92-7.26,9-7.26h10.38v-.6h-10.38c-7.68,0-9.6,2.16-9.6,7.86v16.8c0,5.58,1.98,7.74,10.8,7.74h11.94Z"/>
      <path class="cls-2" d="M393.32,44.6c-1.5,0-2.16-.66-2.16-2.16V3.56c0-1.5.66-2.16,2.16-2.16h9.3c1.5,0,2.16.66,2.16,2.16v13.02h10.02V3.56c0-1.5.66-2.16,2.16-2.16h9.3c1.5,0,2.16.66,2.16,2.16v38.88c0,1.5-.66,2.16-2.16,2.16h-9.3c-1.5,0-2.16-.66-2.16-2.16v-13.32h-10.02v13.32c0,1.5-.66,2.16-2.16,2.16h-9.3ZM398.24,39.2v-15.9h23.04v15.9h.6V6.8h-.6v15.9h-23.04V6.8h-.6v32.4h.6Z"/>
      <path class="cls-2" d="M447.37,44.6c-1.5,0-2.16-.66-2.16-2.16V12.98h-8.82c-1.5,0-2.16-.66-2.16-2.16V3.56c0-1.5.66-2.16,2.16-2.16h31.68c1.5,0,2.16.66,2.16,2.16v7.26c0,1.5-.66,2.16-2.16,2.16h-8.82v29.46c0,1.5-.66,2.16-2.16,2.16h-9.72ZM452.53,39.2V7.4h12.3v-.6h-25.2v.6h12.3v31.8h.6Z"/>
      <path class="cls-4" d="M491.11,44.6c-1.5,0-2.16-.66-2.16-2.16V3.56c0-1.5.66-2.16,2.16-2.16h9.3c1.5,0,2.16.66,2.16,2.16v29.7h8.22v-9.72c0-1.5.66-2.16,2.16-2.16h8.7c1.5,0,2.16.66,2.16,2.16v18.9c0,1.5-.66,2.16-2.16,2.16h-30.54ZM517.57,39.2v-12.42h-.6v11.82h-20.88V6.8h-.6v32.4h22.08Z"/>
      <path class="cls-5" d="M548.65,45.5c-15,0-18.66-4.92-18.66-12.24V12.8c0-7.32,3.66-12.3,18.66-12.3s18.6,4.98,18.6,12.3v20.46c0,7.32-3.6,12.24-18.6,12.24ZM560.71,14.18c0-4.86-2.76-8.1-12.18-8.1s-12.06,3.24-12.06,8.1v17.7c0,4.86,2.64,8.1,12.06,8.1s12.18-3.24,12.18-8.1V14.18ZM537.07,14.18c0-4.5,2.52-7.5,11.46-7.5s11.58,3,11.58,7.5v17.7c0,4.5-2.64,7.5-11.58,7.5s-11.46-3-11.46-7.5V14.18ZM548.65,33.92c4.38,0,5.04-1.2,5.04-2.82V14.96c0-1.56-.66-2.76-5.04-2.76s-5.04,1.2-5.04,2.76v16.14c0,1.62.72,2.82,5.04,2.82Z"/>
      <path class="cls-1" d="M588.97,44.6c-10.08,0-14.76-3.9-14.76-12.24V13.64c0-8.34,4.68-12.24,14.76-12.24h15c1.5,0,2.16.66,2.16,2.16v7.26c0,1.5-.66,2.16-2.16,2.16h-12.48c-2.52,0-3.66.96-3.66,3v14.34c0,2.04.9,2.94,2.76,2.94h5.82v-9.36c0-1.5.66-2.16,2.16-2.16h9.3c1.5,0,2.16.66,2.16,2.16v18.54c0,1.5-.66,2.16-2.16,2.16h-18.9ZM603.49,39.2v-12.06h-.6v11.46h-11.34c-8.1,0-10.2-1.92-10.2-7.14V14.66c0-5.34,1.92-7.26,9-7.26h10.38v-.6h-10.38c-7.68,0-9.6,2.16-9.6,7.86v16.8c0,5.58,1.98,7.74,10.8,7.74h11.94Z"/>
      <path class="cls-3" d="M635.35,45.5c-15,0-18.66-4.92-18.66-12.24V12.8c0-7.32,3.66-12.3,18.66-12.3s18.6,4.98,18.6,12.3v20.46c0,7.32-3.6,12.24-18.6,12.24ZM647.41,14.18c0-4.86-2.76-8.1-12.18-8.1s-12.06,3.24-12.06,8.1v17.7c0,4.86,2.64,8.1,12.06,8.1s12.18-3.24,12.18-8.1V14.18ZM623.77,14.18c0-4.5,2.52-7.5,11.46-7.5s11.58,3,11.58,7.5v17.7c0,4.5-2.64,7.5-11.58,7.5s-11.46-3-11.46-7.5V14.18ZM635.35,33.92c4.38,0,5.04-1.2,5.04-2.82V14.96c0-1.56-.66-2.76-5.04-2.76s-5.04,1.2-5.04,2.76v16.14c0,1.62.72,2.82,5.04,2.82Z"/>
    </g>
  </g>
</svg>
