<?xml version="1.0" encoding="UTF-8"?>
<svg id="Layer_2" data-name="Layer 2" xmlns="http://www.w3.org/2000/svg" viewBox="0 0 656.32 123.86">
  <defs>
    <style>
      .cls-1 {
        fill: #006837;
      }

      .cls-1, .cls-2, .cls-3, .cls-4, .cls-5 {
        stroke: #fff;
        stroke-miterlimit: 10;
      }

      .cls-2 {
        fill: #333;
      }

      .cls-3 {
        fill: #d4145a;
      }

      .cls-4 {
        fill: #c1272d;
      }

      .cls-5 {
        fill: #42210b;
      }

      .cls-6 {
        fill: #534741;
        stroke-width: 0px;
      }
    </style>
  </defs>
  <g id="Layer_1-2" data-name="Layer 1">
    <g>
      <path class="cls-2" d="M2.66,44.6c-1.5,0-2.16-.66-2.16-2.16v-7.02c0-1.5.66-2.16,2.16-2.16h16.14c1.02,0,1.56-.78,1.56-1.74,0-1.38-.54-1.92-1.56-2.04l-9-1.26c-5.64-.84-9.3-3.24-9.3-9.96v-6.3C.5,5.12,5.12,1.4,12.92,1.4h16.8c1.5,0,2.16.66,2.16,2.16v7.14c0,1.5-.66,2.16-2.16,2.16h-13.98c-1.02,0-1.62.72-1.62,1.8s.6,1.8,1.62,1.92l8.94,1.2c5.64.84,9.36,3.24,9.36,9.96v6.3c0,6.84-4.68,10.56-12.42,10.56H2.66ZM13.16,6.8c-3.72,0-6.12,2.28-6.12,5.46v4.92c0,3.3,1.44,4.2,3.54,4.62l12.66,2.58c2.22.48,3.66,1.5,3.66,5.28v3.48c0,3.18-2.34,5.46-6.06,5.46H5.9v.6h14.94c4.08,0,6.66-2.52,6.66-6.06v-3.48c0-4.2-1.74-5.4-4.14-5.88l-12.66-2.58c-1.86-.36-3.06-1.2-3.06-4.02v-4.92c0-2.82,2.16-4.86,5.52-4.86h13.32v-.6h-13.32Z"/>
      <path class="cls-2" d="M50.66,44.6h-8.82c-1.5,0-2.16-.66-2.16-2.16v-15.84c0-2.4.72-5.4,2.34-9.6l5.22-13.62c.48-1.38,1.44-1.98,3.06-1.98h16.14c1.56,0,2.52.6,3,1.98l5.22,13.62c1.62,4.2,2.34,7.2,2.34,9.6v15.84c0,1.5-.66,2.16-2.16,2.16h-9.06c-1.62,0-2.34-.66-2.34-2.16v-8.4h-10.62v8.4c0,1.5-.66,2.16-2.16,2.16ZM70.64,39.2v-12.78c0-2.22-.36-4.08-1.02-5.82l-4.14-9.78c-.96-2.34-1.68-4.02-4.32-4.02h-5.88c-2.76,0-3.48,1.74-4.38,3.96l-3.84,9.84c-.66,1.74-1.02,3.6-1.02,5.82v12.78h.6v-10.32h23.4v10.32h.6ZM47.6,20.84l3.84-9.84c.78-2.04,1.44-3.6,3.84-3.6h5.88c2.22,0,2.88,1.56,3.78,3.66l4.14,9.78c.6,1.62.96,3.42.96,5.58v1.86h-23.4v-1.86c0-2.16.36-3.96.96-5.58ZM53.42,23.12h9.42l-2.82-9.12c-.3-.72-.66-1.02-1.14-1.02h-1.5c-.48,0-.84.3-1.14,1.02l-2.82,9.12Z"/>
      <path class="cls-2" d="M86.54,44.6c-1.5,0-2.16-.66-2.16-2.16V3.56c0-1.5.66-2.16,2.16-2.16h9.66c1.26,0,2.04.48,2.76,1.8l5.4,9.78c.42.72.6,1.02,1.08,1.02h.54c.48,0,.66-.3,1.08-1.02l5.34-9.78c.72-1.32,1.5-1.8,2.76-1.8h9.72c1.5,0,2.16.66,2.16,2.16v38.88c0,1.5-.66,2.16-2.16,2.16h-9.24c-1.56,0-2.16-.66-2.16-2.16v-21.12l-3.54,6.54c-.72,1.38-1.62,1.92-3.18,1.92h-2.4c-1.56,0-2.46-.54-3.18-1.92l-3.54-6.54v21.12c0,1.5-.66,2.16-2.16,2.16h-8.94ZM102.44,18.98l-7.32-11.16c-.48-.78-1.14-1.02-1.8-1.02h-1.02c-1.08,0-1.56.54-1.56,1.86v30.54h.6V8.66c0-.66.12-1.26.96-1.26h.9c.54,0,.96.06,1.44.84l7.32,11.04c1.44,2.16,1.8,2.82,3.54,2.82s2.1-.66,3.54-2.82l7.32-11.04c.48-.78.84-.84,1.38-.84h.9c.84,0,1.02.6,1.02,1.26v30.54h.6V8.66c0-1.32-.48-1.86-1.62-1.86h-1.02c-.66,0-1.26.24-1.74,1.02l-7.32,11.16c-1.38,2.1-1.62,2.52-3.06,2.52s-1.68-.42-3.06-2.52Z"/>
      <path class="cls-2" d="M137.48,44.6c-1.5,0-2.16-.66-2.16-2.16V3.56c0-1.5.66-2.16,2.16-2.16h18.36c10.92,0,14.16,4.74,14.16,11.7v7.68c0,6.96-3.24,11.7-14.16,11.7h-6.9v9.96c0,1.5-.66,2.16-2.16,2.16h-9.3ZM164,19.4v-4.44c0-4.68-1.44-8.16-9-8.16h-12.96v32.4h.6v-11.82h12.36c7.56,0,9-3.3,9-7.98ZM142.64,7.4h12.36c7.08,0,8.4,3.24,8.4,7.56v4.44c0,4.32-1.32,7.38-8.4,7.38h-12.36V7.4ZM148.82,21.68h5.4c2.34,0,2.82-1.38,2.82-2.94v-3.18c0-1.56-.48-2.94-2.82-2.94h-5.4v9.06Z"/>
      <path class="cls-2" d="M178.4,44.6c-1.5,0-2.16-.66-2.16-2.16V3.56c0-1.5.66-2.16,2.16-2.16h9.3c1.5,0,2.16.66,2.16,2.16v29.7h8.22v-9.72c0-1.5.66-2.16,2.16-2.16h8.7c1.5,0,2.16.66,2.16,2.16v18.9c0,1.5-.66,2.16-2.16,2.16h-30.54ZM204.86,39.2v-12.42h-.6v11.82h-20.88V6.8h-.6v32.4h22.08Z"/>
      <path class="cls-2" d="M220.1,44.6c-1.5,0-2.16-.66-2.16-2.16V3.56c0-1.5.66-2.16,2.16-2.16h27.84c1.5,0,2.16.66,2.16,2.16v7.02c0,1.5-.66,2.16-2.16,2.16h-16.56v4.62h11.7c1.5,0,2.16.66,2.16,2.16v6.42c0,1.5-.66,2.16-2.16,2.16h-11.7v5.16h16.56c1.5,0,2.16.66,2.16,2.16v7.02c0,1.5-.66,2.16-2.16,2.16h-27.84ZM225.08,38.6v-15.54h14.76v-.6h-14.76V7.4h19.62v-.6h-20.22v32.4h20.22v-.6h-19.62Z"/>
      <path class="cls-2" d="M272.84,44.6c-1.5,0-2.16-.66-2.16-2.16V3.56c0-1.5.66-2.16,2.16-2.16h9.3c1.5,0,2.16.66,2.16,2.16v29.7h8.22v-9.72c0-1.5.66-2.16,2.16-2.16h8.7c1.5,0,2.16.66,2.16,2.16v18.9c0,1.5-.66,2.16-2.16,2.16h-30.54ZM299.3,39.2v-12.42h-.6v11.82h-20.88V6.8h-.6v32.4h22.08Z"/>
      <path class="cls-2" d="M311.42,42.44v-7.14c0-1.5.66-2.16,2.16-2.16h5.94V12.98h-5.94c-1.5,0-2.16-.66-2.16-2.16V3.56c0-1.5.66-2.16,2.16-2.16h25.56c1.5,0,2.16.66,2.16,2.16v7.26c0,1.5-.66,2.16-2.16,2.16h-5.82v20.16h5.82c1.5,0,2.16.66,2.16,2.16v7.14c0,1.5-.66,2.16-2.16,2.16h-25.56c-1.5,0-2.16-.66-2.16-2.16ZM335.9,38.6h-9.18V7.4h9.18v-.6h-19.08v.6h9.3v31.2h-9.3v.6h19.08v-.6Z"/>
      <path class="cls-2" d="M362.78,44.6c-10.08,0-14.76-3.9-14.76-12.24V13.64c0-8.34,4.68-12.24,14.76-12.24h15c1.5,0,2.16.66,2.16,2.16v7.26c0,1.5-.66,2.16-2.16,2.16h-12.48c-2.52,0-3.66.96-3.66,3v14.34c0,2.04.9,2.94,2.76,2.94h5.82v-9.36c0-1.5.66-2.16,2.16-2.16h9.3c1.5,0,2.16.66,2.16,2.16v18.54c0,1.5-.66,2.16-2.16,2.16h-18.9ZM377.3,39.2v-12.06h-.6v11.46h-11.34c-8.1,0-10.2-1.92-10.2-7.14V14.66c0-5.34,1.92-7.26,9-7.26h10.38v-.6h-10.38c-7.68,0-9.6,2.16-9.6,7.86v16.8c0,5.58,1.98,7.74,10.8,7.74h11.94Z"/>
      <path class="cls-2" d="M393.32,44.6c-1.5,0-2.16-.66-2.16-2.16V3.56c0-1.5.66-2.16,2.16-2.16h9.3c1.5,0,2.16.66,2.16,2.16v13.02h10.02V3.56c0-1.5.66-2.16,2.16-2.16h9.3c1.5,0,2.16.66,2.16,2.16v38.88c0,1.5-.66,2.16-2.16,2.16h-9.3c-1.5,0-2.16-.66-2.16-2.16v-13.32h-10.02v13.32c0,1.5-.66,2.16-2.16,2.16h-9.3ZM398.24,39.2v-15.9h23.04v15.9h.6V6.8h-.6v15.9h-23.04V6.8h-.6v32.4h.6Z"/>
      <path class="cls-2" d="M447.37,44.6c-1.5,0-2.16-.66-2.16-2.16V12.98h-8.82c-1.5,0-2.16-.66-2.16-2.16V3.56c0-1.5.66-2.16,2.16-2.16h31.68c1.5,0,2.16.66,2.16,2.16v7.26c0,1.5-.66,2.16-2.16,2.16h-8.82v29.46c0,1.5-.66,2.16-2.16,2.16h-9.72ZM452.53,39.2V7.4h12.3v-.6h-25.2v.6h12.3v31.8h.6Z"/>
      <path class="cls-4" d="M491.11,44.6c-1.5,0-2.16-.66-2.16-2.16V3.56c0-1.5.66-2.16,2.16-2.16h9.3c1.5,0,2.16.66,2.16,2.16v29.7h8.22v-9.72c0-1.5.66-2.16,2.16-2.16h8.7c1.5,0,2.16.66,2.16,2.16v18.9c0,1.5-.66,2.16-2.16,2.16h-30.54ZM517.57,39.2v-12.42h-.6v11.82h-20.88V6.8h-.6v32.4h22.08Z"/>
      <path class="cls-5" d="M548.65,45.5c-15,0-18.66-4.92-18.66-12.24V12.8c0-7.32,3.66-12.3,18.66-12.3s18.6,4.98,18.6,12.3v20.46c0,7.32-3.6,12.24-18.6,12.24ZM560.71,14.18c0-4.86-2.76-8.1-12.18-8.1s-12.06,3.24-12.06,8.1v17.7c0,4.86,2.64,8.1,12.06,8.1s12.18-3.24,12.18-8.1V14.18ZM537.07,14.18c0-4.5,2.52-7.5,11.46-7.5s11.58,3,11.58,7.5v17.7c0,4.5-2.64,7.5-11.58,7.5s-11.46-3-11.46-7.5V14.18ZM548.65,33.92c4.38,0,5.04-1.2,5.04-2.82V14.96c0-1.56-.66-2.76-5.04-2.76s-5.04,1.2-5.04,2.76v16.14c0,1.62.72,2.82,5.04,2.82Z"/>
      <path class="cls-1" d="M588.97,44.6c-10.08,0-14.76-3.9-14.76-12.24V13.64c0-8.34,4.68-12.24,14.76-12.24h15c1.5,0,2.16.66,2.16,2.16v7.26c0,1.5-.66,2.16-2.16,2.16h-12.48c-2.52,0-3.66.96-3.66,3v14.34c0,2.04.9,2.94,2.76,2.94h5.82v-9.36c0-1.5.66-2.16,2.16-2.16h9.3c1.5,0,2.16.66,2.16,2.16v18.54c0,1.5-.66,2.16-2.16,2.16h-18.9ZM603.49,39.2v-12.06h-.6v11.46h-11.34c-8.1,0-10.2-1.92-10.2-7.14V14.66c0-5.34,1.92-7.26,9-7.26h10.38v-.6h-10.38c-7.68,0-9.6,2.16-9.6,7.86v16.8c0,5.58,1.98,7.74,10.8,7.74h11.94Z"/>
      <path class="cls-3" d="M635.35,45.5c-15,0-18.66-4.92-18.66-12.24V12.8c0-7.32,3.66-12.3,18.66-12.3s18.6,4.98,18.6,12.3v20.46c0,7.32-3.6,12.24-18.6,12.24ZM647.41,14.18c0-4.86-2.76-8.1-12.18-8.1s-12.06,3.24-12.06,8.1v17.7c0,4.86,2.64,8.1,12.06,8.1s12.18-3.24,12.18-8.1V14.18ZM623.77,14.18c0-4.5,2.52-7.5,11.46-7.5s11.58,3,11.58,7.5v17.7c0,4.5-2.64,7.5-11.58,7.5s-11.46-3-11.46-7.5V14.18ZM635.35,33.92c4.38,0,5.04-1.2,5.04-2.82V14.96c0-1.56-.66-2.76-5.04-2.76s-5.04,1.2-5.04,2.76v16.14c0,1.62.72,2.82,5.04,2.82Z"/>
    </g>
    <g>
      <path class="cls-6" d="M13.21,104.19h3.77c1.75,0,3.55-.24,5.4-.71-1.39,2.48-2.69,3.72-3.92,3.72l-1.5-.05-1.71-.05-1.36-.05h-.92l-.12,1.92-.17,2.32c-.2,2.48-.56,4.28-1.07,5.39s-1.52,2.2-3,3.26l4.85.4-2.1,3.06-8.32-.58,2.27-3.27,1.9.32c1.43-1.35,2.31-4.12,2.64-8.31l.19-2.58,1.39-18.77h-.6c-2.27,0-4.06.7-5.35,2.1s-1.94,3.31-1.94,5.73c0,1.46.27,2.95.81,4.48l-2.85,4.11c-.27-1.37-.4-2.71-.4-4.01,0-4.92,1.37-8.9,4.1-11.94,1.99-2.21,4.82-3.32,8.49-3.32h5.82c2.18,0,4.4-.12,6.66-.37l-1.41,5.42-.28.98c-.29,1.04-.67,1.56-1.12,1.56-.08,0-.17,0-.26-.03.14-.9.21-1.6.21-2.11,0-1.16-.41-1.88-1.23-2.17s-2.86-.44-6.11-.44h-1.69l-1.03,14Z"/>
      <path class="cls-6" d="M38.79,112.45c-1.34,3.08-2.84,5.69-4.52,7.83-1.68,2.15-3.04,3.22-4.1,3.22-1.16,0-1.74-1.16-1.74-3.48,0-.86.08-2.27.23-4.24l.63-8.64c.01-.12.04-.63.09-1.53l.11-1.71c.04-.51.05-.97.05-1.37,0-1.02-.19-1.53-.58-1.53-.89,0-1.85,1.49-2.88,4.48-.22-.26-.33-.54-.33-.84,0-1.09.65-2.54,1.94-4.35,1.3-1.81,2.32-2.72,3.09-2.72.97,0,1.46,1,1.46,3.01,0,.47-.02,1.03-.07,1.66l-.16,2.03-.15,2.21-.55,7.54c-.09,1.28-.14,2.58-.14,3.9,0,1.21.3,1.82.89,1.82,1.32,0,2.81-1.63,4.48-4.9s2.65-6.5,2.95-9.7l.61-6.25,2.85-1.45c-.33,2.04-.57,3.85-.74,5.45l-1.06,11.01c-.06.67-.11,1.23-.14,1.69l-.12,1.45c-.07.9-.11,1.53-.11,1.9,0,.75.14,1.13.42,1.13,1,0,2.01-1.64,3.04-4.93.32.28.47.56.47.84,0,.62-.51,1.86-1.53,3.72-1.37,2.53-2.64,3.8-3.82,3.8-.86,0-1.28-.86-1.28-2.58,0-.54.04-1.27.12-2.19l.2-2.11c.11-1.14.18-1.92.22-2.32l.18-1.85Z"/>
      <path class="cls-6" d="M53.37,115.06c.34.25.51.56.51.95,0,1.27-.63,2.83-1.89,4.69-1.26,1.86-2.32,2.79-3.17,2.79-.97,0-1.46-1.05-1.46-3.16,0-1.28.05-2.59.16-3.93l.19-2.35,1.36-18.35c.42-5.59,1.7-10.26,3.84-14,2.14-3.74,4.6-5.62,7.39-5.62.68,0,1.25.09,1.72.26l-2.49,3.82c-.55-.28-1.19-.42-1.93-.42-1.76,0-3.07.93-3.94,2.78s-1.47,4.99-1.8,9.42l-1.63,22.08c-.13,1.7-.19,2.93-.19,3.66,0,1.58.18,2.37.54,2.37.43,0,.94-.52,1.52-1.56.58-1.04,1.01-2.19,1.28-3.45Z"/>
      <path class="cls-6" d="M62.97,115.06c.34.25.51.56.51.95,0,1.27-.63,2.83-1.89,4.69-1.26,1.86-2.32,2.79-3.17,2.79-.97,0-1.46-1.05-1.46-3.16,0-1.28.05-2.59.16-3.93l.19-2.35,1.36-18.35c.42-5.59,1.7-10.26,3.84-14,2.14-3.74,4.6-5.62,7.39-5.62.68,0,1.25.09,1.72.26l-2.49,3.82c-.55-.28-1.19-.42-1.93-.42-1.76,0-3.07.93-3.94,2.78s-1.47,4.99-1.8,9.42l-1.63,22.08c-.13,1.7-.19,2.93-.19,3.66,0,1.58.18,2.37.54,2.37.43,0,.94-.52,1.52-1.56.58-1.04,1.01-2.19,1.28-3.45Z"/>
      <path class="cls-6" d="M89.17,119.33l-3.08,4.54c-.47-5.59-1.29-11.93-2.48-19.01-1.02-6.03-1.81-9.94-2.36-11.72s-1.28-2.68-2.17-2.68c-1.54,0-2.64,1.76-3.32,5.27-.43-.14-.64-.49-.62-1.05.04-1.09.48-2.65,1.34-4.69,1.03-2.46,2.34-3.69,3.94-3.69,1.31,0,2.33.89,3.06,2.68s1.56,5.45,2.51,11.01c1.05,6.24,1.88,11.81,2.5,16.71,5.13-10.77,7.69-18.28,7.69-22.52,0-1.65-.45-2.86-1.34-3.61l2.58-4.27c1.17.99,1.76,2.5,1.76,4.56,0,2.6-1.41,7.27-4.24,14l-1.99,4.59-1.44,3.4c-.08.19-.37.93-.86,2.21l-.81,2.14c-.12.3-.35,1.01-.69,2.14Z"/>
      <path class="cls-6" d="M109.65,114.42c.29.3.44.65.44,1.05,0,.54-.38,1.48-1.12,2.79-2,3.48-3.98,5.22-5.94,5.22-1.2,0-2.18-.71-2.95-2.14s-1.16-3.24-1.16-5.46c0-4.01,1.01-8.06,3.03-12.17s4.02-6.16,6-6.16c1.43,0,2.14,1.15,2.14,3.45,0,2.58-.83,5.11-2.5,7.57-1.67,2.46-3.71,4.18-6.11,5.14.23,4.22,1.35,6.33,3.34,6.33s3.58-1.88,4.83-5.64ZM101.55,110.52c.34.18.65.26.93.26,1.45,0,2.72-.67,3.81-2,1.09-1.33,1.63-2.9,1.63-4.69,0-2.06-.7-3.08-2.09-3.08-1.01,0-1.92.9-2.73,2.7s-1.33,4.07-1.56,6.82Z"/>
      <path class="cls-6" d="M118.1,108.68c2.6-7.4,5.16-11.1,7.68-11.1.66,0,1.31.23,1.97.69l-2.48,4.06c-.38-.32-.85-.47-1.44-.47-1.22,0-2.5,1.48-3.86,4.44s-2.15,6.04-2.38,9.24l-.48,6.43-2.61,1.32.05-.79.12-1.71.14-1.71.92-12.55.11-1.37c.08-1.04.12-1.88.12-2.53,0-1.07-.2-1.61-.6-1.61-.94,0-1.87,1.5-2.8,4.51-.29-.33-.43-.68-.42-1.03.04-1.07.69-2.49,1.96-4.26s2.28-2.65,3.02-2.65c1,0,1.5.99,1.5,2.95,0,.47-.03,1.12-.09,1.92l-.12,1.85-.16,2.21-.16,2.16Z"/>
      <path class="cls-6" d="M126.23,122.07l2.43-2.98c.92,1.46,2.07,2.19,3.45,2.19,1.69,0,2.54-1.22,2.54-3.67,0-1.35-.78-3.24-2.33-5.67l-1.01-1.56c-1.47-2.3-2.2-4.17-2.2-5.59,0-2.04.59-3.75,1.77-5.14,1.18-1.39,2.63-2.08,4.35-2.08.94,0,1.96.26,3.08.79l-2.11,2.93c-.89-1-1.88-1.5-2.97-1.5-1.28,0-1.92.8-1.92,2.4,0,1.14.71,2.82,2.13,5.04l1.09,1.74c1.62,2.53,2.43,4.57,2.43,6.12,0,2.21-.71,4.17-2.13,5.87s-3.05,2.54-4.9,2.54c-1.31,0-2.54-.47-3.69-1.42Z"/>
      <path class="cls-6" d="M148.66,115.14c.31.28.47.55.47.82,0,.63-.51,1.88-1.53,3.74-1.37,2.53-2.64,3.8-3.81,3.8-.86,0-1.28-.85-1.28-2.55,0-.72.18-2.93.53-6.64l.69-7.16.18-1.82.14-1.45c.06-.62.09-1.13.09-1.55,0-.88-.16-1.32-.49-1.32-.91,0-1.89,1.5-2.94,4.51-.22-.3-.33-.6-.33-.9,0-1.07.66-2.51,1.98-4.32,1.32-1.81,2.37-2.72,3.16-2.72.88,0,1.32.91,1.32,2.74,0,.35-.05,1.07-.14,2.16l-.16,1.76c-.01.14-.08.85-.19,2.13l-.72,7.53-.18,1.69c-.15,1.67-.23,2.78-.23,3.34,0,.75.15,1.13.44,1.13.98,0,1.99-1.64,3.03-4.93ZM145.14,94.17l1.48-5.46c1.31-.81,2.39-1.92,3.23-3.35.12.25.18.5.18.76,0,2.36-1.63,5.04-4.89,8.04Z"/>
      <path class="cls-6" d="M154.69,123.49c-2.64,0-3.96-2.62-3.96-7.86,0-4.22,1.03-8.28,3.09-12.19s4.2-5.87,6.42-5.87c2.67,0,4.01,2.62,4.01,7.86,0,4.24-1.03,8.31-3.09,12.21s-4.22,5.85-6.47,5.85ZM156.82,120.54c1.35,0,2.48-1.12,3.38-3.38.91-2.25,1.36-5.05,1.36-8.41,0-5.48-1.14-8.23-3.41-8.23-1.34,0-2.46,1.13-3.37,3.39s-1.36,5.06-1.36,8.4c0,5.48,1.13,8.23,3.39,8.23Z"/>
      <path class="cls-6" d="M170.98,121.89l-2.63,1.61.05-.74.14-1.95.14-1.85.92-12.23.11-1.4c.07-1.09.11-1.97.11-2.64,0-1.12-.19-1.69-.56-1.69-.88,0-1.83,1.49-2.83,4.48-.27-.33-.4-.62-.4-.87,0-1.05.64-2.49,1.93-4.31s2.3-2.73,3.04-2.73c1.01,0,1.51.97,1.51,2.9,0,.49-.03,1.15-.09,1.98l-.14,2.14-.14,1.79-.14,1.87c1.38-3.09,2.9-5.65,4.54-7.66s3.05-3.02,4.21-3.02,1.71,1.19,1.71,3.56c0,.72-.06,1.8-.19,3.24l-.96,9.82c-.19,1.97-.29,3.52-.29,4.66,0,.91.16,1.37.49,1.37.81,0,1.81-1.61,3-4.83.28.26.42.54.42.82,0,1.14-.65,2.64-1.96,4.5-1.31,1.85-2.37,2.78-3.19,2.78-.92,0-1.37-.98-1.37-2.95,0-1.44.12-3.44.37-5.99l.62-6.38c.2-2.07.3-3.72.3-4.93,0-1.39-.32-2.08-.97-2.08-1.5,0-3.02,1.53-4.56,4.58s-2.44,6.32-2.7,9.82l-.47,6.33Z"/>
      <path class="cls-6" d="M215.26,113.61c.27.19.4.47.4.84,0,1.16-.71,2.69-2.13,4.59-2.4,3.22-5.13,4.83-8.19,4.83-2.47,0-4.44-1.34-5.92-4.02s-2.21-6.28-2.21-10.8c0-6.45,1.38-11.86,4.13-16.22,2.75-4.36,6.17-6.54,10.25-6.54,2.07,0,4.22.59,6.45,1.77l-1.18,3.88-.33,1.13c-.28.9-.63,1.34-1.04,1.34-.08,0-.21-.03-.37-.08.16-.54.25-.99.25-1.34,0-1.17-.53-2.2-1.58-3.07-1.05-.88-2.27-1.31-3.67-1.31-2.86,0-5.19,1.7-6.98,5.08s-2.68,7.8-2.68,13.23c0,4.2.63,7.54,1.88,10.04s2.93,3.74,5.03,3.74c1.51,0,3.02-.68,4.53-2.04s2.62-3.05,3.33-5.05Z"/>
      <path class="cls-6" d="M229.87,112.34c-1.32,3.27-2.78,5.95-4.36,8.03s-2.96,3.12-4.13,3.12c-1.6,0-2.41-1.94-2.41-5.83,0-5.34,1.17-9.97,3.51-13.88s5.11-5.87,8.31-5.87c1.22,0,2.26.23,3.11.68-.06.32-.09.51-.11.58l-.21,1.4c-.14.97-.22,1.53-.23,1.69l-1.12,11.64-.16,1.69c-.15,1.67-.23,2.78-.23,3.34,0,.75.15,1.13.44,1.13.98,0,1.98-1.64,3.01-4.93.31.28.47.56.47.84,0,.62-.5,1.86-1.51,3.72-1.37,2.53-2.64,3.8-3.81,3.8-.86,0-1.28-.86-1.28-2.58,0-.53.04-1.26.12-2.19l.18-2.11.23-2.32.19-1.95ZM230.88,101.9c-1.07-.89-2.15-1.34-3.24-1.34-1.64,0-3.02,1.5-4.13,4.5-1.11,3-1.67,6.72-1.67,11.16,0,2.28.45,3.42,1.35,3.42,1.04,0,2.3-1.19,3.78-3.58,1.99-3.21,3.2-6.99,3.62-11.32l.28-2.84Z"/>
      <path class="cls-6" d="M242.19,121.89l-2.63,1.61.05-.74.14-1.95.14-1.85.92-12.23.11-1.4c.07-1.09.11-1.97.11-2.64,0-1.12-.19-1.69-.56-1.69-.88,0-1.83,1.49-2.83,4.48-.27-.33-.4-.62-.4-.87,0-1.05.64-2.49,1.93-4.31s2.3-2.73,3.04-2.73c1.01,0,1.51.97,1.51,2.9,0,.49-.03,1.15-.09,1.98l-.14,2.14-.14,1.79-.14,1.87c1.38-3.09,2.9-5.65,4.54-7.66s3.05-3.02,4.21-3.02,1.71,1.19,1.71,3.56c0,.72-.06,1.8-.19,3.24l-.96,9.82c-.19,1.97-.29,3.52-.29,4.66,0,.91.16,1.37.49,1.37.81,0,1.81-1.61,3-4.83.28.26.42.54.42.82,0,1.14-.65,2.64-1.96,4.5-1.31,1.85-2.37,2.78-3.19,2.78-.92,0-1.37-.98-1.37-2.95,0-1.44.12-3.44.37-5.99l.62-6.38c.2-2.07.3-3.72.3-4.93,0-1.39-.32-2.08-.97-2.08-1.5,0-3.02,1.53-4.56,4.58s-2.44,6.32-2.7,9.82l-.47,6.33Z"/>
      <path class="cls-6" d="M286.47,113.61c.27.19.4.47.4.84,0,1.16-.71,2.69-2.13,4.59-2.4,3.22-5.13,4.83-8.19,4.83-2.47,0-4.44-1.34-5.92-4.02s-2.21-6.28-2.21-10.8c0-6.45,1.38-11.86,4.13-16.22,2.75-4.36,6.17-6.54,10.25-6.54,2.07,0,4.22.59,6.45,1.77l-1.18,3.88-.33,1.13c-.28.9-.63,1.34-1.04,1.34-.08,0-.21-.03-.37-.08.16-.54.25-.99.25-1.34,0-1.17-.53-2.2-1.58-3.07-1.05-.88-2.27-1.31-3.67-1.31-2.86,0-5.19,1.7-6.98,5.08s-2.68,7.8-2.68,13.23c0,4.2.63,7.54,1.88,10.04s2.93,3.74,5.03,3.74c1.51,0,3.02-.68,4.53-2.04s2.62-3.05,3.33-5.05Z"/>
      <path class="cls-6" d="M294.07,123.49c-2.64,0-3.96-2.62-3.96-7.86,0-4.22,1.03-8.28,3.09-12.19s4.2-5.87,6.42-5.87c2.67,0,4.01,2.62,4.01,7.86,0,4.24-1.03,8.31-3.09,12.21s-4.22,5.85-6.47,5.85ZM296.19,120.54c1.35,0,2.48-1.12,3.38-3.38.91-2.25,1.36-5.05,1.36-8.41,0-5.48-1.14-8.23-3.41-8.23-1.34,0-2.46,1.13-3.37,3.39s-1.36,5.06-1.36,8.4c0,5.48,1.13,8.23,3.39,8.23Z"/>
      <path class="cls-6" d="M310.36,121.89l-2.63,1.61.05-.74.14-1.95.14-1.85.92-12.23.11-1.4c.07-1.09.11-1.97.11-2.64,0-1.12-.19-1.69-.56-1.69-.88,0-1.83,1.49-2.83,4.48-.27-.33-.4-.62-.4-.87,0-1.05.64-2.49,1.93-4.31s2.3-2.73,3.04-2.73c1.01,0,1.51.97,1.51,2.9,0,.49-.03,1.15-.09,1.98l-.14,2.14-.14,1.79-.14,1.87c1.38-3.09,2.9-5.65,4.54-7.66s3.05-3.02,4.21-3.02,1.71,1.19,1.71,3.56c0,.72-.06,1.8-.19,3.24l-.96,9.82c-.19,1.97-.29,3.52-.29,4.66,0,.91.16,1.37.49,1.37.81,0,1.81-1.61,3-4.83.28.26.42.54.42.82,0,1.14-.65,2.64-1.96,4.5-1.31,1.85-2.37,2.78-3.19,2.78-.92,0-1.37-.98-1.37-2.95,0-1.44.12-3.44.37-5.99l.62-6.38c.2-2.07.3-3.72.3-4.93,0-1.39-.32-2.08-.97-2.08-1.5,0-3.02,1.53-4.56,4.58s-2.44,6.32-2.7,9.82l-.47,6.33Z"/>
      <path class="cls-6" d="M331.42,101.32l-.85,11.65c-.15,2.09-.23,3.64-.23,4.64,0,1.99.45,2.98,1.35,2.98.97,0,1.97-1.2,3.01-3.59.18.33.26.63.26.9,0,.99-.58,2.16-1.73,3.53s-2.15,2.06-2.98,2.06c-1.66,0-2.5-1.6-2.5-4.8,0-1.18.1-3.08.3-5.72l.84-11.65h-3.69l2.05-3.06h1.87l.37-4.8,2.59-1.29-.43,6.09h7.45l-2.06,3.06h-5.63Z"/>
      <path class="cls-6" d="M349.32,112.34c-1.32,3.27-2.78,5.95-4.36,8.03s-2.96,3.12-4.13,3.12c-1.6,0-2.41-1.94-2.41-5.83,0-5.34,1.17-9.97,3.51-13.88s5.11-5.87,8.31-5.87c1.22,0,2.26.23,3.11.68-.06.32-.09.51-.11.58l-.21,1.4c-.14.97-.22,1.53-.23,1.69l-1.12,11.64-.16,1.69c-.15,1.67-.23,2.78-.23,3.34,0,.75.15,1.13.44,1.13.98,0,1.98-1.64,3.01-4.93.31.28.47.56.47.84,0,.62-.5,1.86-1.51,3.72-1.37,2.53-2.64,3.8-3.81,3.8-.86,0-1.28-.86-1.28-2.58,0-.53.04-1.26.12-2.19l.18-2.11.23-2.32.19-1.95ZM350.32,101.9c-1.07-.89-2.15-1.34-3.24-1.34-1.64,0-3.02,1.5-4.13,4.5-1.11,3-1.67,6.72-1.67,11.16,0,2.28.45,3.42,1.35,3.42,1.04,0,2.3-1.19,3.78-3.58,1.99-3.21,3.2-6.99,3.62-11.32l.28-2.84Z"/>
      <path class="cls-6" d="M365.4,115.14c.31.28.47.55.47.82,0,.63-.51,1.88-1.53,3.74-1.37,2.53-2.64,3.8-3.81,3.8-.86,0-1.28-.85-1.28-2.55,0-.72.18-2.93.53-6.64l.69-7.16.18-1.82.14-1.45c.06-.62.09-1.13.09-1.55,0-.88-.16-1.32-.49-1.32-.91,0-1.89,1.5-2.94,4.51-.22-.3-.33-.6-.33-.9,0-1.07.66-2.51,1.98-4.32,1.32-1.81,2.37-2.72,3.16-2.72.88,0,1.32.91,1.32,2.74,0,.35-.05,1.07-.14,2.16l-.16,1.76c-.01.14-.08.85-.19,2.13l-.72,7.53-.18,1.69c-.15,1.67-.23,2.78-.23,3.34,0,.75.15,1.13.44,1.13.98,0,1.99-1.64,3.03-4.93ZM361.88,94.17l1.48-5.46c1.31-.81,2.39-1.92,3.23-3.35.12.25.18.5.18.76,0,2.36-1.63,5.04-4.89,8.04Z"/>
      <path class="cls-6" d="M372.28,121.89l-2.63,1.61.05-.74.14-1.95.14-1.85.92-12.23.11-1.4c.07-1.09.11-1.97.11-2.64,0-1.12-.19-1.69-.56-1.69-.88,0-1.83,1.49-2.83,4.48-.27-.33-.4-.62-.4-.87,0-1.05.64-2.49,1.93-4.31s2.3-2.73,3.04-2.73c1.01,0,1.51.97,1.51,2.9,0,.49-.03,1.15-.09,1.98l-.14,2.14-.14,1.79-.14,1.87c1.38-3.09,2.9-5.65,4.54-7.66s3.05-3.02,4.21-3.02,1.71,1.19,1.71,3.56c0,.72-.06,1.8-.19,3.24l-.96,9.82c-.19,1.97-.29,3.52-.29,4.66,0,.91.16,1.37.49,1.37.81,0,1.81-1.61,3-4.83.28.26.42.54.42.82,0,1.14-.65,2.64-1.96,4.5-1.31,1.85-2.37,2.78-3.19,2.78-.92,0-1.37-.98-1.37-2.95,0-1.44.12-3.44.37-5.99l.62-6.38c.2-2.07.3-3.72.3-4.93,0-1.39-.32-2.08-.97-2.08-1.5,0-3.02,1.53-4.56,4.58s-2.44,6.32-2.7,9.82l-.47,6.33Z"/>
      <path class="cls-6" d="M397.5,118.14l2.99-2.72c.47,4.32,2.2,6.49,5.19,6.49,1.46,0,2.65-.59,3.57-1.78.93-1.19,1.39-2.71,1.39-4.58,0-2.55-1.03-5.08-3.08-7.59l-2.13-2.58c-1.71-2.11-2.86-3.77-3.43-5s-.86-2.6-.86-4.13c0-2.88.77-5.26,2.3-7.15,1.54-1.88,3.47-2.82,5.82-2.82,1.86,0,3.63.67,5.29,2l-1.02,3.51-.46,1.56c-.26.91-.56,1.37-.91,1.37-.15,0-.31-.09-.47-.26.2-.92.3-1.65.3-2.2,0-1.13-.41-2.07-1.24-2.83s-1.85-1.14-3.07-1.14c-2.77,0-4.15,1.72-4.15,5.15,0,1.23.31,2.42.92,3.55.62,1.13,1.9,2.89,3.84,5.26l1.71,2.11c2.17,2.64,3.25,5.41,3.25,8.31,0,3.2-.9,5.87-2.7,8-1.8,2.13-4.05,3.19-6.74,3.19-3.28,0-5.38-1.91-6.31-5.72Z"/>
      <path class="cls-6" d="M430.5,121.89l-2.61,1.61.05-.74.14-1.95.12-1.85.89-11.84.12-1.34c.05-.7.07-1.39.07-2.06,0-1.7-.35-2.56-1.04-2.56-1.08,0-2.34,1.65-3.77,4.96-1.44,3.31-2.27,6.45-2.49,9.44l-.45,6.33-2.63,1.61.05-.74.14-1.95.14-1.85.9-12.23.11-1.4c.08-1.09.12-1.97.12-2.64,0-1.12-.19-1.69-.56-1.69-.88,0-1.83,1.49-2.85,4.48-.27-.33-.4-.62-.4-.87,0-1.05.64-2.49,1.93-4.31s2.3-2.73,3.05-2.73c1.01,0,1.51.97,1.51,2.9,0,.49-.03,1.15-.09,1.98l-.14,2.14-.14,1.79-.14,1.87.49-1.16c2.62-6.34,5.07-9.52,7.33-9.52,1.09,0,1.64,1.18,1.64,3.53,0,.41-.05,1.26-.14,2.56l-.18,2.43-.24,3.3c1.09-3.39,2.38-6.21,3.87-8.45s2.83-3.36,4-3.36,1.74,1.12,1.74,3.38c0,.97-.07,2.12-.2,3.45l-.94,9.78c-.21,2.02-.31,3.59-.31,4.69,0,.93.17,1.4.51,1.4.4,0,.9-.5,1.51-1.5.61-1,1.09-2.14,1.46-3.4.32.32.48.61.48.87,0,1.11-.66,2.59-1.97,4.46-1.31,1.86-2.36,2.79-3.13,2.79-1,0-1.5-1-1.5-3.01,0-1.27.13-3.23.39-5.88l.63-6.35c.02-.23.06-.73.12-1.5.02-.32.06-.85.12-1.61.06-.75.09-1.33.09-1.74,0-1.49-.33-2.24-.98-2.24-1.1,0-2.38,1.65-3.83,4.96-1.45,3.31-2.29,6.45-2.51,9.44l-.47,6.33Z"/>
      <path class="cls-6" d="M456.09,112.34c-1.32,3.27-2.78,5.95-4.36,8.03s-2.96,3.12-4.13,3.12c-1.6,0-2.41-1.94-2.41-5.83,0-5.34,1.17-9.97,3.51-13.88s5.11-5.87,8.31-5.87c1.22,0,2.26.23,3.11.68-.06.32-.09.51-.11.58l-.21,1.4c-.14.97-.22,1.53-.23,1.69l-1.12,11.64-.16,1.69c-.15,1.67-.23,2.78-.23,3.34,0,.75.14,1.13.44,1.13.98,0,1.98-1.64,3.01-4.93.31.28.47.56.47.84,0,.62-.5,1.86-1.51,3.72-1.37,2.53-2.64,3.8-3.81,3.8-.86,0-1.28-.86-1.28-2.58,0-.53.04-1.26.12-2.19l.18-2.11.23-2.32.2-1.95ZM457.09,101.9c-1.07-.89-2.15-1.34-3.24-1.34-1.64,0-3.02,1.5-4.13,4.5-1.11,3-1.67,6.72-1.67,11.16,0,2.28.45,3.42,1.35,3.42,1.04,0,2.3-1.19,3.78-3.58,1.99-3.21,3.2-6.99,3.62-11.32l.28-2.84Z"/>
      <path class="cls-6" d="M470.78,115.06c.34.25.51.56.51.95,0,1.27-.63,2.83-1.89,4.69-1.26,1.86-2.32,2.79-3.17,2.79-.97,0-1.46-1.05-1.46-3.16,0-1.28.05-2.59.16-3.93l.19-2.35,1.36-18.35c.42-5.59,1.7-10.26,3.84-14,2.14-3.74,4.6-5.62,7.39-5.62.68,0,1.25.09,1.72.26l-2.49,3.82c-.55-.28-1.19-.42-1.93-.42-1.76,0-3.07.93-3.94,2.78s-1.47,4.99-1.8,9.42l-1.63,22.08c-.13,1.7-.19,2.93-.19,3.66,0,1.58.18,2.37.54,2.37.43,0,.94-.52,1.52-1.56.58-1.04,1.01-2.19,1.28-3.45Z"/>
      <path class="cls-6" d="M480.38,115.06c.34.25.51.56.51.95,0,1.27-.63,2.83-1.89,4.69-1.26,1.86-2.32,2.79-3.17,2.79-.97,0-1.46-1.05-1.46-3.16,0-1.28.05-2.59.16-3.93l.19-2.35,1.36-18.35c.42-5.59,1.7-10.26,3.84-14,2.14-3.74,4.6-5.62,7.39-5.62.68,0,1.25.09,1.72.26l-2.49,3.82c-.55-.28-1.19-.42-1.93-.42-1.76,0-3.07.93-3.94,2.78s-1.47,4.99-1.8,9.42l-1.63,22.08c-.13,1.7-.19,2.93-.19,3.66,0,1.58.18,2.37.54,2.37.43,0,.94-.52,1.52-1.56.58-1.04,1.01-2.19,1.28-3.45Z"/>
      <path class="cls-6" d="M493.52,114.42c.29.3.44.65.44,1.05,0,.54-.38,1.48-1.12,2.79-2,3.48-3.98,5.22-5.94,5.22-1.2,0-2.18-.71-2.95-2.14s-1.16-3.24-1.16-5.46c0-4.01,1.01-8.06,3.03-12.17s4.02-6.16,6-6.16c1.43,0,2.14,1.15,2.14,3.45,0,2.58-.83,5.11-2.5,7.57-1.67,2.46-3.71,4.18-6.11,5.14.23,4.22,1.35,6.33,3.34,6.33s3.58-1.88,4.83-5.64ZM485.42,110.52c.34.18.65.26.93.26,1.45,0,2.72-.67,3.81-2,1.09-1.33,1.63-2.9,1.63-4.69,0-2.06-.7-3.08-2.09-3.08-1.01,0-1.92.9-2.73,2.7s-1.33,4.07-1.56,6.82Z"/>
      <path class="cls-6" d="M501.97,108.68c2.6-7.4,5.16-11.1,7.68-11.1.66,0,1.31.23,1.97.69l-2.48,4.06c-.38-.32-.86-.47-1.44-.47-1.22,0-2.5,1.48-3.86,4.44s-2.15,6.04-2.38,9.24l-.47,6.43-2.61,1.32.05-.79.12-1.71.14-1.71.92-12.55.11-1.37c.08-1.04.12-1.88.12-2.53,0-1.07-.2-1.61-.6-1.61-.94,0-1.87,1.5-2.8,4.51-.29-.33-.43-.68-.42-1.03.04-1.07.69-2.49,1.96-4.26,1.27-1.77,2.28-2.65,3.02-2.65,1,0,1.5.99,1.5,2.95,0,.47-.03,1.12-.09,1.92l-.12,1.85-.16,2.21-.16,2.16Z"/>
      <path class="cls-6" d="M524.85,102.51l-2.85,4.11c-.28-1.41-.42-2.74-.42-4.01,0-4.92,1.37-8.9,4.1-11.94,1.99-2.21,4.83-3.32,8.51-3.32h5.8c2.18,0,4.41-.12,6.68-.37l-1.42,5.42-.28.98c-.29,1.04-.67,1.56-1.12,1.56-.07,0-.15,0-.25-.03.13-.88.19-1.58.19-2.11,0-1.16-.41-1.88-1.22-2.17-.82-.29-2.85-.44-6.1-.44h-1.71l-.95,12.79h3.44c1.99,0,3.75-.14,5.29-.42-1.34,2.41-2.69,3.61-4.06,3.61-.76,0-1.85-.09-3.24-.26-.58-.05-.98-.08-1.22-.08h-.42l-.17,2.29c-.25,3.33-.64,5.69-1.17,7.09s-1.58,2.81-3.14,4.23l3.85.45,1.57.21c1.1.12,2.42.18,3.96.18,2.59,0,4.76-1.25,6.48-3.74.2.33.3.65.3.95,0,.49-.63,1.5-1.88,3.03-1.83,2.23-3.83,3.35-5.99,3.35-2,0-4.89-.26-8.65-.78l-6.56-.91c-.22-.02-1.01-.09-2.37-.21l3.21-3.64c1.16.3,2.55.56,4.18.79,1.15-.67,1.92-1.62,2.32-2.84.4-1.23.73-3.7,1-7.41l1.38-18.67h-.61c-2.27,0-4.05.7-5.33,2.1-1.29,1.4-1.93,3.33-1.93,5.79,0,1.42.27,2.9.81,4.43Z"/>
      <path class="cls-6" d="M554.66,115.06c.34.25.51.56.51.95,0,1.27-.63,2.83-1.89,4.69-1.26,1.86-2.32,2.79-3.17,2.79-.97,0-1.46-1.05-1.46-3.16,0-1.28.05-2.59.16-3.93l.19-2.35,1.36-18.35c.42-5.59,1.7-10.26,3.84-14,2.14-3.74,4.6-5.62,7.39-5.62.68,0,1.25.09,1.72.26l-2.49,3.82c-.55-.28-1.19-.42-1.93-.42-1.76,0-3.07.93-3.94,2.78s-1.47,4.99-1.8,9.42l-1.63,22.08c-.13,1.7-.19,2.93-.19,3.66,0,1.58.18,2.37.54,2.37.43,0,.94-.52,1.52-1.56.58-1.04,1.01-2.19,1.28-3.45Z"/>
      <path class="cls-6" d="M567.81,114.42c.29.3.44.65.44,1.05,0,.54-.38,1.48-1.12,2.79-2,3.48-3.98,5.22-5.94,5.22-1.2,0-2.18-.71-2.95-2.14s-1.16-3.24-1.16-5.46c0-4.01,1.01-8.06,3.03-12.17s4.02-6.16,6-6.16c1.43,0,2.14,1.15,2.14,3.45,0,2.58-.83,5.11-2.5,7.57-1.67,2.46-3.71,4.18-6.11,5.14.23,4.22,1.35,6.33,3.34,6.33s3.58-1.88,4.83-5.64ZM559.71,110.52c.34.18.65.26.93.26,1.45,0,2.72-.67,3.81-2,1.09-1.33,1.63-2.9,1.63-4.69,0-2.06-.7-3.08-2.09-3.08-1.01,0-1.92.9-2.73,2.7s-1.33,4.07-1.56,6.82Z"/>
      <path class="cls-6" d="M584.24,121.89l-2.61,1.61.05-.74.14-1.95.12-1.85.88-11.84.12-1.34c.05-.7.07-1.39.07-2.06,0-1.7-.35-2.56-1.04-2.56-1.08,0-2.34,1.65-3.77,4.96-1.44,3.31-2.27,6.45-2.49,9.44l-.45,6.33-2.63,1.61.05-.74.14-1.95.14-1.85.9-12.23.11-1.4c.08-1.09.12-1.97.12-2.64,0-1.12-.19-1.69-.56-1.69-.88,0-1.83,1.49-2.85,4.48-.27-.33-.4-.62-.4-.87,0-1.05.64-2.49,1.93-4.31,1.29-1.82,2.3-2.73,3.05-2.73,1.01,0,1.51.97,1.51,2.9,0,.49-.03,1.15-.09,1.98l-.14,2.14-.14,1.79-.14,1.87.49-1.16c2.62-6.34,5.07-9.52,7.33-9.52,1.09,0,1.63,1.18,1.63,3.53,0,.41-.05,1.26-.14,2.56l-.18,2.43-.24,3.3c1.09-3.39,2.38-6.21,3.88-8.45,1.49-2.24,2.83-3.36,4-3.36s1.74,1.12,1.74,3.38c0,.97-.07,2.12-.2,3.45l-.93,9.78c-.21,2.02-.31,3.59-.31,4.69,0,.93.17,1.4.51,1.4.4,0,.91-.5,1.51-1.5.61-1,1.09-2.14,1.46-3.4.32.32.48.61.48.87,0,1.11-.66,2.59-1.97,4.46-1.31,1.86-2.36,2.79-3.13,2.79-1,0-1.5-1-1.5-3.01,0-1.27.13-3.23.39-5.88l.63-6.35c.02-.23.06-.73.12-1.5.02-.32.06-.85.12-1.61.06-.75.09-1.33.09-1.74,0-1.49-.33-2.24-.98-2.24-1.1,0-2.37,1.65-3.83,4.96-1.45,3.31-2.29,6.45-2.51,9.44l-.47,6.33Z"/>
      <path class="cls-6" d="M609.59,114.42c.29.3.44.65.44,1.05,0,.54-.38,1.48-1.12,2.79-2,3.48-3.98,5.22-5.94,5.22-1.2,0-2.18-.71-2.95-2.14s-1.16-3.24-1.16-5.46c0-4.01,1.01-8.06,3.03-12.17s4.02-6.16,6-6.16c1.43,0,2.14,1.15,2.14,3.45,0,2.58-.83,5.11-2.5,7.57-1.67,2.46-3.71,4.18-6.11,5.14.23,4.22,1.35,6.33,3.34,6.33s3.58-1.88,4.83-5.64ZM601.49,110.52c.34.18.65.26.93.26,1.45,0,2.72-.67,3.81-2,1.09-1.33,1.63-2.9,1.63-4.69,0-2.06-.7-3.08-2.09-3.08-1.01,0-1.92.9-2.73,2.7s-1.33,4.07-1.56,6.82Z"/>
      <path class="cls-6" d="M617.04,121.89l-2.63,1.61.05-.74.14-1.95.14-1.85.92-12.23.11-1.4c.07-1.09.11-1.97.11-2.64,0-1.12-.19-1.69-.56-1.69-.88,0-1.83,1.49-2.83,4.48-.27-.33-.4-.62-.4-.87,0-1.05.64-2.49,1.93-4.31,1.29-1.82,2.3-2.73,3.04-2.73,1.01,0,1.51.97,1.51,2.9,0,.49-.03,1.15-.09,1.98l-.14,2.14-.14,1.79-.14,1.87c1.38-3.09,2.9-5.65,4.54-7.66s3.05-3.02,4.21-3.02,1.71,1.19,1.71,3.56c0,.72-.06,1.8-.19,3.24l-.96,9.82c-.19,1.97-.29,3.52-.29,4.66,0,.91.16,1.37.49,1.37.81,0,1.81-1.61,3-4.83.28.26.42.54.42.82,0,1.14-.65,2.64-1.96,4.5-1.31,1.85-2.37,2.78-3.19,2.78-.92,0-1.37-.98-1.37-2.95,0-1.44.12-3.44.37-5.99l.62-6.38c.2-2.07.3-3.72.3-4.93,0-1.39-.32-2.08-.97-2.08-1.5,0-3.02,1.53-4.56,4.58s-2.44,6.32-2.7,9.82l-.47,6.33Z"/>
      <path class="cls-6" d="M638.11,101.32l-.85,11.65c-.15,2.09-.23,3.64-.23,4.64,0,1.99.45,2.98,1.35,2.98.97,0,1.97-1.2,3.01-3.59.17.33.26.63.26.9,0,.99-.58,2.16-1.73,3.53s-2.15,2.06-2.98,2.06c-1.66,0-2.5-1.6-2.5-4.8,0-1.18.1-3.08.3-5.72l.84-11.65h-3.69l2.05-3.06h1.87l.37-4.8,2.59-1.29-.43,6.09h7.45l-2.06,3.06h-5.63Z"/>
      <path class="cls-6" d="M644.24,122.07l2.43-2.98c.92,1.46,2.07,2.19,3.45,2.19,1.69,0,2.54-1.22,2.54-3.67,0-1.35-.78-3.24-2.33-5.67l-1-1.56c-1.47-2.3-2.2-4.17-2.2-5.59,0-2.04.59-3.75,1.77-5.14,1.18-1.39,2.63-2.08,4.35-2.08.94,0,1.96.26,3.08.79l-2.11,2.93c-.89-1-1.88-1.5-2.97-1.5-1.28,0-1.92.8-1.92,2.4,0,1.14.71,2.82,2.13,5.04l1.09,1.74c1.62,2.53,2.43,4.57,2.43,6.12,0,2.21-.71,4.17-2.13,5.87s-3.05,2.54-4.9,2.54c-1.31,0-2.54-.47-3.69-1.42Z"/>
    </g>
  </g>
</svg>
