<?xml version="1.0" encoding="UTF-8" standalone="no"?>
<!-- Created with Inkscape (http://www.inkscape.org/) -->

<svg
   xmlns:dc="http://purl.org/dc/elements/1.1/"
   xmlns:cc="http://creativecommons.org/ns#"
   xmlns:rdf="http://www.w3.org/1999/02/22-rdf-syntax-ns#"
   xmlns:svg="http://www.w3.org/2000/svg"
   xmlns="http://www.w3.org/2000/svg"
   xmlns:sodipodi="http://sodipodi.sourceforge.net/DTD/sodipodi-0.dtd"
   xmlns:inkscape="http://www.inkscape.org/namespaces/inkscape"
   width="266.05508mm"
   height="122.6449mm"
   viewBox="0 0 942.71486 434.56853"
   id="svg2"
   version="1.1"
   inkscape:version="0.91 r13725"
   sodipodi:docname="Logo Logo White Background.svg">
  <defs
     id="defs4" />
  <sodipodi:namedview
     id="base"
     pagecolor="#ffffff"
     bordercolor="#666666"
     borderopacity="1.0"
     inkscape:pageopacity="0.0"
     inkscape:pageshadow="2"
     inkscape:zoom="0.35355339"
     inkscape:cx="-60.40651"
     inkscape:cy="-185.8618"
     inkscape:document-units="px"
     inkscape:current-layer="layer1"
     showgrid="false"
     fit-margin-top="0"
     fit-margin-left="0"
     fit-margin-right="0"
     fit-margin-bottom="0"
     inkscape:window-width="1920"
     inkscape:window-height="1080"
     inkscape:window-x="0"
     inkscape:window-y="0"
     inkscape:window-maximized="0" />
  <metadata
     id="metadata7">
    <rdf:RDF>
      <cc:Work
         rdf:about="">
        <dc:format>image/svg+xml</dc:format>
        <dc:type
           rdf:resource="http://purl.org/dc/dcmitype/StillImage" />
        <dc:title></dc:title>
      </cc:Work>
    </rdf:RDF>
  </metadata>
  <g
     inkscape:label="Layer 1"
     inkscape:groupmode="layer"
     id="layer1"
     transform="translate(99.310204,-308.89682)">
    <rect
       style="color:#000000;clip-rule:nonzero;display:inline;overflow:visible;visibility:visible;opacity:1;isolation:auto;mix-blend-mode:normal;color-interpolation:sRGB;color-interpolation-filters:linearRGB;solid-color:#000000;solid-opacity:1;fill:#ffffff;fill-opacity:1;fill-rule:nonzero;stroke:none;stroke-width:14;stroke-linecap:round;stroke-linejoin:round;stroke-miterlimit:4;stroke-dasharray:none;stroke-dashoffset:0;stroke-opacity:1;color-rendering:auto;image-rendering:auto;shape-rendering:auto;text-rendering:auto;enable-background:accumulate"
       id="rect4275"
       width="942.71484"
       height="434.56854"
       x="-99.310204"
       y="308.89682"
       rx="137.95827"
       ry="137.95827" />
    <g
       id="g4317"
       transform="translate(-1.3559663e-5,-8.4852836)">
      <path
         id="path4185"
         d="m 80.8975,413.76751 c -25.25,0 -35.3203,3.28851 -37.875,7.875 -29.1128,52.26628 -27.8407,145.04573 -30,233.25 -0.1407,5.74828 1.625,10.875 4.875,15.375 3.25,4.5 7.625,6.75 13.125,6.75 l 115.5,0 c 4.50004,0 7.75002,-6 9.75002,-18 0.14094,-1.17446 0.25469,-2.34022 0.36914,-3.50586 -0.34074,-0.33395 -0.68358,-0.66303 -1.02148,-1.00195 C 144.6672,643.05889 136.4424,625.53348 130.9424,605.39251 l -41.7949,0 c 0.3093,-63.09585 35.2148,-173.38767 30,-183.75 -2.36,-4.68964 -12.75,-7.875 -38.25,-7.875 z"
         style="color:#000000;font-style:normal;font-variant:normal;font-weight:normal;font-stretch:normal;font-size:medium;line-height:125%;font-family:'Lilita One';-inkscape-font-specification:'Lilita One';text-indent:0;text-align:center;text-decoration:none;text-decoration-line:none;text-decoration-style:solid;text-decoration-color:#000000;letter-spacing:normal;word-spacing:normal;text-transform:none;direction:ltr;block-progression:tb;writing-mode:lr-tb;baseline-shift:baseline;text-anchor:middle;white-space:normal;clip-rule:nonzero;visibility:visible;isolation:auto;mix-blend-mode:normal;color-interpolation:sRGB;color-interpolation-filters:linearRGB;solid-color:#000000;solid-opacity:1;fill:#d900bd;fill-opacity:1;fill-rule:nonzero;stroke:none;stroke-width:14;stroke-linecap:round;stroke-linejoin:round;stroke-miterlimit:4;stroke-dasharray:none;stroke-dashoffset:0;stroke-opacity:1;color-rendering:auto;image-rendering:auto;shape-rendering:auto;text-rendering:auto"
         inkscape:connector-curvature="0" />
      <path
         id="path4187"
         d="m 244.53033,380.49993 c -27.60782,-0.15569 -56.28708,10.54881 -81.46484,32.76758 -22.24999,22.75 -33.37499,74.25 -33.37499,118.5 0,44 11,91.5 32.99999,114.5 42.50003,42.62803 107.66423,46.00275 156.125,1.5 5.44275,-5.44274 10.21482,-12.41928 14.32617,-20.5039 -12.78074,-26.85374 -19.17773,-65.34749 -19.17773,-99.83204 0,-29.20587 6.18173,-67.92064 18.53711,-95.60546 -3.77116,-7.51802 -8.08076,-13.9672 -12.93555,-18.9336 -20.891,-21.22098 -47.42733,-32.23688 -75.03516,-32.39258 z m -2.47656,71.57227 c 7.11551,-0.054 14.23512,4.48412 20.88672,15.19531 8.25,10.75 12.375,44.125 12.375,64.125 0,20 -4,49.375 -12,60.125 -14.9548,20.85807 -24.01269,22.27513 -45.125,0.375 -7.75,-10.75 -11.625,-40 -11.625,-59.75 0,-20 4,-53.5 12,-64.5 7.36513,-9.54992 15.42404,-15.50911 23.48828,-15.57031 z"
         style="color:#000000;font-style:normal;font-variant:normal;font-weight:normal;font-stretch:normal;font-size:medium;line-height:125%;font-family:'Lilita One';-inkscape-font-specification:'Lilita One';text-indent:0;text-align:center;text-decoration:none;text-decoration-line:none;text-decoration-style:solid;text-decoration-color:#000000;letter-spacing:normal;word-spacing:normal;text-transform:none;direction:ltr;block-progression:tb;writing-mode:lr-tb;baseline-shift:baseline;text-anchor:middle;white-space:normal;clip-rule:nonzero;visibility:visible;isolation:auto;mix-blend-mode:normal;color-interpolation:sRGB;color-interpolation-filters:linearRGB;solid-color:#000000;solid-opacity:1;fill:#04b934;fill-opacity:1;fill-rule:nonzero;stroke:none;stroke-width:14;stroke-linecap:round;stroke-linejoin:round;stroke-miterlimit:4;stroke-dasharray:none;stroke-dashoffset:0;stroke-opacity:1;color-rendering:auto;image-rendering:auto;shape-rendering:auto;text-rendering:auto"
         inkscape:connector-curvature="0" />
      <path
         id="path4189"
         d="m 439.59869,370.8515 c -28.72606,0.30775 -55.88037,10.71034 -83.00976,36.08007 -21.75,24.25 -32.625,79.75 -32.625,118.5 0,45.5 11.125,98 33.375,121.5 28.81029,29.87206 78.63837,41.64905 123.5,30.375 15.25,-3.5 25.375,-7 30.375,-10.5 l 0.28125,-22.08007 C 489.47939,614.08811 480.61119,575.97244 485.35846,540.54876 l -1.51953,-0.11719 c -4.75,0 -10.75,0.625 -18,1.875 -7.25,1 -10.875,3.25 -10.875,6.75 l -0.75,51 c 0.11342,19.60031 -29.61921,6.26959 -37.625,-6.375 -9.75,-11 -14.625,-45 -14.625,-66 0,-21 4.75,-60.49999 14.25,-70.5 11.8304,-12.12002 24.32717,-18.93489 42.125,-11.62499 7,2 11.625,4 13.875,5.99999 2.5,1.75 4.75,2.625 6.75,2.625 2.25,0 5.75,-2.5 10.5,-7.49999 4.75,-5 9,-12.5 12.75,-22.5 3.75,-10.25 5.625,-18.125 5.625,-23.625 0,-5.5 -0.125,-9.25 -0.375,-11.25 -5.25,-5.75 -15,-10.25 -29.25,-13.5 -12.27579,-3.05804 -24.18524,-4.81643 -35.83008,-4.95313 -0.92997,-0.0109 -1.85851,-0.0119 -2.78516,-0.002 z M 574.2276,546.69525 c -2.505,15.16385 1.06664,29.62696 11.07812,43.44726 1.24951,1.69287 2.56308,3.24373 3.9375,4.66016 l -0.86914,-45.3711 c 0,-0.99151 -5.70058,-1.9021 -14.14648,-2.73632 z"
         style="color:#000000;font-style:normal;font-variant:normal;font-weight:normal;font-stretch:normal;font-size:medium;line-height:125%;font-family:'Lilita One';-inkscape-font-specification:'Lilita One';text-indent:0;text-align:center;text-decoration:none;text-decoration-line:none;text-decoration-style:solid;text-decoration-color:#000000;letter-spacing:normal;word-spacing:normal;text-transform:none;direction:ltr;block-progression:tb;writing-mode:lr-tb;baseline-shift:baseline;text-anchor:middle;white-space:normal;clip-rule:nonzero;visibility:visible;isolation:auto;mix-blend-mode:normal;color-interpolation:sRGB;color-interpolation-filters:linearRGB;solid-color:#000000;solid-opacity:1;fill:#0081ff;fill-opacity:1;fill-rule:nonzero;stroke:none;stroke-width:14;stroke-linecap:round;stroke-linejoin:round;stroke-miterlimit:4;stroke-dasharray:none;stroke-dashoffset:0;stroke-opacity:1;color-rendering:auto;image-rendering:auto;shape-rendering:auto;text-rendering:auto"
         inkscape:connector-curvature="0" />
      <path
         sodipodi:nodetypes="sccsccssccsccs"
         d="m 611.18115,680.76699 c -35,0 -63.625,-11.5 -85.875,-34.5 -43.91157,-53.15652 -44.7413,-133.71332 0.375,-181 22.5,-22.75 51.375,-34.125 86.625,-34.125 35.5,0 64.125,11.25 85.875,33.75 43.17426,54.37072 44.80322,136.41163 -0.75,182.875 -22.25,22 -51,33 -86.25,33 z m 0.375,-177.625 c -12,0 -22.125,5.5 -30.375,16.5 -15.97959,25.933 -16.54675,49.9258 -0.375,72.25 7.75,10.5 17.875,15.75 30.375,15.75 12.75,0 23,-5.375 30.75,-16.125 16.56229,-22.94306 16.07101,-50.62385 -0.375,-72.25 -8,-10.75 -18,-16.125 -30,-16.125 z"
         style="color:#000000;font-style:normal;font-variant:normal;font-weight:normal;font-stretch:normal;font-size:medium;line-height:125%;font-family:'Lilita One';-inkscape-font-specification:'Lilita One';text-indent:0;text-align:center;text-decoration:none;text-decoration-line:none;text-decoration-style:solid;text-decoration-color:#000000;letter-spacing:normal;word-spacing:normal;text-transform:none;direction:ltr;block-progression:tb;writing-mode:lr-tb;baseline-shift:baseline;text-anchor:middle;white-space:normal;clip-rule:nonzero;visibility:visible;isolation:auto;mix-blend-mode:normal;color-interpolation:sRGB;color-interpolation-filters:linearRGB;solid-color:#000000;solid-opacity:1;fill:#ff8800;fill-opacity:1;fill-rule:nonzero;stroke:none;stroke-width:14;stroke-linecap:round;stroke-linejoin:round;stroke-miterlimit:4;stroke-dasharray:none;stroke-dashoffset:0;stroke-opacity:1;color-rendering:auto;image-rendering:auto;shape-rendering:auto;text-rendering:auto"
         id="path4191"
         inkscape:connector-curvature="0" />
    </g>
  </g>
</svg>
