<?xml version="1.0" encoding="UTF-8"?>
<svg id="Layer_1" data-name="Layer 1" xmlns="http://www.w3.org/2000/svg" xmlns:xlink="http://www.w3.org/1999/xlink" viewBox="0 0 215.72 26.35">
  <defs>
    <style>
      .cls-1 {
        fill: url(#linear-gradient);
        stroke: gray;
        stroke-width: .04px;
      }

      .cls-1, .cls-2, .cls-3, .cls-4 {
        stroke-miterlimit: 10;
      }

      .cls-2 {
        fill: url(#linear-gradient-2);
      }

      .cls-2, .cls-3, .cls-4 {
        stroke: #666;
        stroke-width: .1px;
      }

      .cls-3 {
        fill: url(#linear-gradient-3);
      }

      .cls-4 {
        fill: url(#linear-gradient-4);
      }
    </style>
    <linearGradient id="linear-gradient" x1="38.15" y1="12.08" x2="93.67" y2="12.08" gradientUnits="userSpaceOnUse">
      <stop offset="0" stop-color="#7ac943"/>
      <stop offset=".3" stop-color="#009409"/>
      <stop offset=".59" stop-color="#005503"/>
      <stop offset="1" stop-color="#a2ff15"/>
    </linearGradient>
    <linearGradient id="linear-gradient-2" x1="187.95" y1="14.02" x2="192.18" y2="14.02" gradientUnits="userSpaceOnUse">
      <stop offset="0" stop-color="#1a0"/>
      <stop offset="1" stop-color="#2e5500"/>
    </linearGradient>
    <linearGradient id="linear-gradient-3" x1="196.23" y1="3.84" x2="215.67" y2="3.84" xlink:href="#linear-gradient-2"/>
    <linearGradient id="linear-gradient-4" x1="203.82" y1="17.63" x2="208.05" y2="17.63" xlink:href="#linear-gradient-2"/>
  </defs>
  <path class="cls-1" d="m93.61,11.54c-.14-.13-.27-.27-.43-.38-.11-.08-.25-.17-.38-.18-1.1-.02-2.2-.02-3.3,0-.13,0-.33.11-.39.23-.38.74-.94,1.26-1.56,1.75-.75.6-1.55,1.04-2.44,1.29-1.26.35-2.48.22-3.6-.51-.53-.35-1.07-.53-1.67-.54-1.84-.01-3.67-.03-5.51-.04-.48,0-.56.09-.56.61,0,.67.01,1.34,0,2.01-.04,1.24-.16,2.44-.87,3.49-.67.99-1.56,1.6-2.62,1.78-.97.17-1.98.17-2.96-.06-1.52-.37-2.56-1.35-3.05-3.01-.2-.69-.21-1.38-.2-2.08.05-3.65.09-7.29.14-10.94,0-.18,0-.35,0-.53-.03-.51-.24-.74-.69-.75-.72-.02-1.44-.03-2.15-.03-.52,0-.77.23-.81.8-.04.56-.06,1.12-.07,1.69-.03,1.97-.06,3.94-.09,5.92-.04,2.69-.06,5.39-.1,8.08-.03,1.67-.76,2.87-2.08,3.64-.64.37-1.35.4-2.06.38-.48-.01-.96-.03-1.43-.06-.61-.03-1.21-.07-1.81-.1-1.51-.08-2.8-1.64-2.91-3.19-.05-.72-.01-1.44,0-2.16.03-1.78.07-3.56.1-5.34.03-2.08.05-4.16.1-6.23.01-.6-.18-1.1-.47-1.57-.07-.11-.17-.22-.28-.28-.56-.32-1.31-.17-1.77.32-.34.36-.5.8-.5,1.32,0,1.25,0,2.5-.04,3.75-.01.56-.07,1.12-.16,1.67-.19,1.13-1.26,2.18-2.36,2.26-.49.04-.99.05-1.48.02-1.5-.09-2.99-.21-4.49-.32-.19-.01-.39-.02-.48-.34.14-.04.26-.11.39-.12,1.22-.11,2.45-.22,3.67-.32.59-.05,1.18-.05,1.77-.1.33-.03.69-.04.97-.2.65-.36.95-1,.94-1.81,0-.42,0-.85,0-1.27,0-1.16-.02-2.33-.02-3.49,0-.83.28-1.58.77-2.17.95-1.11,2.06-1.47,3.39-.81.77.38,1.33.98,1.63,1.88.18.54.23,1.1.24,1.66.05,1.71.07,3.41.1,5.12.04,2.25.06,4.51.1,6.76,0,.4.01.81.03,1.21.03.71.38,1.13,1.01,1.16.71.03,1.43,0,2.15,0,.48,0,.96,0,1.44-.04.73-.06,1.09-.5,1.1-1.31,0-.51,0-1.02,0-1.53-.05-2.48-.1-4.97-.15-7.45-.03-1.67-.07-3.35-.08-5.02,0-.83-.02-1.66.08-2.48.22-1.84,1.73-3.41,3.46-3.51.89-.06,1.79-.08,2.68-.03,1.61.09,2.7,1.08,3.38,2.62.23.53.31,1.19.32,1.8.06,3.08.08,6.16.11,9.25,0,.65.01,1.3.03,1.95.01.35.05.69.09,1.08.61,0,1.18,0,1.75,0,.22,0,.3-.17.3-.39,0-.4-.02-.81-.01-1.21.01-.9-.06-1.81.07-2.68.25-1.62,1.06-2.83,2.44-3.54.61-.31,1.26-.38,1.91-.39,1.95-.02,3.9-.03,5.84-.04.28,0,.53-.03.78-.19.28-.19.57-.38.88-.52,1.53-.7,3.04-.63,4.54.11.77.38,1.43.93,2.06,1.53.25.24.52.51.65.83.15.38.35.47.7.47,1.13-.02,2.26,0,3.38,0,.22.27.43.52.64.77-.02.02-.04.05-.06.07Z"/>
  <path d="m4.22,18.46v7.78H.04v-11.72c.23-.01.45-.04.68-.04,2.67,0,5.35,0,8.02,0,.97,0,1.93-.09,2.86-.44,1.65-.61,2.6-1.89,2.66-3.63.01-.39,0-.8-.05-1.18-.21-1.38-.98-2.35-2.27-2.9-.81-.34-1.64-.59-2.53-.6-2.87-.01-5.75-.01-8.62-.02-.23,0-.47,0-.68,0C-.02,5.24-.04,2.47.08,1.84c.18-.01.37-.03.56-.03,2.87,0,5.75-.01,8.62,0,1.21,0,2.41.11,3.59.43,2.94.79,5.38,3.4,5.7,6.54.16,1.58.04,3.12-.59,4.6-.52,1.23-1.33,2.23-2.4,3.04-1.35,1.03-2.89,1.55-4.54,1.77-.98.13-1.97.18-2.96.22-1.05.04-2.1,0-3.15.01-.21,0-.43.02-.7.03Z"/>
  <path d="m91.32,5.71V1.84c.23-.01.42-.03.62-.03,2.77,0,5.55-.02,8.32.02,1.03.01,2.06.09,3.07.26,2.73.46,4.7,2.01,5.89,4.49.3.63.47,1.35.56,2.05.32,2.47-.09,4.78-1.78,6.73-.9,1.04-2.03,1.78-3.3,2.25-1.55.58-3.17.83-4.83.83-1.23,0-2.46,0-3.68,0-.21,0-.42.02-.7.03v7.77h-4.08c-.14-.41-.19-10.81-.05-11.73.2-.01.41-.03.62-.03,2.75,0,5.51,0,8.26,0,.9,0,1.77-.12,2.62-.43,2.29-.82,2.94-2.8,2.66-4.74-.24-1.66-1.22-2.7-2.79-3.22-.81-.27-1.65-.4-2.51-.4-2.71.01-5.43,0-8.14,0-.23,0-.47,0-.75,0Z"/>
  <path d="m164.91,26.16h-4.15V1.83c1.36-.05,2.69,0,4.08-.03.12.7.05,1.34.06,1.99.01.67,0,1.35,0,2.02,0,.65,0,1.31,0,1.96s0,1.31,0,1.96c0,.67,0,1.35,0,2.02,0,.65,0,1.3,0,2.04.17-.13.28-.19.36-.28,2.58-2.72,5.15-5.44,7.73-8.15,1.04-1.09,2.08-2.18,3.13-3.25.14-.14.37-.28.56-.28,1.68-.02,3.36-.01,5.16-.01-.15.2-.23.34-.34.46-2.35,2.58-4.71,5.15-7.06,7.72-2.57,2.81-5.14,5.61-7.71,8.42-.5.54-.98,1.09-1.49,1.62-.26.26-.35.54-.35.9.02,1.51,0,3.01,0,4.52v.71Z"/>
  <path d="m154.56,1.68v3.91c-.23.01-.43.03-.64.03-1.43,0-2.85-.02-4.28,0-.79.02-1.58.07-2.36.19-3.34.51-5.85,2.93-6.48,6.26-.3,1.6-.29,3.19.22,4.76,1.04,3.18,3.33,4.85,6.54,5.39.52.09,1.06.09,1.6.1,1.57.01,3.13,0,4.7,0,.22,0,.43,0,.63,0,.14.47.16,3.26.04,3.9-.12.01-.26.05-.39.05-1.84,0-3.69.02-5.53,0-3.58-.06-6.63-1.39-9.16-3.91-1.66-1.66-2.6-3.72-3.05-6-.53-2.67-.2-5.25.95-7.71,1.15-2.46,2.98-4.25,5.42-5.46,2.07-1.03,4.25-1.5,6.54-1.5,1.53,0,3.05,0,4.58,0,.21,0,.43,0,.7,0Z"/>
  <path d="m33.43,26.28h-4.54c-.01-.26-.03-.51-.03-.77,0-2.75,0-5.51,0-8.26,0-.45-.1-.84-.35-1.23-2.89-4.55-5.77-9.11-8.64-13.66-.1-.16-.19-.33-.33-.56.19-.02.32-.04.45-.04,1.23,0,2.46,0,3.69-.01.36,0,.57.12.77.43,2.92,4.65,5.85,9.29,8.77,13.93.14.22.25.51.25.77.02,3.03,0,6.06,0,9.1,0,.08-.02.15-.04.31Z"/>
  <path d="m133.9,26.25h-4.49c-3.22-8.03-5.99-16.22-8.85-24.42.18-.03.31-.06.43-.06,1.23,0,2.46.01,3.68,0,.37,0,.52.16.63.48,1.33,3.75,2.68,7.49,4.02,11.24,1.46,4.06,2.92,8.12,4.37,12.19.06.16.11.33.2.59Z"/>
  <path class="cls-2" d="m192.18,26.3h-4.13c-.11-.42-.15-23.72-.02-24.51,1.36-.07,2.74-.03,4.16-.02v24.53Z"/>
  <path class="cls-3" d="m215.67,1.85v3.87c-.43.12-18.72.16-19.44.04V1.85h19.44Z"/>
  <path d="m118.39,7.57c.38,1.02.75,2.03,1.13,3.05.27.72.53,1.45.82,2.16.13.32.11.59-.01.91-1.64,4.03-3.27,8.07-4.89,12.11-.14.34-.31.49-.69.49-1.19-.02-2.38,0-3.56,0-.1,0-.19-.02-.37-.04,2.49-6.25,4.97-12.47,7.45-18.68.05,0,.09,0,.14.01Z"/>
  <path class="cls-4" d="m208.05,26.24h-4.12c-.12-.43-.16-16.49-.04-17.22h4.16v17.22Z"/>
  <path d="m181.78,26.2c-.33,0-.67,0-1,0-1.15,0-2.3,0-3.44,0-.27,0-.49-.04-.67-.27-1.88-2.35-3.76-4.7-5.64-7.04-.04-.04-.05-.11-.1-.22.91-1.02,1.84-2.06,2.82-3.15,2.73,3.55,5.43,7.06,8.12,10.56-.02.04-.05.09-.07.13Z"/>
  <path d="m32.97,9.84c.53-.77,1.03-1.5,1.53-2.23,1.23-1.79,2.48-3.58,3.7-5.38.22-.33.46-.49.87-.48,1.09.02,2.18,0,3.27.01.15,0,.3.03.55.05-2.5,3.83-4.95,7.6-7.45,11.43-.83-1.15-1.62-2.24-2.46-3.4Z"/>
</svg>
