<?xml version="1.0" encoding="UTF-8"?>
<svg id="Layer_2" data-name="Layer 2" xmlns="http://www.w3.org/2000/svg" viewBox="0 0 287.62 288.2">
  <defs>
    <style>
      .cls-1 {
        fill: #000;
      }
    </style>
  </defs>
  <g id="Layer_1-2" data-name="Layer 1">
    <g>
      <path class="cls-1" d="m143.7,288.2c-8.64,0-16.68-4.99-20.48-12.71-2.79-5.67-3.1-12.3-.86-18.22,2.25-5.91,6.7-10.48,12.52-12.85,1.78-.72,2.08-1.19,2.06-3.16-.09-8.21-.08-16.54-.06-24.6,0-3.76.01-7.53,0-11.29,0-.34,0-1.15-.04-1.75-.63-.05-1.53-.05-1.9-.05h-40.63c-19.29,0-38.58,0-57.87-.01-8.25,0-14.1-4.13-16.05-11.31-.55-2.02-.53-4-.52-5.75v-.8c0-38.86,0-135.75,0-135.75v-3.86c0-1.54,0-3.13-.13-3.76-.58-.25-2.08-.55-3.54-.84C6.94,39.62.12,31.35,0,21.84-.12,11.48,6.29,3.07,15.96.89c.78-.18,1.56-.36,2.34-.55l1.45-.34h247.92l.3.06c4.97,1.02,10.13,2.59,14.23,7.12,5.26,5.82,6.72,12.96,4.25,20.66-2.5,7.76-8.43,12.68-16.71,13.86l-.29.04c-.64.09-1.34.19-1.83.28-.03.57-.03,1.4-.03,2.12v54.12c0,29.51,0,59.02-.01,88.53,0,8.35-3.93,14.1-11.05,16.18-1.88.55-3.72.59-5.29.59h-1.27c-22.33,0-96.29,0-96.29,0h-.77c-.46,0-.92,0-1.38.01-.39.01-.68.03-.9.04-.01.22-.02.51-.02.9-.01,4.64,0,9.28,0,13.91,0,7.65.01,15.56-.05,23.35-.01,1.43.15,1.83,1.81,2.53,8.59,3.61,13.48,10.33,14.13,19.45.66,9.28-3.31,16.69-11.49,21.41-3.43,1.98-7.33,3.03-11.28,3.03Zm.02-32.43c-5.33.05-9.06,3.89-9.08,9.35,0,2.67.94,5.1,2.66,6.82,1.66,1.66,3.95,2.58,6.47,2.58h.12c5.35-.06,9.08-3.91,9.08-9.35,0-2.67-.92-5.08-2.59-6.78-1.66-1.69-3.99-2.62-6.57-2.62h-.1Zm-109.75-66.5c.71.35,3.6.35,4.71.35h211.39c1.03,0,1.87-.02,2.66-.12.75-.09,1.04-.28,1.15-1.17.11-.86.11-1.8.11-2.79v-.4c0-47,0-94.01,0-141.01,0-.83-.02-1.65-.04-2.48-1.13-.03-2.25-.04-3.38-.04H36.42c-.98,0-2.06,0-2.74.05-.05.7-.05,1.81-.05,2.83,0,46.73,0,93.46,0,140.18,0,1.08,0,3.91.34,4.61ZM23.26,13.44c-1.14,0-2.35.01-3.45.18-3.66.56-6.39,3.55-6.51,7.13-.11,3.53,2.46,6.62,6.12,7.34,1.43.28,3,.32,4.35.32,39.72,0,79.45.01,119.17.01s80.6,0,120.9-.01c1.34,0,2.91-.04,4.35-.33,3.6-.72,6.12-3.66,6.11-7.17,0-3.58-2.66-6.63-6.31-7.26-1.18-.2-2.48-.22-3.83-.22h-.8c-27.35,0-54.62,0-81.89,0h-76.09c-27.03,0-54.05,0-81.08,0h-1.06Z"/>
      <path class="cls-1" d="m68.86,102.3c-5.44,0-10.87-.01-16.31-.04-5.55-.03-8.26-2.78-8.29-8.4-.05-11.29-.05-22.33,0-32.84.03-5.93,2.41-8.26,8.48-8.29,2.05-.01,4.09-.02,6.14-.02s4.24,0,6.36,0h3.79c1.67,0,8.39,0,10.08,0,2.26,0,4.51,0,6.77.03,5.52.06,7.88,2.45,7.9,7.97.05,12.15.04,23.07,0,33.39-.03,5.61-2.53,8.13-8.11,8.16-5.6.03-11.21.04-16.81.04Zm-10.93-13.7c.11.01.27.03.48.03,3.77-.02,7.51-.04,11.25-.04,3.53,0,7.06.01,10.6.03h0c.16,0,.29,0,.39-.02.01-.11.02-.27.02-.49-.04-2.65-.03-5.33-.02-7.92v-2.88c0-1.06,0-2.13,0-3.2-.01-2.49-.02-5.06.03-7.6,0-.29,0-.49-.03-.62-.11-.01-.26-.03-.46-.03-3.65.03-7.27.04-10.88.04s-7.32-.01-10.98-.03l-.03-3v3c-.15,0-.27,0-.36.02-.01.12-.03.28-.03.51.05,7.01.05,14.35,0,21.81,0,.16,0,.29.02.39Z"/>
      <path class="cls-1" d="m68.72,170.74c-5.38,0-10.75-.01-16.13-.04-5.57-.03-8.3-2.76-8.32-8.37-.05-11.05-.05-22.1,0-32.84.03-5.95,2.4-8.29,8.45-8.33,2.07-.01,4.15-.02,6.22-.02s10.07.02,10.07.02c1.67,0,8.38-.02,10.05-.02,2.26,0,4.53,0,6.79.03,5.54.06,7.91,2.43,7.94,7.94.05,11.9.05,22.82,0,33.39-.03,5.63-2.52,8.16-8.08,8.19-5.66.03-11.33.05-16.99.05Zm-10.79-13.7c.11.01.26.03.47.03,3.76-.02,7.49-.04,11.22-.04s7.08.01,10.62.03h0c.17,0,.3,0,.39-.02.01-.12.03-.28.03-.5-.04-7.49-.04-14.83,0-21.81,0-.17,0-.31-.02-.41-.1-.01-.22-.02-.38-.02-1.52.02-2.96.03-4.39.03-1.18,0-2.35,0-3.53,0h-2.96c-1.06,0-5.35,0-6.43,0-1.46,0-2.92,0-4.37-.04h-.12c-.24,0-.41.01-.52.03-.01.11-.03.27-.02.49.06,6.42.06,13.35,0,21.82,0,.17,0,.3.02.4Z"/>
      <path class="cls-1" d="m175.64,98.41c-19.94,0-39.86,0-59.8-.01-5.01,0-6.98-1.88-7.01-6.71-.01-1.78.1-3.8,1.57-5.28,1.5-1.52,3.65-1.65,5.55-1.65,10.02,0,20.04-.01,30.07-.01h60.95c9.75,0,19.5,0,29.25.01,4.34,0,7.05,1.1,7.15,6.55.03,1.83-.05,3.92-1.55,5.44-1.5,1.53-3.59,1.66-5.43,1.66-20.24,0-40.5.01-60.74.01Z"/>
      <path class="cls-1" d="m145.86,166.86c-9.97,0-19.94,0-29.91-.01-4.33,0-7.03-1.11-7.12-6.58-.03-1.82.07-3.89,1.56-5.4,1.5-1.53,3.6-1.66,5.46-1.66,19.76,0,39.53-.01,59.29-.01s40.83,0,61.24.01c5,0,6.96,1.9,6.98,6.75,0,1.77-.11,3.78-1.57,5.25-1.5,1.51-3.58,1.64-5.58,1.64-10.06,0-20.13.01-30.19.01h-60.17Z"/>
      <path class="cls-1" d="m146.79,74.14c-10.24,0-20.47,0-30.71-.01-4.46,0-7.23-1.14-7.25-6.76,0-1.77.11-3.78,1.57-5.26,1.48-1.49,3.51-1.62,5.29-1.62,5.03-.02,10.06-.02,15.09-.02h34.45c4.44,0,8.89,0,13.33,0,2.05,0,4.37.15,5.95,1.85,1.58,1.69,1.56,4.03,1.42,6.1-.24,3.55-2.44,5.67-5.89,5.68l-3.1.02c-1.82.01-3.64.02-5.46.02h-24.71Z"/>
      <path class="cls-1" d="m129.5,142.58c-4.42,0-8.84,0-13.26,0-2.06,0-4.39-.15-5.97-1.85-1.58-1.69-1.56-4.02-1.43-6.07.23-3.56,2.43-5.69,5.87-5.71l2.27-.02c1.36-.01,2.72-.02,4.09-.02h26.38c10.42,0,20.83,0,31.25,0,4.46,0,7.24,1.13,7.27,6.73.01,1.78-.1,3.81-1.57,5.29-1.4,1.42-3.36,1.62-5.27,1.62-5.03.02-10.06.02-15.09.02h-34.52Z"/>
    </g>
  </g>
</svg>
