<?xml version="1.0" encoding="UTF-8"?>
<svg id="Layer_2" data-name="Layer 2" xmlns="http://www.w3.org/2000/svg" viewBox="0 0 383.33 384">
  <defs>
    <style>
      .cls-1 {
        fill: #000;
      }
    </style>
  </defs>
  <g id="Layer_1-2" data-name="Layer 1">
    <path class="cls-1" d="m0,348.75V93.75c2.2-4.06,5.55-5.71,10.16-5.3,2.96.26,5.97.05,8.96.05,4.55,0,9.1,0,13.82,0,0-13.01,0-25.47,0-37.94,0-7.71,2.34-10.05,10.03-10.06,7.55,0,15.1,0,22.91,0,0-10.41.18-20.38-.08-30.33-.12-4.62,1.27-7.97,5.32-10.18h306.9c4.05,2.21,5.32,5.59,5.31,10.2-.1,110.36-.08,220.72-.08,331.08,0,1.12,0,2.25-.04,3.37-.49,17.19-12.03,32.45-28.38,37.49-2.23.69-4.51,1.24-6.77,1.86H35.18c-.56-.23-1.1-.55-1.67-.66-15.7-3.19-26.17-12.41-31.51-27.49-.82-2.31-1.34-4.73-1.99-7.1ZM14.97,103.65v3.76c0,78.12,0,156.23,0,234.35,0,1.12-.01,2.25.05,3.37.75,12.89,11.61,23.46,24.48,23.85,14.54.43,26.3-10.91,26.34-25.76.09-32.62.03-65.24.03-97.86,0-1.37-.12-2.78.11-4.12.63-3.58,2.82-5.87,6.42-6.37,3.45-.48,6.18,1.05,7.58,4.22.67,1.53.81,3.39.81,5.1.04,32.75.04,65.49.02,98.24,0,2.12-.16,4.24-.39,6.35-.82,7.33-3.89,13.78-8.47,20.22,1.87,0,3.08,0,4.28,0,88.19,0,176.38,0,264.58,0,16.91,0,27.46-10.63,27.46-27.68,0-107.36,0-214.72,0-322.08,0-1.33,0-2.65,0-3.97H80.84c0,1.63,0,2.99,0,4.36,0,50.62,0,101.24,0,151.86,0,1.37.08,2.76-.09,4.12-.48,3.83-3.67,6.63-7.39,6.62-3.73,0-6.91-2.81-7.39-6.63-.16-1.23-.08-2.5-.08-3.74,0-37.25,0-74.49,0-111.74v-4.33h-17.97v5.13c0,90.49,0,180.98,0,271.47,0,1.5.09,3.02-.1,4.49-.48,3.83-3.69,6.62-7.41,6.61-3.73-.01-6.9-2.82-7.37-6.65-.17-1.36-.08-2.75-.08-4.12,0-74.87,0-149.73,0-224.6v-4.46H14.97Z"/>
    <path class="cls-1" d="m224.59,49.5c37.53,0,75.06,0,112.59,0,7.73,0,10.13,2.36,10.13,9.98,0,16.49.01,32.98,0,49.47,0,6.93-2.58,9.54-9.45,9.54-75.56,0-151.12,0-226.68,0-6.84,0-9.38-2.61-9.38-9.61-.01-16.62-.01-33.23,0-49.85,0-6.93,2.58-9.53,9.45-9.53,37.78,0,75.56,0,113.34,0Zm107.49,53.84v-38.55H116.97v38.55h215.11Z"/>
    <path class="cls-1" d="m101.8,218.83c0-23.24,0-46.47,0-69.71,0-7.13,2.52-9.62,9.73-9.62,36.9,0,73.81,0,110.71,0,7.37,0,9.79,2.46,9.79,9.95,0,46.35,0,92.69,0,139.04,0,7.65-2.39,10-10.11,10.01-36.66,0-73.31,0-109.97,0-7.87,0-10.16-2.33-10.16-10.33,0-23.11,0-46.22,0-69.33Zm115.01,64.5v-128.54h-99.84v128.54h99.84Z"/>
    <path class="cls-1" d="m224.45,334.5c-37.4,0-74.8,0-112.2,0-1.12,0-2.25.05-3.36-.05-4.06-.37-7.01-3.49-7.05-7.38-.04-4.03,3.02-7.22,7.27-7.54.87-.07,1.74-.03,2.62-.03,75.18,0,150.35,0,225.53,0,1.12,0,2.26-.06,3.36.07,3.82.47,6.64,3.61,6.68,7.34.04,3.73-2.73,6.96-6.53,7.47-1.35.18-2.74.1-4.11.1-37.4,0-74.8,0-112.2,0Z"/>
    <path class="cls-1" d="m300.5,139.5c12.58,0,25.16-.01,37.74,0,5.64,0,9.15,3.01,9.05,7.64-.1,4.51-3.51,7.34-8.99,7.34-25.41.02-50.81.02-76.22,0-5.66,0-9.15-2.99-9.05-7.65.09-4.52,3.48-7.32,8.98-7.33,12.83-.02,25.66,0,38.48,0Z"/>
    <path class="cls-1" d="m300.2,175.5c12.7,0,25.41-.02,38.11,0,5.48,0,8.89,2.84,8.98,7.34.09,4.64-3.41,7.64-9.06,7.64-25.41.02-50.81.02-76.22,0-5.49,0-8.88-2.82-8.97-7.35-.09-4.66,3.39-7.62,9.06-7.63,12.7-.02,25.41,0,38.11,0Z"/>
    <path class="cls-1" d="m300.55,211.5c12.58,0,25.16-.01,37.74,0,5.49,0,8.9,2.81,9,7.32.11,4.64-3.4,7.66-9.04,7.66-25.41.02-50.81.02-76.22,0-5.49,0-8.89-2.81-9-7.32-.11-4.65,3.38-7.65,9.03-7.66,12.83-.02,25.66,0,38.48,0Z"/>
    <path class="cls-1" d="m300.2,262.5c-12.7,0-25.41.01-38.11,0-5.66,0-9.15-2.99-9.06-7.64.09-4.52,3.48-7.34,8.98-7.34,25.41-.02,50.81-.02,76.22,0,5.65,0,9.16,3,9.06,7.64-.09,4.51-3.5,7.34-8.98,7.35-12.7.02-25.41,0-38.11,0Z"/>
    <path class="cls-1" d="m299.77,298.5c-12.58,0-25.16.02-37.74,0-5.49,0-8.89-2.81-9-7.32-.11-4.65,3.38-7.66,9.03-7.66,25.41-.02,50.81-.02,76.22,0,5.49,0,8.9,2.81,9,7.32.11,4.64-3.4,7.66-9.04,7.67-12.83.02-25.66,0-38.48,0Z"/>
    <path class="cls-1" d="m73.59,215.97c-4.05-.08-7.27-3.42-7.25-7.52.02-4.1,3.29-7.4,7.34-7.43,4.2-.03,7.56,3.46,7.43,7.71-.12,4.09-3.48,7.32-7.52,7.24Z"/>
  </g>
</svg>
