<?xml version="1.0" encoding="UTF-8"?>
<svg id="Layer_2" data-name="Layer 2" xmlns="http://www.w3.org/2000/svg" viewBox="0 0 315.46 388">
  <defs>
    <style>
      .cls-1 {
        fill: #000;
      }
    </style>
  </defs>
  <g id="Layer_1-2" data-name="Layer 1">
    <path class="cls-1" d="m125.75,388v-16.23h164.79c-4.44-10.54-4.44-20.93-.02-31.59H32.68c-.35,0-.71,0-1.06.02-4.97.27-9.45,2.61-12.28,6.42-2.78,3.74-3.71,8.57-2.57,13.24,1.8,7.36,8.1,11.93,16.44,11.94,11.42.01,22.84.02,34.27.02h50.3s0,16.18,0,16.18H26.76l-.54-.42c-.07-.06-.14-.12-.21-.18C8.27,382.46,0,371.52,0,353.02v-148.83s16.22,0,16.22,0v41.46h31.33v-79.28h-31.52v29.49H.44l-.22-1.76c-.03-.22-.06-.42-.09-.61-.06-.43-.13-.83-.13-1.29,0-13.12,0-26.25,0-39.37C0,112.4-.02,70.58.08,29.46.12,17.01,8.78,5.52,21.15,1.5c.95-.31,1.89-.63,2.84-.95l1.63-.55h284.65l.52.36c4.22,2.94,4.71,7.08,4.67,10.37-.13,9.98-.11,20.14-.08,29.96,0,3.75.02,7.51.02,11.27v5.91h-16.02V16.37H64.25v307.27h234.92V66.19h16.23v46.41c0,71.05,0,144.52.05,216.77,0,4.33-1.41,7.5-4.6,10.26-4.67,4.06-7.38,9.95-7.43,16.16-.05,6.32,2.64,12.37,7.36,16.6,2.32,2.07,4.68,4.61,4.68,7.68,0,3.02-2.27,5.44-4.48,7.41l-.57.5H125.75Zm-109.47-60.02c6.47-3.79,13.22-4.15,19.16-4.15,1.32,0,2.65.02,3.97.04,1.3.02,2.6.04,3.89.04,1.6,0,2.99-.04,4.26-.11v-25.53h-31.28v29.7Zm31.19-46.38v-19.15h-31.13v19.15h31.13Zm.05-131.97v-79.21h-31.1v79.21h31.1Zm.08-95.92V16.27c-1.56-.02-3.12-.05-4.67-.08-2.16-.04-4.31-.09-6.45-.09-3.13,0-5.69.09-8.06.29-6.47.54-11.5,5.49-11.96,11.77-.46,6.28-.36,12.49-.25,19.06.04,2.12.07,4.3.09,6.49h31.29Z"/>
    <path class="cls-1" d="m181.59,286.17c-5.58,0-11.23-.03-16.8-.1-8.47-.1-15-6.75-15.18-15.47-.05-2.18-.03-4.36-.02-6.47,0-.58,0-1.16,0-1.73-2.77-1.21-4.48-1.93-5.56-1.93-1.17,0-2.32,1.07-5.48,4.17-3.7,3.63-7.84,5.55-11.97,5.55-4.13,0-8.25-1.92-11.9-5.54-7.29-7.24-14.5-14.47-21.45-21.48-7.41-7.48-7.47-16.42-.15-23.89,2.63-2.69,4.08-4.17,4.24-5.34.16-1.09-.59-2.83-2-5.82-.52,0-1.04,0-1.56,0-.97,0-1.95,0-2.93,0-1.17,0-2.34,0-3.52-.03-8.79-.17-15.49-6.83-15.56-15.48-.11-11.86-.11-22.79,0-33.41.09-8.49,6.68-15.08,15.32-15.32.29,0,.59-.02.89-.04.49-.03.98-.05,1.47-.05.67,0,1.26.05,1.8.15.61.11,1.16.17,1.65.17,1.81,0,3.14-.66,4.19-3.94.8-2.52.57-3.14-.77-4.27-5.76-4.83-8.59-9.64-8.67-14.72-.08-5.2,2.74-10.28,8.63-15.54,4.24-3.78,8.3-7.96,12.22-12.01,2.05-2.11,4.17-4.29,6.29-6.4,3.59-3.56,7.67-5.44,11.79-5.44s8.18,1.86,11.79,5.38c3.29,3.21,4.49,4.32,5.74,4.32,1.1,0,2.8-.73,5.47-1.96,0-.53,0-1.07,0-1.61-.01-2.18-.03-4.44.03-6.7.21-8.65,6.8-15.23,15.32-15.32,5.43-.06,11.02-.08,16.62-.08s11.09.03,16.73.08c8.54.08,15.16,6.63,15.41,15.24.06,2.16.05,4.29.03,6.54,0,.6,0,1.21-.01,1.83.26.12.52.24.78.35,1.57.71,3.05,1.39,4.56,1.82.01,0,.09.02.24.02.54,0,1.18-.23,1.45-.44,1.05-.83,2-1.82,3.01-2.87.72-.75,1.46-1.52,2.25-2.24,3.09-2.84,6.93-4.4,10.8-4.4s7.6,1.56,10.54,4.4c8.37,8.08,16.48,16.22,24.12,24.19,5.58,5.83,5.7,14.36.28,20.75-.37.43-.76.84-1.16,1.25l-.21.22c-2.65,2.74-4.12,4.25-4.3,5.46-.17,1.11.54,2.86,1.89,5.86.57,0,1.13,0,1.69,0,.98,0,1.96-.01,2.94-.01,1.19,0,2.37,0,3.55.04,8.67.19,15.29,6.76,15.38,15.26.13,11.64.13,23.01,0,33.79-.1,8.23-6.74,14.88-15.11,15.13-1.24.04-2.47.05-3.7.05-1.02,0-2.03,0-3.04-.02-.58,0-1.15,0-1.72-.01-1.41,3.05-2.17,4.78-1.99,5.85.19,1.13,1.63,2.61,4.25,5.28,7.33,7.5,7.3,16.43-.1,23.91-7.52,7.6-14.54,14.63-21.45,21.49-3.66,3.64-7.79,5.56-11.93,5.56s-8.26-1.91-11.94-5.54c-3.08-3.04-4.38-4.27-5.57-4.27-1.08,0-2.8.79-5.5,2.14,0,.56,0,1.13.01,1.7.02,2.21.04,4.48-.04,6.76-.27,8.36-6.93,14.99-15.16,15.08-5.62.07-11.32.1-16.93.1Zm.21-16.2c4.96,0,9.92.02,14.89.06h0c.6,0,.83-.08.88-.11-.01-.01.08-.28.06-1.02-.05-1.69-.03-3.39-.01-5.03.02-1.91.04-3.89-.04-5.81-.21-5.02,2.17-8.28,7.07-9.68.98-.28,1.96-.63,3.05-1.02-1-1-1.99-1.98-2.97-2.95-4.39-4.36-8.53-8.47-12.61-12.74-.98-1.02-1.66-1.23-2.44-1.23-.37,0-.78.05-1.28.15-4.27.88-8.62,1.33-12.91,1.33h0c-16.77,0-33.03-6.99-44.64-19.17-11.84-12.43-17.88-28.87-17.03-46.28.2-4.04,1.49-7.01,4.07-9.36,1.92-1.74,3.78-3.65,5.58-5.49.95-.97,1.89-1.94,2.86-2.89,2.53-2.52,4.78-3.69,7.06-3.69,2.42,0,4.69,1.3,7.15,4.09,2.3,2.61,4.59,5.22,6.88,7.83,4.54,5.17,9.09,10.35,13.66,15.5.28.31,1.1,1.24,1.51,1.44,3.47.1,6.88.12,9.47.12,1.56,0,3.13,0,4.71-.01.96,0,1.92,0,2.89,0,0-1.02.01-2.03.02-3.03.04-4.19.07-8.14-.13-12.1-.06-1.21-.81-2.83-1.66-3.61-5.29-4.85-10.79-9.67-16.1-14.33-2.38-2.09-4.76-4.17-7.13-6.27-2.54-2.25-3.82-4.47-3.9-6.79-.08-2.29,1-4.55,3.3-6.9.73-.75,1.46-1.5,2.18-2.26,2.3-2.4,4.67-4.89,7.3-7.07,2.32-1.93,5.18-3.19,7.66-3.39,1.68-.13,3.37-.2,5.02-.2,11.76,0,22.82,3.3,32.88,9.82,21.93,14.21,32.28,39.16,27.01,65.11-.33,1.61-.1,2.37.99,3.39,2.6,2.42,5.12,4.98,7.56,7.46,1.04,1.05,2.07,2.11,3.12,3.15l5.09,5.09c.38-1.07.71-2.01,1.04-2.97,1.84-5.41,4.13-7.07,9.8-7.1h2.04c1.38-.02,2.76-.03,4.14-.03,1.58,0,3.16.01,4.73.05h.13c.39,0,.59-.04.68-.07.03-.09.08-.31.08-.74-.05-10.1-.05-20.32,0-30.39,0-.44-.05-.67-.08-.76-.09-.03-.29-.07-.67-.07h-.12c-1.08.02-2.17.03-3.25.03-.89,0-1.77,0-2.66,0-.88,0-1.76,0-2.63,0-1.02,0-2.04,0-3.06.03h-.26c-4.16,0-7.06-2.12-8.64-6.32-1.75-4.67-3.6-9.16-5.5-13.35-1.86-4.11-1.22-7.73,1.9-10.75,1.11-1.07,2.19-2.18,3.27-3.28,1.52-1.55,3.1-3.16,4.74-4.67.55-.51.65-.77.66-.8h0s-.1-.29-.76-.93c-6.75-6.65-13.8-13.7-20.94-20.96-.5-.5-.75-.63-.82-.65,0,.03-.23.14-.63.57-1.68,1.79-3.44,3.53-5.14,5.21-1.03,1.02-2.05,2.03-3.07,3.06-1.84,1.87-3.93,2.82-6.21,2.82-1.35,0-2.72-.32-4.2-.98-4.51-2.01-9.12-3.91-13.69-5.67-4.11-1.58-6.17-4.48-6.11-8.63.02-1.66.01-3.33,0-4.99-.01-2.18-.03-4.43.04-6.66.02-.67-.07-.92-.1-.98,0,0,0,0,0,0-.04,0-.29-.08-.86-.08-5.05.04-10.06.06-15.06.06s-9.98-.02-14.96-.06h0c-.65,0-.88.09-.94.11.01.02-.08.27-.06.96.05,1.89.04,3.8.03,5.65-.01,1.84-.03,3.74.03,5.6.13,4.5-2,7.51-6.51,9.19-4.54,1.69-8.91,3.49-12.96,5.36-1.61.74-3.09,1.1-4.52,1.1-2.4,0-4.6-1.04-6.54-3.1-1.31-1.38-2.7-2.75-4.04-4.08-1.28-1.26-2.6-2.56-3.87-3.89-.35-.37-.57-.52-.67-.57-.09.05-.26.16-.52.43-8.33,8.43-15.15,15.26-21.46,21.49-.4.4-.5.61-.52.66,0,0,0,0,0,0,.03,0,.15.26.73.81,1.92,1.84,3.81,3.75,5.64,5.6.87.88,1.74,1.76,2.61,2.63,2.84,2.84,3.43,6.23,1.76,10.09-2.33,5.37-4.18,9.84-5.83,14.09-1.53,3.92-4.32,5.91-8.31,5.91h-.68c-1.08,0-2.15,0-3.23.02-1.09,0-2.17.02-3.26.02-1.76,0-3.2-.02-4.54-.07h-.23c-.61,0-.82.09-.85.11,0,0-.12.28-.12,1.13.1,10.01.1,19.99,0,29.66,0,.78.11,1.04.14,1.08h0s.26.09.88.09h.26c1.26-.05,2.53-.06,3.79-.06.88,0,1.77,0,2.65.01.88,0,1.75.01,2.63.01.73,0,1.46,0,2.19-.02h.22c4.11,0,6.97,2.02,8.49,6,1.96,5.11,3.81,9.6,5.66,13.71,1.84,4.09,1.18,7.7-1.95,10.75-1.17,1.14-2.32,2.3-3.47,3.47-1.46,1.48-2.97,3.01-4.51,4.47-.52.49-.64.74-.67.8.02,0,.13.24.56.66,6.87,6.77,13.8,13.72,21.19,21.23.47.48.72.6.79.62,0-.03.24-.15.66-.59,1.66-1.77,3.4-3.5,5.09-5.16,1.04-1.03,2.09-2.07,3.12-3.11,1.82-1.85,3.89-2.79,6.15-2.79,1.36,0,2.75.33,4.26,1,4.44,1.98,9.05,3.89,13.69,5.67,4.08,1.56,6.12,4.48,6.07,8.66-.02,1.62-.01,3.25,0,4.87.01,2.22.03,4.51-.04,6.78-.02.62.06.87.09.92h0s.3.08.92.08c5.08-.04,10.11-.06,15.13-.06Zm10.34-56.58c3.22,0,5.91,1.28,8.72,4.16,5.82,5.96,11.82,11.96,17.62,17.76,5.48,5.49,11.16,11.16,16.68,16.8,1.09,1.11,1.51,1.14,1.56,1.14.07,0,.48-.06,1.57-1.19,6.89-7.21,13.06-13.38,18.87-18.88,1.3-1.23,1.49-1.77,1.49-1.99,0-.18-.13-.72-1.4-1.96-6.61-6.45-13.24-13.1-19.65-19.54-4.94-4.96-10.05-10.09-15.12-15.09-3.45-3.41-4.39-7.02-3.04-11.71,3.89-13.48,1.61-27.71-6.26-39.06-7.92-11.43-20.55-18.61-34.65-19.7-.43-.03-.84-.05-1.24-.05-2.96,0-4.96.93-6.6,3.14.74.69,1.49,1.37,2.26,2.05l4.49,3.96c4.69,4.14,9.54,8.43,14.35,12.58,2.78,2.4,4.05,5.16,4,8.69-.08,5.42-.07,10.95-.06,16.29,0,3.31.01,6.62,0,9.93-.03,6.4-3.06,9.39-9.55,9.41h-2.47c-2.11,0-4.23,0-6.34-.01-2.11,0-4.22-.01-6.33-.01-4.03,0-7.29.03-10.26.09h-.33c-3.77,0-6.73-1.4-9.31-4.42-4.51-5.28-9.21-10.6-13.76-15.75-1.47-1.66-2.94-3.33-4.41-5-2.47,1.89-3.35,4.17-3.11,7.68,1.69,24.19,21.71,43.14,45.56,43.14,4.21,0,8.43-.6,12.54-1.78,1.53-.44,2.9-.65,4.19-.65Z"/>
  </g>
</svg>
