<?xml version="1.0" encoding="UTF-8"?>
<svg id="Layer_2" data-name="Layer 2" xmlns="http://www.w3.org/2000/svg" viewBox="0 0 382.11 383.26">
  <defs>
    <style>
      .cls-1 {
        fill: #000 ;
      }
    </style>
  </defs>
  <g id="Layer_1-2" data-name="Layer 1">
    <g>
      <path class="cls-1" d="m146.84,0c4.85,1.32,9.88.91,14.81,1.4,7.44.74,14.93.99,22.39,1.65,7.29.65,12.72,4.3,15.72,11.02,3,6.71,2.2,13.23-2.31,19.02-3.44,4.43-7.28,8.54-10.92,12.82-.7.82-1.72,1.45-1.9,3.1,5.71.4,11.38.85,17.06,1.18,6.13.36,11.46,2.34,15.35,7.31,5.45,6.96,5.37,16.45-.38,23.49-4.08,5-8.39,9.82-13.07,15.26,4.92.38,9.19.68,13.46,1.06,3.23.29,6.54.3,9.65,1.08,12.86,3.23,18.18,18.55,10.08,29.24-4.05,5.35-8.66,10.27-13.33,15.75,6.27,1.27,12.33,1.2,18.3,1.66,7.96.61,13.87,4.13,16.98,11.47,3.11,7.34,1.91,14.42-3.66,20.08-3.42,3.47-3.19,6.28-1.44,10.41,11.34,26.85,22.42,53.8,33.48,80.76.99,2.42,2.17,3.32,4.85,3.28,11.23-.17,22.45-.11,33.68-.06,29.11.13,53.45,21.97,56.14,50.34,2.76,29.08-16.3,54.9-45.01,60.83-3.16.65-6.43,1.03-9.65,1.04-91.07.06-182.14.12-273.21,0-25.2-.04-47.7-18.34-53.46-42.76-.14-.58-.16-1.19-.27-2.08,1.65,0,3.14,0,4.62,0,75.98,0,151.95,0,227.93,0,7.68,0,12.63-4.03,12.98-10.49.34-6.27-4.14-11.43-10.39-11.92-1.36-.11-2.74-.04-4.12-.04-75.48,0-150.95,0-226.43,0-1.48,0-2.97,0-4.79,0,3.38-15.3,11.38-27.02,24.03-35.53,9.8-6.59,20.73-9.41,32.53-9.4,59.13.06,118.27.03,177.4.03h4.06c.03-1.47-1.02-1.92-1.66-2.57-13.12-13.17-26.32-26.26-39.37-39.49-1.94-1.97-2.94-2.09-4.91-.03-6.65,6.93-13.51,13.65-20.33,20.42-5.87,5.83-12.12,5.84-17.97-.01-17.37-17.38-35.01-34.51-52-52.26-26.82-28.03-41.67-61.64-44.89-100.33-.36-4.34-.58-8.71-.57-13.07,0-4.81,2.35-8.38,6.8-10.25,4.28-1.8,8.32-1.06,11.86,1.96,1.14.97,2.16,2.08,3.21,3.13,59.02,59.01,118.04,118.03,177.04,177.06,1.05,1.05,1.88,2.33,2.82,3.5.27-.2.54-.39.8-.59-.48-1.31-.91-2.64-1.44-3.93-9.34-22.55-18.53-45.17-28.16-67.6-3-6.97-2.72-12.71,2.89-17.96.43-.4.72-.94,1.44-1.89-6.73-.53-13-1.03-19.26-1.53-7.66-.61-13.24-4.39-16.16-11.45-2.92-7.05-1.73-13.71,3.21-19.57,4-4.75,8.11-9.4,12.77-14.79-6.25-.51-11.74-1.17-17.24-1.35-8.37-.26-14.81-3.58-18.23-11.36-3.51-7.96-1.41-15.04,4.29-21.34,3.75-4.14,7.34-8.45,11.58-13.36-5.72-.44-10.72-.89-15.72-1.18-2.75-.16-5.49-.3-8.13-1.09-12.53-3.72-17.36-18.91-9.24-29.35,3.37-4.33,7.14-8.33,10.69-12.52.77-.91,1.92-1.6,2.07-3.32-10.44-.78-20.83-1.6-31.22-2.3-7.68-.51-11.7-3.34-12.96-9.39C128.87,7.68,131.71,3.33,138.61,0h8.23Zm190.23,327.08c0-6.16-4.96-11.16-11.08-11.19-6.03-.04-11.21,5.03-11.33,11.05-.11,6.11,5.21,11.45,11.37,11.39,6.12-.06,11.04-5.08,11.03-11.25Z"/>
      <path class="cls-1" d="m373.65,0c6.46,2.76,8.47,7.67,8.46,14.59-.16,84.08-.1,168.15-.13,252.23,0,1.42.41,2.93-.54,4.61-6.08-5.76-12.6-10.67-19.96-14.4-10.98-5.55-22.61-8.4-34.9-8.5-9.23-.07-18.46-.08-27.69.02-2.23.03-3.01-.55-3-2.9.09-38.67-.85-77.37.34-116,1.61-52.12,24.12-94.09,65.64-125.75,1.85-1.41,3.86-2.6,5.8-3.9,2,0,3.99,0,5.99,0Z"/>
    </g>
  </g>
</svg>
