<?xml version="1.0" encoding="UTF-8"?>
<svg id="Layer_2" data-name="Layer 2" xmlns="http://www.w3.org/2000/svg" xmlns:xlink="http://www.w3.org/1999/xlink" viewBox="0 0 2036.23 2034">
  <defs>
    <style>
      .cls-1 {
        fill: url(#linear-gradient);
        stroke: #000;
        stroke-miterlimit: 10;
        stroke-width: 34px;
      }
    </style>
    <linearGradient id="linear-gradient" x1="18.1" y1="1017" x2="2018.1" y2="1017" gradientUnits="userSpaceOnUse">
      <stop offset="0" stop-color="#7ac943"/>
      <stop offset=".3" stop-color="#009409"/>
      <stop offset=".59" stop-color="#005503"/>
      <stop offset="1" stop-color="#a2ff15"/>
    </linearGradient>
  </defs>
  <g id="Layer_1-2" data-name="Layer 1">
    <path class="cls-1" d="m2015.9,972.08c-5.09-10.69-9.89-22.51-15.37-31.7-4.09-6.86-9.04-14.48-13.65-14.64-39.68-1.34-79.37-1.71-119.05-.41-4.84.16-11.78,8.73-14.06,18.79-13.86,61.12-33.97,104.39-56.22,145.13-26.99,49.42-55.9,85.93-87.87,106.59-45.34,29.31-89.42,18.43-129.83-42.49-19.07-28.74-38.5-44-60.17-44.39-66.13-1.2-132.27-2.45-198.4-2.98-17.36-.14-20.1,7.34-20.28,50.85-.23,55.51.5,111.08-.2,166.54-1.29,102.56-5.66,202.38-31.28,289.32-24.11,81.8-56.25,132.35-94.42,147.73-34.96,14.08-71.36,14.35-106.45-5.24-54.63-30.5-92.21-111.85-110.01-249.67-7.35-56.91-7.41-114.17-7.03-172.82,1.96-302.28,3.34-604.59,4.9-906.9.08-14.6.23-29.25-.11-43.81-.99-41.87-8.54-61.59-24.75-62.55-25.87-1.55-51.74-2.27-77.62-2.57-18.87-.22-27.7,19.46-29.08,66.3-1.38,46.56-2.31,93.26-2.66,139.94-1.25,163.48-2.24,326.98-3.19,490.47-1.3,223.4-2.23,446.82-3.77,670.22-.95,138.38-27.32,237.87-74.9,301.61-23.1,30.94-48.57,32.93-74.03,31.15-17.22-1.2-34.45-2.66-51.66-4.6-21.79-2.46-43.57-5.77-65.37-8.27-54.37-6.23-100.94-135.85-104.88-264.74-1.82-59.4-.51-119.49-.1-179.25,1-147.48,2.41-294.94,3.46-442.41,1.23-172.3,1.85-344.63,3.65-516.89.52-50.02-6.32-91.25-17.11-130.1-2.57-9.25-6.06-18.41-9.96-23.45-20.26-26.2-47.28-14.28-63.72,26.44-12.17,30.13-18.02,66.45-18.1,109.76-.18,103.71-.19,207.46-1.37,311.11-.53,46.37-2.66,93.02-5.91,138.71-6.67,94.09-45.42,180.43-84.96,187.18-17.69,3.02-35.55,4.43-53.23,1.92-53.93-7.63-107.81-17.35-161.7-26.74-6.7-1.17-14.07-1.92-17.34-28.45,4.87-3.54,9.46-8.99,14.19-9.98,44.08-9.23,88.17-18.21,132.28-26.15,21.2-3.82,42.51-3.95,63.69-8.27,11.87-2.42,24.86-3.46,35.08-16.54,23.43-29.98,34.14-83.24,34.04-150.1-.05-35.06.06-70.13-.04-105.19-.27-96.4-.89-192.8-.85-289.21.03-68.72,9.92-131.22,27.86-179.54,34.07-91.78,74.12-121.84,122.01-66.75,27.62,31.77,47.84,81.39,58.73,155.95,6.58,45.08,8.17,91.1,8.73,137.4,1.74,141.51,2.65,283.09,3.63,424.65,1.29,186.89,2.32,373.78,3.53,560.67.22,33.57.53,67.16,1.18,100.69,1.14,58.45,13.55,93.87,36.27,96.27,25.75,2.73,51.59.68,77.4.11,17.24-.38,34.54,0,51.71-3.19,26.25-4.87,39.25-41.28,39.72-108.44.3-42.35.31-84.75-.04-127.1-1.69-205.84-3.62-411.67-5.31-617.52-1.14-138.71-2.42-277.43-2.82-416.17-.2-68.47-.77-137.73,2.74-205.32,7.94-152.94,62.36-282.47,124.57-291.32,32.11-4.57,64.45-6.63,96.54-2.61,57.87,7.25,97.38,89.63,121.67,217,8.42,44.17,11.1,98.74,11.53,148.83,2.19,255.5,2.76,511.08,3.95,766.64.25,54.02.46,108.06,1.21,162.05.4,28.62,1.93,57.13,3.09,89.45,21.88,0,42.45.33,63.01-.17,8.06-.19,10.92-14.4,10.97-32.26.08-33.56-.6-67.14-.42-100.69.41-74.31-2.31-150.09,2.52-222.58,8.92-134.1,38.36-234.75,87.99-293.65,21.95-26.06,45.25-31.66,68.91-32.14,70.15-1.43,140.31-2.5,210.47-3.16,9.94-.09,19.22-2.27,28.05-16.09,10.18-15.92,20.64-31.4,31.65-43.02,54.96-58.03,109.57-51.84,163.56,9.37,27.6,31.28,51.43,77.16,74.03,126.94,8.96,19.74,18.59,42.16,23.26,68.65,5.56,31.55,12.7,39.17,25.04,38.73,40.78-1.45,81.57-.55,121.71-.55,8.09,22.49,15.53,43.18,22.97,63.87-.73,1.91-1.47,3.82-2.2,5.73Z"/>
  </g>
</svg>