<?xml version="1.0" encoding="UTF-8"?>
<svg id="Layer_2" data-name="Layer 2" xmlns="http://www.w3.org/2000/svg" xmlns:xlink="http://www.w3.org/1999/xlink" viewBox="0 0 233.63 63.57">
  <defs>
    <style>
      .cls-1 {
        fill: url(#linear-gradient);
        stroke: gray;
        stroke-width: .04px;
      }

      .cls-1, .cls-2, .cls-3, .cls-4 {
        stroke-miterlimit: 10;
      }

      .cls-5 {
        fill: #1a1a1a;
      }

      .cls-2 {
        fill: url(#linear-gradient-2);
      }

      .cls-2, .cls-3, .cls-4 {
        stroke: #666;
        stroke-width: .1px;
      }

      .cls-3 {
        fill: url(#linear-gradient-3);
      }

      .cls-4 {
        fill: url(#linear-gradient-4);
      }
    </style>
    <linearGradient id="linear-gradient" x1="48.57" y1="12.08" x2="104.09" y2="12.08" gradientUnits="userSpaceOnUse">
      <stop offset="0" stop-color="#7ac943"/>
      <stop offset=".3" stop-color="#009409"/>
      <stop offset=".59" stop-color="#005503"/>
      <stop offset="1" stop-color="#a2ff15"/>
    </linearGradient>
    <linearGradient id="linear-gradient-2" x1="198.37" y1="14.02" x2="202.6" y2="14.02" gradientUnits="userSpaceOnUse">
      <stop offset="0" stop-color="#1a0"/>
      <stop offset="1" stop-color="#2e5500"/>
    </linearGradient>
    <linearGradient id="linear-gradient-3" x1="206.65" y1="3.84" x2="226.09" y2="3.84" xlink:href="#linear-gradient-2"/>
    <linearGradient id="linear-gradient-4" x1="214.23" y1="17.63" x2="218.46" y2="17.63" xlink:href="#linear-gradient-2"/>
  </defs>
  <g id="Layer_1-2" data-name="Layer 1">
    <g>
      <path class="cls-1" d="m104.03,11.54c-.14-.13-.27-.27-.43-.38-.11-.08-.25-.17-.38-.18-1.1-.02-2.2-.02-3.3,0-.13,0-.33.11-.39.23-.38.74-.94,1.26-1.56,1.75-.75.6-1.55,1.04-2.44,1.29-1.26.35-2.48.22-3.6-.51-.53-.35-1.07-.53-1.67-.54-1.84-.01-3.67-.03-5.51-.04-.48,0-.56.09-.56.61,0,.67.01,1.34,0,2.01-.04,1.24-.16,2.44-.87,3.49-.67.99-1.56,1.6-2.62,1.78-.97.17-1.98.17-2.96-.06-1.52-.37-2.56-1.35-3.05-3.01-.2-.69-.21-1.38-.2-2.08.05-3.65.09-7.29.14-10.94,0-.18,0-.35,0-.53-.03-.51-.24-.74-.69-.75-.72-.02-1.44-.03-2.15-.03-.52,0-.77.23-.81.8-.04.56-.06,1.12-.07,1.69-.03,1.97-.06,3.94-.09,5.92-.04,2.69-.06,5.39-.1,8.08-.03,1.67-.76,2.87-2.08,3.64-.64.37-1.35.4-2.06.38-.48-.01-.96-.03-1.43-.06-.61-.03-1.21-.07-1.81-.1-1.51-.08-2.8-1.64-2.91-3.19-.05-.72-.01-1.44,0-2.16.03-1.78.07-3.56.1-5.34.03-2.08.05-4.16.1-6.23.01-.6-.18-1.1-.47-1.57-.07-.11-.17-.22-.28-.28-.56-.32-1.31-.17-1.77.32-.34.36-.5.8-.5,1.32,0,1.25,0,2.5-.04,3.75-.01.56-.07,1.12-.16,1.67-.19,1.13-1.26,2.18-2.36,2.26-.49.04-.99.05-1.48.02-1.5-.09-2.99-.21-4.49-.32-.19-.01-.39-.02-.48-.34.14-.04.26-.11.39-.12,1.22-.11,2.45-.22,3.67-.32.59-.05,1.18-.05,1.77-.1.33-.03.69-.04.97-.2.65-.36.95-1,.94-1.81,0-.42,0-.85,0-1.27,0-1.16-.02-2.33-.02-3.49,0-.83.28-1.58.77-2.17.95-1.11,2.06-1.47,3.39-.81.77.38,1.33.98,1.63,1.88.18.54.23,1.1.24,1.66.05,1.71.07,3.41.1,5.12.04,2.25.06,4.51.1,6.76,0,.4.01.81.03,1.21.03.71.38,1.13,1.01,1.16.71.03,1.43,0,2.15,0,.48,0,.96,0,1.44-.04.73-.06,1.09-.5,1.1-1.31,0-.51,0-1.02,0-1.53-.05-2.48-.1-4.97-.15-7.45-.03-1.67-.07-3.35-.08-5.02,0-.83-.02-1.66.08-2.48.22-1.84,1.73-3.41,3.46-3.51.89-.06,1.79-.08,2.68-.03,1.61.09,2.7,1.08,3.38,2.62.23.53.31,1.19.32,1.8.06,3.08.08,6.16.11,9.25,0,.65.01,1.3.03,1.95.01.35.05.69.09,1.08.61,0,1.18,0,1.75,0,.22,0,.3-.17.3-.39,0-.4-.02-.81-.01-1.21.01-.9-.06-1.81.07-2.68.25-1.62,1.06-2.83,2.44-3.54.61-.31,1.26-.38,1.91-.39,1.95-.02,3.9-.03,5.84-.04.28,0,.53-.03.78-.19.28-.19.57-.38.88-.52,1.53-.7,3.04-.63,4.54.11.77.38,1.43.93,2.06,1.53.25.24.52.51.65.83.15.38.35.47.7.47,1.13-.02,2.26,0,3.38,0,.22.27.43.52.64.77-.02.02-.04.05-.06.07Z"/>
      <path class="cls-5" d="m14.63,18.46v7.78h-4.17v-11.72c.23-.01.45-.04.68-.04,2.67,0,5.35,0,8.02,0,.97,0,1.93-.09,2.86-.44,1.65-.61,2.6-1.89,2.66-3.63.01-.39,0-.8-.05-1.18-.21-1.38-.98-2.35-2.27-2.9-.81-.34-1.64-.59-2.53-.6-2.87-.01-5.75-.01-8.62-.02-.23,0-.47,0-.68,0-.14-.47-.16-3.24-.04-3.87.18-.01.37-.03.56-.03,2.87,0,5.75-.01,8.62,0,1.21,0,2.41.11,3.59.43,2.94.79,5.38,3.4,5.7,6.54.16,1.58.04,3.12-.59,4.6-.52,1.23-1.33,2.23-2.4,3.04-1.35,1.03-2.89,1.55-4.54,1.77-.98.13-1.97.18-2.96.22-1.05.04-2.1,0-3.15.01-.21,0-.43.02-.7.03Z"/>
      <path class="cls-5" d="m101.73,5.71V1.84c.23-.01.42-.03.62-.03,2.77,0,5.55-.02,8.32.02,1.03.01,2.06.09,3.07.26,2.73.46,4.7,2.01,5.89,4.49.3.63.47,1.35.56,2.05.32,2.47-.09,4.78-1.78,6.73-.9,1.04-2.03,1.78-3.3,2.25-1.55.58-3.17.83-4.83.83-1.23,0-2.46,0-3.68,0-.21,0-.42.02-.7.03v7.77h-4.08c-.14-.41-.19-10.81-.05-11.73.2-.01.41-.03.62-.03,2.75,0,5.51,0,8.26,0,.9,0,1.77-.12,2.62-.43,2.29-.82,2.94-2.8,2.66-4.74-.24-1.66-1.22-2.7-2.79-3.22-.81-.27-1.65-.4-2.51-.4-2.71.01-5.43,0-8.14,0-.23,0-.47,0-.75,0Z"/>
      <path class="cls-5" d="m175.32,26.16h-4.15V1.83c1.36-.05,2.69,0,4.08-.03.12.7.05,1.34.06,1.99.01.67,0,1.35,0,2.02,0,.65,0,1.31,0,1.96s0,1.31,0,1.96c0,.67,0,1.35,0,2.02,0,.65,0,1.3,0,2.04.17-.13.28-.19.36-.28,2.58-2.72,5.15-5.44,7.73-8.15,1.04-1.09,2.08-2.18,3.13-3.25.14-.14.37-.28.56-.28,1.68-.02,3.36-.01,5.16-.01-.15.2-.23.34-.34.46-2.35,2.58-4.71,5.15-7.06,7.72-2.57,2.81-5.14,5.61-7.71,8.42-.5.54-.98,1.09-1.49,1.62-.26.26-.35.54-.35.9.02,1.51,0,3.01,0,4.52v.71Z"/>
      <path class="cls-5" d="m164.97,1.68v3.91c-.23.01-.43.03-.64.03-1.43,0-2.85-.02-4.28,0-.79.02-1.58.07-2.36.19-3.34.51-5.85,2.93-6.48,6.26-.3,1.6-.29,3.19.22,4.76,1.04,3.18,3.33,4.85,6.54,5.39.52.09,1.06.09,1.6.1,1.57.01,3.13,0,4.7,0,.22,0,.43,0,.63,0,.14.47.16,3.26.04,3.9-.12.01-.26.05-.39.05-1.84,0-3.69.02-5.53,0-3.58-.06-6.63-1.39-9.16-3.91-1.66-1.66-2.6-3.72-3.05-6-.53-2.67-.2-5.25.95-7.71,1.15-2.46,2.98-4.25,5.42-5.46,2.07-1.03,4.25-1.5,6.54-1.5,1.53,0,3.05,0,4.58,0,.21,0,.43,0,.7,0Z"/>
      <path class="cls-5" d="m43.84,26.28h-4.54c-.01-.26-.03-.51-.03-.77,0-2.75,0-5.51,0-8.26,0-.45-.1-.84-.35-1.23-2.89-4.55-5.77-9.11-8.64-13.66-.1-.16-.19-.33-.33-.56.19-.02.32-.04.45-.04,1.23,0,2.46,0,3.69-.01.36,0,.57.12.77.43,2.92,4.65,5.85,9.29,8.77,13.93.14.22.25.51.25.77.02,3.03,0,6.06,0,9.1,0,.08-.02.15-.04.31Z"/>
      <path class="cls-5" d="m144.32,26.25h-4.49c-3.22-8.03-5.99-16.22-8.85-24.42.18-.03.31-.06.43-.06,1.23,0,2.46.01,3.68,0,.37,0,.52.16.63.48,1.33,3.75,2.68,7.49,4.02,11.24,1.46,4.06,2.92,8.12,4.37,12.19.06.16.11.33.2.59Z"/>
      <path class="cls-2" d="m202.6,26.3h-4.13c-.11-.42-.15-23.72-.02-24.51,1.36-.07,2.74-.03,4.16-.02v24.53Z"/>
      <path class="cls-3" d="m226.09,1.85v3.87c-.43.12-18.72.16-19.44.04V1.85h19.44Z"/>
      <path class="cls-5" d="m128.8,7.57c.38,1.02.75,2.03,1.13,3.05.27.72.53,1.45.82,2.16.13.32.11.59-.01.91-1.64,4.03-3.27,8.07-4.89,12.11-.14.34-.31.49-.69.49-1.19-.02-2.38,0-3.56,0-.1,0-.19-.02-.37-.04,2.49-6.25,4.97-12.47,7.45-18.68.05,0,.09,0,.14.01Z"/>
      <path class="cls-4" d="m218.46,26.24h-4.12c-.12-.43-.16-16.49-.04-17.22h4.16v17.22Z"/>
      <path class="cls-5" d="m192.2,26.2c-.33,0-.67,0-1,0-1.15,0-2.3,0-3.44,0-.27,0-.49-.04-.67-.27-1.88-2.35-3.76-4.7-5.64-7.04-.04-.04-.05-.11-.1-.22.91-1.02,1.84-2.06,2.82-3.15,2.73,3.55,5.43,7.06,8.12,10.56-.02.04-.05.09-.07.13Z"/>
      <path class="cls-5" d="m43.39,9.84c.53-.77,1.03-1.5,1.53-2.23,1.23-1.79,2.48-3.58,3.7-5.38.22-.33.46-.49.87-.48,1.09.02,2.18,0,3.27.01.15,0,.3.03.55.05-2.5,3.83-4.95,7.6-7.45,11.43-.83-1.15-1.62-2.24-2.46-3.4Z"/>
    </g>
    <g>
      <path class="cls-5" d="m1.99,53.06s-.11,0-.21-.02c-.1-.01-.19-.03-.28-.07-.09-.03-.18-.08-.25-.14-.08-.07-.13-.17-.13-.3,0-.08.03-.2.08-.35.15-.37.34-.78.58-1.24.24-.46.47-.89.69-1.3.26-.49.54-1.03.84-1.63.3-.6.56-1.14.79-1.62.02-.04.05-.1.09-.2l.12-.3c.04-.1.08-.2.11-.29.04-.12.04-.15.04-.16-.3.04-.62.07-.94.12-.32.05-.65.07-.99.07s-.4-.18-.4-.29c0-.03,0-.07.06-.22.04-.11.09-.21.19-.21l.14.15s.02.03.11.05c.09.02.2.04.33.04.13,0,.26,0,.38,0,.31,0,.62-.01.94-.03.32-.02.62-.05.91-.09.29-.03.54-.06.76-.09.23-.02.4-.04.53-.04.23,0,.47.02.71.07.24.05.47.14.67.27.21.13.37.31.5.52.13.22.19.49.19.81s-.08.64-.25,1c-.17.35-.41.69-.71.99-.31.3-.69.56-1.13.76-.44.2-.95.3-1.51.3-.27,0-.52-.04-.72-.13l-.11-.16c0-.1.07-.17.16-.17.08.03.17.05.3.07.13.02.26.03.38.03.38,0,.73-.08,1.05-.25.32-.17.61-.39.84-.66s.42-.58.56-.92c.13-.34.2-.68.2-1.01,0-.45-.12-.76-.35-.91-.25-.16-.55-.25-.9-.25-.25,0-.48.03-.67.08-.1.04-.19.12-.25.24l-.71,1.34c-.27.52-.55,1.06-.83,1.61-.28.55-.55,1.09-.81,1.62-.26.52-.48.98-.65,1.36-.11.24-.16.44-.16.59,0,.19.06.31.2.38.15.08.39.12.7.12.07,0,.27,0,.27.15,0,.03-.01.14-.16.17-.19.04-.41.07-.64.09-.24.02-.47.04-.7.04Z"/>
      <path class="cls-5" d="m1.27,60.37c-.32,0-.61-.09-.87-.26-.27-.18-.4-.5-.4-.94,0-.1,0-.2.02-.3.02-.11.04-.19.06-.25l.09-.12.18.14c0,.29.1.56.29.79.19.23.53.35,1.03.35.4,0,.81-.12,1.22-.35.41-.23.82-.55,1.21-.94.39-.39.78-.85,1.15-1.37.37-.52.73-1.07,1.08-1.64.35-.57.68-1.14.99-1.72.25-.46.48-.9.7-1.32-.06.05-.14.09-.21.14-.21.13-.44.2-.66.2-.17,0-.31-.04-.41-.13-.11-.09-.16-.22-.16-.39,0-.25.13-.61.39-1.09.25-.46.56-1.01.93-1.64.05-.07.08-.12.11-.15.03-.03.06-.06.1-.09l.25-.06c.1-.02.16-.03.18-.03l.16.15c-.39.78-.7,1.38-.95,1.84-.24.44-.37.79-.37,1.03,0,.11.04.11.07.11.03,0,.08,0,.16-.04.08-.03.16-.08.25-.13.09-.06.18-.12.26-.18.07-.06.13-.11.17-.16.09-.1.23-.35.4-.73.18-.39.4-.85.66-1.38.13-.26.24-.48.35-.66.13-.21.24-.31.36-.31.11.05.16.12.21.24.04.1.06.21.06.32,0,.05-.02.13-.15.37-.09.17-.21.37-.36.6-.15.23-.3.47-.48.73-.17.26-.33.5-.49.72-.37.63-.74,1.3-1.12,1.98-.38.68-.76,1.34-1.15,1.98-.38.64-.78,1.25-1.19,1.81-.41.57-.83,1.07-1.26,1.49-.44.42-.89.77-1.36,1.01-.47.25-.98.38-1.5.38Z"/>
      <path class="cls-5" d="m10.71,53.06c-.19,0-.36-.06-.5-.19-.15-.13-.22-.35-.22-.64,0-.25.09-.6.29-1.07.17-.42.42-.93.74-1.52,0,0-.57.05-.6.05-.11,0-.18-.07-.18-.17.06-.14.13-.23.24-.32l.8-.04.63-1.18c.11-.22.23-.43.35-.63.12-.2.22-.39.32-.56.16-.1.32-.18.52-.27.2-.09.39-.17.54-.23l.18.1s.03.13-.09.2c-.1.03-.18.07-.28.13-.09.05-.16.12-.2.2-.24.38-.47.77-.69,1.17-.2.36-.39.72-.57,1.08h1.77l.15.17c0,.06-.03.11-.08.14-.13.01-.26.02-.42.02-.17,0-1.15.06-1.15.06-.21.01-.39.02-.54.04-.21.52-.43,1.02-.58,1.42-.15.4-.23.74-.23,1.03,0,.47.22.53.41.53.15,0,.33-.05.53-.14.21-.1.43-.23.66-.39l.1-.04.13.07c.04.06.04.11.03.14l-.1.11c-.34.25-.68.44-.99.56-.31.12-.63.18-.95.18Z"/>
      <path class="cls-5" d="m14.65,53.28c-.21,0-.37-.07-.49-.2-.12-.13-.18-.31-.18-.53,0-.2.06-.45.18-.75.12-.29.24-.59.38-.89.14-.3.27-.57.38-.82.13-.28.16-.42.16-.48-.02.02-.14.08-.39.28-.24.19-.54.56-.89,1.1l-.44.9c-.16.31-.29.59-.4.84-.1.23-.2.34-.32.34-.06,0-.14-.02-.23-.05-.12-.04-.19-.14-.19-.26,0-.07.02-.15.06-.23.44-.89.86-1.73,1.28-2.52.42-.79.84-1.56,1.26-2.32.5-.88,1.02-1.77,1.55-2.68.53-.91,1.09-1.75,1.65-2.49.56-.75,1.14-1.37,1.72-1.85.59-.48,1.2-.73,1.8-.73.15,0,.31.02.48.06.17.04.33.12.47.22.15.1.28.25.38.43.1.18.14.42.14.7,0,.19,0,.34-.02.44-.02.1-.03.17-.05.22l-.12.09-.14-.17c0-.07-.02-.18-.05-.31-.03-.13-.1-.25-.2-.37-.1-.12-.24-.23-.43-.32-.18-.09-.42-.14-.72-.14-.26,0-.53.04-.8.13-.27.08-.57.25-.9.49-.33.25-.68.59-1.05,1.03-.37.43-.78,1.01-1.23,1.71-.44.7-.93,1.56-1.45,2.56-.46.89-.97,1.94-1.51,3.13.15-.14.32-.27.5-.41.19-.14.37-.27.55-.37.19-.12.36-.17.5-.17s.24.08.24.22c0,.09-.05.21-.16.37-.08.13-.19.33-.32.57-.13.24-.26.5-.39.78-.13.28-.24.55-.33.81-.09.26-.13.46-.13.61,0,.16.03.28.1.35.06.07.15.11.27.11.15,0,.43-.09.95-.5.43-.34.92-.94,1.47-1.76l.15-.08s.13,0,.13.17c-.22.37-.45.69-.72,1.01-.27.32-.54.61-.82.87-.28.26-.56.47-.84.64-.29.17-.56.25-.8.25Z"/>
      <path class="cls-5" d="m16.92,53.09c-.43,0-.66-.23-.66-.66,0-.22.04-.45.11-.68.07-.23.16-.45.26-.66.11-.21.22-.41.34-.6.12-.19.24-.35.34-.47.22-.27.48-.51.77-.7.27-.18.57-.3.88-.34.02-.08.05-.17.08-.27.07-.2.19-.26.29-.28l.16-.04s.08-.02.11-.04l.1-.03c.15.06.2.14.15.25-.07.12-.12.28-.16.47-.04.19-.05.4-.05.63,0,.31.05.56.15.76.09.18.25.26.48.26.25,0,.46-.09.66-.27.21-.19.39-.4.53-.63l.15-.11.17.13c0,.05,0,.1-.05.15-.17.26-.39.51-.66.74-.27.23-.58.35-.93.35-.19,0-.39-.05-.57-.16-.13-.08-.25-.18-.34-.31-.06.14-.13.3-.21.46-.12.24-.25.49-.41.73-.16.24-.34.47-.53.67-.2.2-.41.37-.64.51-.21.1-.38.15-.52.15Zm2-3.83c-.08,0-.17.05-.26.11-.12.08-.24.19-.35.33-.12.14-.24.31-.37.49-.12.18-.23.37-.34.57-.13.25-.25.53-.36.82-.1.28-.15.56-.14.81,0,.07.01.14.03.2.03,0,.07,0,.1,0,.18,0,.33-.1.49-.27.2-.22.4-.47.58-.76.18-.29.34-.59.47-.89.13-.29.2-.52.22-.67-.02-.08-.04-.2-.05-.35-.01-.14-.02-.27-.02-.4Z"/>
      <path class="cls-5" d="m21.77,53.19c-.14,0-.26-.02-.38-.07-.1-.04-.22-.14-.22-.4,0-.18.05-.39.16-.66.1-.25.23-.52.37-.8.14-.28.29-.57.44-.86.15-.29.27-.55.36-.79-.05.04-.19.15-.34.29-.15.14-.31.29-.47.44s-.31.32-.46.48c-.15.16-.27.3-.36.43-.16.28-.3.55-.42.79-.12.25-.27.52-.45.83-.04.08-.1.16-.18.16-.15,0-.21-.2-.23-.27-.05-.18-.06-.24-.06-.27,0-.13.07-.29.21-.49l.43-.6c.16-.36.33-.75.5-1.16.18-.41.33-.78.45-1.11.05-.1.13-.15.23-.15.09,0,.17.04.25.12.07.08.1.16.1.26,0,.05-.02.13-.24.53-.08.15-.16.3-.24.48.09-.09.19-.18.28-.27.23-.22.46-.43.67-.62.21-.19.4-.34.57-.47.24-.18.34-.2.4-.2.08,0,.14.04.2.12.05.07.07.14.07.21s-.03.15-.09.26c-.12.19-.26.43-.42.72-.17.29-.32.59-.47.9-.15.31-.27.6-.38.88-.1.27-.15.48-.15.63s.03.2.05.22c.04.04.12.05.18.05.16,0,.35-.07.57-.21.23-.15.48-.33.73-.56.25-.22.49-.47.71-.75.22-.28.41-.54.55-.79l.14-.09c.12.03.15.07.16.11.02.07-.02.14-.06.19-.19.29-.4.59-.65.89-.25.3-.51.57-.79.81-.28.24-.57.44-.86.59-.3.16-.59.24-.88.24Z"/>
      <path class="cls-5" d="m27.62,53.06s-.11,0-.21-.02c-.1-.01-.19-.03-.28-.07-.09-.03-.18-.08-.25-.14-.08-.07-.13-.17-.13-.3,0-.08.03-.2.08-.35.15-.37.34-.78.58-1.24.24-.46.47-.89.69-1.3.26-.49.54-1.03.84-1.63.3-.6.56-1.14.79-1.62.02-.04.05-.1.09-.2l.12-.3c.04-.1.08-.2.11-.29.04-.12.04-.15.04-.16-.3.04-.62.07-.94.12-.32.05-.65.07-.99.07s-.4-.18-.4-.29c0-.03,0-.07.06-.22.04-.11.09-.21.19-.21l.14.15s.02.03.11.05c.09.02.2.04.33.04.13,0,.26,0,.38,0,.31,0,.62-.01.94-.03.32-.02.62-.05.91-.09.29-.03.54-.06.76-.09.23-.02.4-.04.53-.04.23,0,.47.02.71.07.24.05.47.14.67.27.21.13.37.31.5.52.13.22.19.49.19.81s-.08.64-.25,1c-.17.35-.41.69-.71.99-.31.3-.69.56-1.13.76-.44.2-.95.3-1.51.3-.27,0-.52-.04-.72-.13l-.11-.16c0-.1.07-.17.16-.17.08.03.17.05.3.07.13.02.26.03.38.03.38,0,.73-.08,1.05-.25.32-.17.61-.39.84-.66s.42-.58.56-.92c.13-.34.2-.68.2-1.01,0-.45-.12-.76-.35-.91-.25-.16-.55-.25-.9-.25-.25,0-.48.03-.67.08-.1.04-.19.12-.25.24l-.71,1.34c-.27.52-.55,1.06-.83,1.61-.28.55-.55,1.09-.81,1.62-.26.52-.48.98-.65,1.36-.11.24-.16.44-.16.59,0,.19.06.31.2.38.15.08.39.12.7.12.07,0,.27,0,.27.15,0,.03-.01.14-.16.17-.19.04-.41.07-.64.09-.24.02-.47.04-.7.04Z"/>
      <path class="cls-5" d="m32.1,53.04c-.06,0-.11-.03-.2-.14-.09-.09-.13-.16-.13-.23,0-.09.04-.2.12-.36l.99-1.92.4-.76c.11-.21.19-.37.23-.47.07-.15.12-.22.2-.22.04,0,.09.02.21.1.11.08.17.19.17.33,0,.05-.02.12-.06.22-.04.08-.08.17-.13.26l-.02.03s.05-.05.08-.07c.15-.14.31-.28.48-.4.17-.13.34-.23.5-.31.17-.09.33-.13.47-.13.12,0,.22.03.3.1.09.07.14.16.14.25-.08.14-.14.24-.21.35-.06.11-.1.19-.12.25l-.16.12c-.07,0-.11-.07-.13-.1-.02-.03-.04-.06-.07-.1-.03-.03-.07-.06-.12-.09-.03-.02-.1-.04-.22-.04s-.25.05-.4.14c-.16.1-.3.21-.42.34-.19.18-.36.38-.51.6-.15.22-.29.45-.42.68-.13.24-.26.48-.39.73-.12.25-.26.51-.41.77,0,.02-.04.1-.18.1Z"/>
      <path class="cls-5" d="m35.22,53.09c-.43,0-.66-.23-.66-.66,0-.22.04-.45.11-.68.07-.23.16-.45.26-.66.11-.21.22-.41.34-.6.12-.19.24-.35.34-.47.22-.27.48-.51.77-.7.27-.18.57-.3.88-.34.02-.08.05-.17.08-.27.07-.2.19-.26.29-.28l.16-.04s.08-.02.11-.04l.1-.03c.15.06.2.14.15.25-.07.12-.12.28-.16.47-.04.19-.05.4-.05.63,0,.31.05.56.15.76.09.18.25.26.48.26.25,0,.46-.09.66-.27.21-.19.39-.4.53-.63l.15-.11.17.13c0,.05,0,.1-.05.15-.17.26-.39.51-.66.74-.27.23-.58.35-.93.35-.19,0-.39-.05-.57-.16-.13-.08-.25-.18-.34-.31-.06.14-.13.3-.21.46-.12.24-.25.49-.41.73-.16.24-.34.47-.53.67-.2.2-.41.37-.64.51-.21.1-.38.15-.52.15Zm2-3.83c-.08,0-.17.05-.26.11-.12.08-.24.19-.35.33-.12.14-.24.31-.37.49-.12.18-.23.37-.34.57-.13.25-.25.53-.36.82-.1.28-.15.56-.14.81,0,.07.01.14.03.2.03,0,.07,0,.1,0,.18,0,.33-.1.49-.27.2-.22.4-.47.58-.76.18-.29.34-.59.47-.89.13-.29.2-.52.22-.67-.02-.08-.04-.2-.05-.35-.01-.14-.02-.27-.02-.4Z"/>
      <path class="cls-5" d="m34.46,59.46c-.1,0-.18-.08-.21-.24-.03-.12-.04-.21-.04-.28,0-.14.03-.24.08-.32.18-.28.36-.51.54-.69l.52-.5c.17-.16.34-.34.51-.54.17-.2.34-.46.51-.8.44-.89.89-1.85,1.34-2.85.45-1,.93-2.15,1.46-3.44.05-.14.06-.19.06-.21-.02-.03-.05-.04-.08-.04-.03,0-.07.01-.12.03-.12.04-.24.06-.36.07l-.17-.15c0-.05.02-.14.14-.2.25-.05.43-.1.58-.15.15-.04.27-.09.37-.13.09-.04.17-.07.23-.1.07-.04.14-.06.21-.06.16,0,.26.11.26.29,0,.08-.02.18-.07.29-.18.36-.34.71-.49,1.05l-.44,1c-.15.33-.3.66-.45.98-.16.33-.33.67-.52,1.04-.18.34-.42.79-.74,1.37l-.68,1.23c.19-.18.41-.37.64-.57.43-.38.89-.79,1.35-1.22.46-.44.92-.9,1.35-1.38.43-.48.79-.96,1.08-1.44.13-.21.22-.41.28-.6.05-.18.08-.35.08-.49,0-.15-.02-.26-.07-.32-.04-.09-.07-.16-.03-.22l.09-.05s.08.02.14.05c.1.08.17.2.2.35.03.14.05.29.05.43,0,.19-.03.38-.09.56-.06.19-.13.36-.23.53-.09.16-.19.32-.3.46-.11.14-.22.27-.33.38-.38.41-.76.79-1.12,1.13-.36.34-.72.68-1.08,1.02l-1.08,1.01c-.36.34-.73.7-1.12,1.08-.21.21-.39.4-.52.58-.13.18-.27.38-.39.57-.13.2-.28.41-.46.64-.17.22-.4.48-.68.78l-.17.07Zm5.99-11.99c-.18,0-.29-.12-.29-.31,0-.17.06-.34.17-.5.12-.17.27-.25.45-.25.19,0,.3.12.3.33,0,.16-.06.32-.19.48-.13.17-.28.25-.44.25Z"/>
      <path class="cls-5" d="m41.63,53.09c-.54,0-.83-.29-.83-.83,0-.34.08-.71.23-1.1.15-.39.35-.75.6-1.07.24-.33.52-.61.81-.82.3-.23.6-.34.88-.34.17,0,.3.04.37.12.08.08.11.18.11.3,0,.16-.04.32-.13.5-.08.17-.21.34-.37.49-.17.15-.37.28-.62.39-.23.1-.51.15-.83.16-.04.1-.09.24-.14.42-.06.22-.09.44-.09.67,0,.55.27.62.48.62.22,0,.45-.06.69-.18.25-.12.49-.28.72-.47.23-.19.45-.4.65-.62.2-.22.37-.43.5-.63l.13-.07c.13.04.16.1.16.18-.2.31-.41.56-.66.83s-.52.51-.81.73c-.29.22-.59.4-.91.54-.32.14-.64.21-.95.21Zm.45-2.56c.27,0,.51-.11.72-.33.21-.22.31-.48.31-.78,0-.12-.04-.13-.1-.13-.08,0-.17.04-.26.11-.1.08-.2.19-.3.32-.1.14-.2.29-.29.45-.07.12-.13.24-.18.35.05,0,.07,0,.09,0Z"/>
      <path class="cls-5" d="m44.6,53.07c-.63,0-.96-.31-.96-.91,0-.22.04-.46.13-.7.2-.56.49-1.06.85-1.49.37-.44.77-.76,1.19-.96.14-.06.26-.1.35-.1.44,0,.68.22.68.61,0,.2-.04.35-.13.46-.07.08-.17.18-.32.31l-.1.02-.11-.14c.03-.08.04-.17.04-.27s-.03-.19-.1-.27c-.06-.08-.15-.12-.29-.12-.17,0-.34.07-.51.2-.17.14-.33.32-.46.55-.14.23-.24.5-.32.8-.08.3-.12.61-.12.93,0,.22.05.38.15.48.1.1.22.15.37.15.27,0,.64-.18,1.11-.55.48-.37,1.01-.95,1.56-1.7.04-.05.1-.1.17-.1l.1.05s.08.13-.04.27c-.15.22-.33.44-.53.67-.2.23-.4.45-.61.65-.21.21-.43.39-.65.56-.22.17-.44.3-.64.4-.16.07-.31.13-.45.16-.14.03-.27.05-.39.05Z"/>
      <path class="cls-5" d="m47.33,53.06c-.19,0-.36-.06-.5-.19-.15-.13-.22-.35-.22-.64,0-.25.09-.6.29-1.07.17-.42.42-.93.74-1.52,0,0-.57.05-.6.05-.11,0-.18-.07-.18-.17.06-.14.13-.23.24-.32l.8-.04.63-1.18c.11-.22.23-.43.35-.63.12-.2.22-.39.32-.56.16-.1.32-.18.52-.27.2-.09.39-.17.54-.23l.18.1s.03.13-.09.2c-.1.03-.18.07-.28.13-.09.05-.16.12-.2.2-.24.38-.47.77-.69,1.17-.2.36-.39.72-.57,1.08h1.77l.15.17c0,.06-.03.11-.08.14-.13.01-.26.02-.42.02-.17,0-1.15.06-1.15.06-.21.01-.39.02-.54.04-.21.52-.43,1.02-.58,1.42-.15.4-.23.74-.23,1.03,0,.47.22.53.41.53.15,0,.33-.05.53-.14.21-.1.43-.23.66-.39l.1-.04.13.07c.04.06.04.11.03.14l-.1.11c-.34.25-.68.44-.99.56-.31.12-.63.18-.95.18Z"/>
      <path class="cls-5" d="m49.54,53.12c-.69,0-1.07-.27-1.14-.8l.04-.1c.05-.03.11-.08.17-.13.06-.05.1-.09.13-.13l.23.1c.05.19.14.36.27.5.13.13.27.2.44.2.08,0,.17,0,.28-.02.1-.02.19-.05.28-.11.08-.06.16-.14.23-.24.06-.1.09-.24.09-.42,0-.14-.02-.27-.07-.38-.05-.12-.1-.24-.16-.34l-.19-.35c-.07-.13-.1-.28-.1-.43s.05-.33.14-.5c.09-.17.21-.33.35-.47.14-.14.3-.26.46-.36.17-.1.35-.15.52-.15.31,0,.35.19.35.27-.04.1-.07.17-.1.24-.03.07-.06.14-.08.2l-.14.11-.12-.09c-.03-.07-.09-.17-.3-.17-.13,0-.25.04-.38.12-.12.08-.17.18-.17.34,0,.08.02.15.07.23.05.09.12.21.22.36.08.14.16.28.24.43.08.16.12.32.12.48,0,.32-.07.59-.2.8-.13.2-.29.37-.47.49-.18.12-.37.21-.56.25s-.33.06-.44.06Z"/>
      <path class="cls-5" d="m55.71,53.06s-.11,0-.21-.02c-.1-.01-.19-.03-.28-.07-.09-.03-.18-.08-.25-.14-.08-.07-.13-.17-.13-.3,0-.08.03-.2.08-.35.15-.37.34-.78.58-1.24.24-.46.47-.89.69-1.3.26-.49.54-1.03.84-1.63.3-.6.56-1.14.79-1.62.02-.04.05-.1.09-.2l.12-.3c.04-.1.08-.2.11-.29.04-.12.04-.15.04-.16-.3.04-.62.07-.94.12-.32.05-.65.07-.99.07s-.4-.18-.4-.29c0-.03,0-.07.06-.22.04-.11.09-.21.19-.21l.14.15s.02.03.11.05c.09.02.2.04.33.04.13,0,.26,0,.38,0,.31,0,.62-.01.94-.03.32-.02.62-.05.91-.09.29-.03.54-.06.76-.09.23-.02.4-.04.53-.04.23,0,.47.02.71.07.24.05.47.14.67.27.21.13.37.31.5.52.13.22.19.49.19.81s-.08.64-.25,1c-.17.35-.41.69-.71.99-.31.3-.69.56-1.13.76-.44.2-.95.3-1.51.3-.27,0-.52-.04-.72-.13l-.11-.16c0-.1.07-.17.16-.17.08.03.17.05.3.07.13.02.26.03.38.03.38,0,.73-.08,1.05-.25.32-.17.61-.39.84-.66s.42-.58.56-.92c.13-.34.2-.68.2-1.01,0-.45-.12-.76-.35-.91-.25-.16-.55-.25-.9-.25-.25,0-.48.03-.67.08-.1.04-.19.12-.25.24l-.71,1.34c-.27.52-.55,1.06-.83,1.61-.28.55-.55,1.09-.81,1.62-.26.52-.48.98-.65,1.36-.11.24-.16.44-.16.59,0,.19.06.31.2.38.15.08.39.12.7.12.07,0,.27,0,.27.15,0,.03-.01.14-.16.17-.19.04-.41.07-.64.09-.24.02-.47.04-.7.04Z"/>
      <path class="cls-5" d="m60.94,53.09c-.54,0-.83-.29-.83-.83,0-.34.08-.71.23-1.1.15-.39.35-.75.6-1.07.24-.33.52-.61.81-.82.3-.23.6-.34.88-.34.17,0,.3.04.37.12.08.08.11.18.11.3,0,.16-.04.32-.13.5-.08.17-.21.34-.37.49-.17.15-.37.28-.62.39-.23.1-.51.15-.83.16-.04.1-.09.24-.14.42-.06.22-.09.44-.09.67,0,.55.27.62.48.62.22,0,.45-.06.69-.18.25-.12.49-.28.72-.47.23-.19.45-.4.65-.62.2-.22.37-.43.5-.63l.13-.07c.13.04.16.1.16.18-.2.31-.41.56-.66.83s-.52.51-.81.73c-.29.22-.59.4-.91.54-.32.14-.64.21-.95.21Zm.45-2.56c.27,0,.51-.11.72-.33.21-.22.31-.48.31-.78,0-.12-.04-.13-.1-.13-.08,0-.17.04-.26.11-.1.08-.2.19-.3.32-.1.14-.2.29-.29.45-.07.12-.13.24-.18.35.05,0,.07,0,.09,0Z"/>
      <path class="cls-5" d="m62.84,53.04c-.06,0-.11-.03-.2-.14-.09-.09-.13-.16-.13-.23,0-.09.04-.2.12-.36l.99-1.92.4-.76c.11-.21.19-.37.23-.47.07-.15.12-.22.2-.22.04,0,.09.02.21.1.11.08.17.19.17.33,0,.05-.02.12-.06.22-.04.08-.08.17-.13.26l-.02.03s.05-.05.08-.07c.15-.14.31-.28.48-.4.17-.13.34-.23.5-.31.17-.09.33-.13.47-.13.12,0,.22.03.3.1.09.07.14.16.14.25-.08.14-.14.24-.21.35-.06.11-.1.19-.12.25l-.16.12c-.07,0-.11-.07-.13-.1-.02-.03-.04-.06-.07-.1-.03-.03-.07-.06-.12-.09-.03-.02-.1-.04-.22-.04s-.25.05-.4.14c-.16.1-.3.21-.42.34-.19.18-.36.38-.51.6-.15.22-.29.45-.42.68-.13.24-.26.48-.39.73-.12.25-.26.51-.41.77,0,.02-.04.1-.18.1Z"/>
      <path class="cls-5" d="m56.41,63.57c-.15,0-.32-.02-.49-.05-.18-.04-.36-.11-.53-.22-.17-.11-.33-.27-.46-.48-.13-.2-.23-.47-.29-.8,0-.09,0-.24.12-.24.1.04.13.09.16.17.01.09.05.19.12.31.07.12.17.25.3.37.13.12.3.22.49.31.19.08.43.12.71.12.45-.01.95-.11,1.49-.28.53-.18,1.1-.49,1.69-.94.59-.45,1.22-1.06,1.88-1.81.65-.76,1.34-1.73,2.04-2.88.37-.62.75-1.28,1.11-1.98.37-.71.73-1.4,1.07-2.1.35-.69.67-1.36.98-2,.27-.57.52-1.08.75-1.52-.36.03-.65.06-.87.09-.25.03-.45.09-.59.16-.14.07-.25.17-.32.29-.09.14-.19.34-.3.59l-.13.05-.11-.15c.15-.39.3-.69.45-.89.16-.21.3-.34.45-.39.09-.03.21-.05.35-.08.14-.02.3-.04.46-.05l.48-.03c.13,0,.25-.02.35-.02.51-1.05,1-2.03,1.48-2.93.49-.92.99-1.83,1.5-2.69.28-.48.58-.95.91-1.4.32-.45.65-.85.99-1.2.34-.35.68-.63,1.01-.84.34-.21.68-.32,1-.32.23,0,.43.06.6.17.18.12.28.27.28.45,0,.05,0,.14-.02.26l-.09.8c-.01.14-.02.24-.02.3l-.18.14s-.09-.01-.14-.07c0-.18,0-.25.01-.32,0-.07,0-.14,0-.2,0-.2-.07-.35-.22-.46-.15-.12-.38-.17-.66-.17-.21,0-.42.04-.64.12-.22.08-.45.22-.68.42-.24.2-.49.48-.75.82-.26.34-.53.78-.81,1.32-.15.3-.35.69-.57,1.17l-.73,1.53c-.26.54-.52,1.1-.78,1.66-.23.51-.45.99-.65,1.44.08,0,.75-.02.98-.02h1.01c.11.05.19.13.14.3l-.1.08s-.67,0-.9,0l-.71.02c-.22,0-.42,0-.6,0-.33.73-.69,1.46-1.06,2.19-.38.75-.76,1.48-1.14,2.18-.38.7-.75,1.35-1.12,1.96-.37.6-.71,1.13-1.02,1.59-.78,1.12-1.53,2.08-2.23,2.85-.7.78-1.38,1.42-2.01,1.9-.64.49-1.25.85-1.81,1.06-.56.22-1.11.33-1.62.33Z"/>
      <path class="cls-5" d="m69.37,53.09c-.54,0-.83-.29-.83-.83,0-.34.08-.71.23-1.1.15-.39.35-.75.6-1.07.24-.33.52-.61.81-.82.3-.23.6-.34.88-.34.17,0,.3.04.37.12.08.08.11.18.11.3,0,.16-.04.32-.13.5-.08.17-.21.34-.37.49-.17.15-.37.28-.62.39-.23.1-.51.15-.83.16-.04.1-.09.24-.14.42-.06.22-.09.44-.09.67,0,.55.27.62.48.62.22,0,.45-.06.69-.18.25-.12.49-.28.72-.47.23-.19.45-.4.65-.62.2-.22.37-.43.5-.63l.13-.07c.13.04.16.1.16.18-.2.31-.41.56-.66.83s-.52.51-.81.73c-.29.22-.59.4-.91.54-.32.14-.64.21-.95.21Zm.45-2.56c.27,0,.51-.11.72-.33.21-.22.31-.48.31-.78,0-.12-.04-.13-.1-.13-.08,0-.17.04-.26.11-.1.08-.2.19-.3.32-.1.14-.2.29-.29.45-.07.12-.13.24-.18.35.05,0,.07,0,.09,0Z"/>
      <path class="cls-5" d="m72.34,53.07c-.63,0-.96-.31-.96-.91,0-.22.04-.46.13-.7.2-.56.49-1.06.85-1.49.37-.44.77-.76,1.19-.96.14-.06.26-.1.35-.1.44,0,.68.22.68.61,0,.2-.04.35-.13.46-.07.08-.17.18-.32.31l-.1.02-.11-.14c.03-.08.04-.17.04-.27s-.03-.19-.1-.27c-.06-.08-.15-.12-.29-.12-.17,0-.34.07-.51.2-.17.14-.33.32-.46.55-.14.23-.24.5-.32.8-.08.3-.12.61-.12.93,0,.22.05.38.15.48.1.1.22.15.37.15.27,0,.64-.18,1.11-.55.48-.37,1.01-.95,1.56-1.7.04-.05.1-.1.17-.1l.1.05s.08.13-.04.27c-.15.22-.33.44-.53.67-.2.23-.4.45-.61.65-.21.21-.43.39-.65.56-.22.17-.44.3-.64.4-.16.07-.31.13-.45.16-.14.03-.27.05-.39.05Z"/>
      <path class="cls-5" d="m75.07,53.06c-.19,0-.36-.06-.5-.19-.15-.13-.22-.35-.22-.64,0-.25.09-.6.29-1.07.17-.42.42-.93.74-1.52,0,0-.57.05-.6.05-.11,0-.18-.07-.18-.17.06-.14.13-.23.24-.32l.8-.04.63-1.18c.11-.22.23-.43.35-.63.12-.2.22-.39.32-.56.16-.1.32-.18.52-.27.2-.09.39-.17.54-.23l.18.1s.03.13-.09.2c-.1.03-.18.07-.28.13-.09.05-.16.12-.2.2-.24.38-.47.77-.69,1.17-.2.36-.39.72-.57,1.08h1.77l.15.17c0,.06-.03.11-.08.14-.13.01-.26.02-.42.02-.17,0-1.15.06-1.15.06-.21.01-.39.02-.54.04-.21.52-.43,1.02-.58,1.42-.15.4-.23.74-.23,1.03,0,.47.22.53.41.53.15,0,.33-.05.53-.14.21-.1.43-.23.66-.39l.1-.04.13.07c.04.06.04.11.03.14l-.1.11c-.34.25-.68.44-.99.56-.31.12-.63.18-.95.18Z"/>
      <path class="cls-5" d="m77.8,53.09c-.54,0-.83-.29-.83-.83,0-.34.08-.71.23-1.1.15-.39.35-.75.6-1.07.24-.33.52-.61.81-.82.3-.23.6-.34.88-.34.17,0,.3.04.37.12.08.08.11.18.11.3,0,.16-.04.32-.13.5-.08.17-.21.34-.37.49-.17.15-.37.28-.62.39-.23.1-.51.15-.83.16-.04.1-.09.24-.14.42-.06.22-.09.44-.09.67,0,.55.27.62.48.62.22,0,.45-.06.69-.18.25-.12.49-.28.72-.47.23-.19.45-.4.65-.62.2-.22.37-.43.5-.63l.13-.07c.13.04.16.1.16.18-.2.31-.41.56-.66.83s-.52.51-.81.73c-.29.22-.59.4-.91.54-.32.14-.64.21-.95.21Zm.45-2.56c.27,0,.51-.11.72-.33.21-.22.31-.48.31-.78,0-.12-.04-.13-.1-.13-.08,0-.17.04-.26.11-.1.08-.2.19-.3.32-.1.14-.2.29-.29.45-.07.12-.13.24-.18.35.05,0,.07,0,.09,0Z"/>
      <path class="cls-5" d="m82.13,54.02c-.31,0-.55-.1-.7-.29-.15-.19-.22-.43-.22-.72s.05-.6.15-.93c.04-.14.09-.29.16-.46-.1.13-.2.25-.29.36-.22.27-.42.49-.59.64-.17.16-.32.27-.45.34-.14.07-.26.11-.37.11-.18,0-.31-.06-.38-.18-.06-.1-.09-.23-.09-.39,0-.12.03-.26.08-.44.05-.18.13-.35.23-.52.39-.7.82-1.29,1.3-1.74.48-.46,1.09-.76,1.8-.9.43-.92.91-1.81,1.37-2.59.46-.78.96-1.56,1.5-2.3.45-.63.9-1.19,1.34-1.67.45-.48.91-.86,1.39-1.11.37-.19.69-.29.96-.29.14,0,.25.02.34.06.15.07.18.16.18.23,0,.1-.04.19-.12.28-.05.05-.08.14-.1.25-.05.18-.15.21-.21.21l-.14-.04-.11-.06s-.09-.04-.15-.05c-.06-.02-.15-.02-.26-.02-.17,0-.33.02-.5.07-.17.05-.32.12-.45.22-.29.21-.6.5-.92.88-.33.38-.64.8-.92,1.25-.69,1.12-1.31,2.17-1.83,3.14-.52.97-.96,1.85-1.31,2.61-.35.76-.62,1.42-.79,1.96-.17.53-.26.92-.26,1.17,0,.18.03.33.1.44.06.1.15.14.3.14.26,0,.5-.09.74-.28.25-.19.48-.44.71-.73.23-.29.43-.62.61-.97.19-.36.35-.7.48-1.01l.17-.12.15.09c.03.07-.01.15-.05.21-.18.41-.38.81-.6,1.19-.22.38-.44.72-.68,1.01-.24.29-.49.53-.75.69-.27.17-.54.26-.81.26Zm.37-4.65c-.3.03-.53.1-.69.23-.2.15-.39.34-.55.56-.39.54-.67,1.01-.83,1.39-.16.38-.24.66-.24.83.02.02.04.03.07.03.06,0,.15-.05.32-.21.19-.17.4-.41.63-.7.23-.3.47-.64.72-1.03.22-.35.41-.72.58-1.1Z"/>
      <path class="cls-5" d="m84.61,53.06c-.1,0-.18-.03-.26-.09-.08-.07-.12-.16-.12-.29,0-.26.08-.48.23-.67.16-.2.34-.3.55-.3.07,0,.15.02.24.07.07.04.16.13.16.32,0,.07-.02.16-.07.27-.04.11-.1.21-.17.31-.07.1-.16.19-.25.26-.1.08-.2.12-.31.12Zm1.37-2.89c-.1,0-.18-.03-.26-.09-.05-.04-.12-.13-.12-.29,0-.26.08-.48.23-.67.16-.2.35-.3.55-.3.07,0,.15.02.24.07.07.04.16.13.16.32,0,.07-.02.16-.07.27-.05.11-.1.21-.17.31-.07.1-.16.19-.25.26-.1.08-.2.12-.31.12Z"/>
      <path class="cls-5" d="m89.83,53.01c-.09,0-.17,0-.24-.01l-.12-.19.09-.1c.07,0,.13-.04.2-.09.07-.05.13-.11.17-.17.12-.17.29-.43.5-.76.21-.34.44-.72.68-1.13.24-.42.49-.86.75-1.33.26-.46.5-.92.73-1.35.23-.44.43-.84.6-1.21.17-.37.28-.67.34-.89.02-.06.03-.12.03-.17,0-.06-.12-.09-.32-.09-.12,0-.26,0-.41.02-.15.01-.29.03-.42.07l-.11-.02-.06-.12c.02-.11.06-.19.12-.25.5-.06.93-.08,1.35-.11.42-.03.77-.07,1.07-.13.15.07.2.15.2.24,0,.1-.11.15-.16.16-.07.02-.11.06-.15.12-.05.08-.1.17-.15.27-.22.45-.46.96-.74,1.52-.28.56-.57,1.14-.88,1.74-.31.6-.63,1.2-.96,1.8-.33.6-.64,1.15-.94,1.66-.09.14-.19.25-.31.33-.11.08-.22.13-.33.15-.12.03-.25.04-.39.05h-.13Z"/>
      <path class="cls-5" d="m94.98,53.19c-.14,0-.26-.02-.38-.07-.1-.04-.22-.14-.22-.4,0-.18.05-.39.16-.66.1-.25.23-.52.37-.8.14-.28.29-.57.44-.86.15-.29.27-.55.36-.79-.05.04-.19.15-.34.29-.15.14-.31.29-.47.44s-.31.32-.46.48c-.15.16-.27.3-.36.43-.16.28-.3.55-.42.79-.12.25-.27.52-.45.83-.04.08-.1.16-.18.16-.15,0-.21-.2-.23-.27-.05-.18-.06-.24-.06-.27,0-.13.07-.29.21-.49l.43-.6c.16-.36.33-.75.5-1.16.18-.41.33-.78.45-1.11.05-.1.13-.15.23-.15.09,0,.17.04.25.12.07.08.1.16.1.26,0,.05-.02.13-.24.53-.08.15-.16.3-.24.48.09-.09.19-.18.28-.27.23-.22.46-.43.67-.62.21-.19.4-.34.57-.47.24-.18.34-.2.4-.2.08,0,.14.04.2.12.05.07.07.14.07.21s-.03.15-.09.26c-.12.19-.26.43-.42.72-.17.29-.32.59-.47.9-.15.31-.27.6-.38.88-.1.27-.15.48-.15.63s.03.2.05.22c.04.04.12.05.18.05.16,0,.35-.07.57-.21.23-.15.48-.33.73-.56.25-.22.49-.47.71-.75.22-.28.41-.54.55-.79l.14-.09c.12.03.15.07.16.11.02.07-.02.14-.06.19-.19.29-.4.59-.65.89-.25.3-.51.57-.79.81-.28.24-.57.44-.86.59-.3.16-.59.24-.88.24Z"/>
      <path class="cls-5" d="m98.65,53.19c-.14,0-.26-.02-.38-.07-.1-.04-.22-.14-.22-.4,0-.18.05-.39.16-.66.1-.25.23-.52.37-.8.14-.28.29-.57.44-.86.15-.29.27-.55.36-.79-.05.04-.19.15-.34.29-.15.14-.31.29-.47.44s-.31.32-.46.48c-.15.16-.27.3-.36.43-.16.28-.3.55-.42.79-.12.25-.27.52-.45.83-.04.08-.1.16-.18.16-.15,0-.21-.2-.23-.27-.05-.18-.06-.24-.06-.27,0-.13.07-.29.21-.49l.43-.6c.16-.36.33-.75.5-1.16.18-.41.33-.78.45-1.11.05-.1.13-.15.23-.15.09,0,.17.04.25.12.07.08.1.16.1.26,0,.05-.02.13-.24.53-.08.15-.16.3-.24.48.09-.09.19-.18.28-.27.23-.22.46-.43.67-.62.21-.19.4-.34.57-.47.24-.18.34-.2.4-.2.08,0,.14.04.2.12.05.07.07.14.07.21s-.03.15-.09.26c-.12.19-.26.43-.42.72-.17.29-.32.59-.47.9-.15.31-.27.6-.38.88-.1.27-.15.48-.15.63s.03.2.05.22c.04.04.12.05.18.05.16,0,.35-.07.57-.21.23-.15.48-.33.73-.56.25-.22.49-.47.71-.75.22-.28.41-.54.55-.79l.14-.09c.12.03.15.07.16.11.02.07-.02.14-.06.19-.19.29-.4.59-.65.89-.25.3-.51.57-.79.81-.28.24-.57.44-.86.59-.3.16-.59.24-.88.24Z"/>
      <path class="cls-5" d="m100.97,53.09c-.43,0-.66-.23-.66-.66,0-.22.04-.45.11-.68.07-.23.16-.45.26-.66.11-.21.22-.41.34-.6.12-.19.24-.35.34-.47.22-.27.48-.51.77-.7.27-.18.57-.3.88-.34.02-.08.05-.17.08-.27.07-.2.19-.26.29-.28l.16-.04s.08-.02.11-.04l.1-.03c.15.06.2.14.15.25-.07.12-.12.28-.16.47-.04.19-.05.4-.05.63,0,.31.05.56.15.76.09.18.25.26.48.26.25,0,.46-.09.66-.27.21-.19.39-.4.53-.63l.15-.11.17.13c0,.05,0,.1-.05.15-.17.26-.4.51-.66.74-.27.23-.58.35-.93.35-.19,0-.39-.05-.57-.16-.13-.08-.25-.18-.34-.31-.06.14-.13.3-.21.46-.12.24-.25.49-.41.73-.16.24-.34.47-.53.67-.2.2-.41.37-.64.51-.21.1-.38.15-.52.15Zm2-3.83c-.08,0-.17.05-.26.11-.12.08-.24.19-.35.33-.12.14-.24.31-.37.49-.12.18-.23.37-.34.57-.13.25-.25.53-.36.82-.1.28-.15.56-.14.81,0,.07.01.14.03.2.03,0,.07,0,.1,0,.18,0,.33-.1.49-.27.2-.22.4-.47.58-.76.18-.29.34-.59.47-.89.13-.29.2-.52.22-.67-.02-.08-.04-.2-.05-.35-.01-.14-.02-.27-.02-.4Z"/>
      <path class="cls-5" d="m103.83,53.04l-.25-.28.11-.22c.23-.02.4-.11.54-.27.14-.17.25-.51.33-1.03.02-.13.12-.88.12-.88.02-.15.04-.28.07-.4.03-.12.05-.21.08-.26.04-.14.04-.18.04-.18l-.49.11-.19-.17c0-.1.11-.13.15-.15l.75-.13c.27-.04.49-.1.65-.15l.16.12-.04.11-.15.13s-.07.09-.1.15c-.05.12-.09.28-.13.46l-.19,1.02c-.03.15-.05.26-.07.32-.06.21-.17.41-.33.6-.07.09-.14.17-.2.24.17-.09.35-.19.51-.31.27-.19.51-.41.72-.66.21-.25.39-.54.52-.86.13-.31.22-.66.25-1.04.04-.52-.06-.73-.15-.81l-.02-.18.11-.04c.3.04.47.15.6.35.11.19.16.44.12.73,0,.23-.09.49-.24.76-.15.27-.33.54-.54.8-.21.27-.44.53-.7.78-.26.25-.51.48-.75.67-.25.2-.48.36-.69.48-.23.13-.4.2-.53.2l-.07-.03Z"/>
      <path class="cls-5" d="m109.05,53.35c-.24,0-.41-.07-.52-.22-.1-.13-.14-.3-.14-.5,0-.17.05-.4.14-.69,0-.02.01-.04.02-.06-.15.18-.31.35-.47.51-.19.18-.38.34-.58.47-.2.13-.39.2-.55.2s-.43-.06-.43-.47c0-.28.1-.64.29-1.06.19-.42.45-.82.77-1.2.32-.38.69-.72,1.1-1,.4-.27.82-.41,1.25-.43.05-.1.09-.17.13-.21.05-.05.1-.1.15-.13l.46-.15.11.03.03.15c-.05.05-.09.12-.13.2l-.07.13s.05,0,.08,0c.11.01.19.03.24.04.14.06.16.14.16.19l-.15.15c-.07-.02-.15-.04-.29-.05-.08,0-.16-.01-.21-.02-.47.93-.8,1.65-1.02,2.18-.22.54-.33.94-.33,1.2,0,.09.02.15.05.21.03.05.13.06.21.06.15,0,.33-.06.54-.19.22-.13.46-.31.72-.55.26-.24.52-.51.79-.82.27-.31.53-.64.78-.99l.12-.08c.12.06.15.11.15.19-.26.39-.52.72-.81,1.05-.29.34-.58.64-.87.91-.29.27-.59.49-.88.66-.3.17-.58.26-.84.26Zm.73-4.1c-.28.03-.54.16-.8.39-.31.27-.59.6-.84.97-.25.37-.44.75-.59,1.11-.15.36-.22.62-.22.79,0,.01,0,.02.03.02.03,0,.09-.03.2-.1.13-.09.27-.21.43-.37.16-.15.33-.34.5-.54.17-.21.32-.43.47-.67.16-.28.32-.57.48-.89l.35-.71Z"/>
      <path class="cls-5" d="m111.71,53.06c-.19,0-.36-.06-.5-.19-.15-.13-.22-.35-.22-.64,0-.25.09-.6.29-1.07.17-.42.42-.93.74-1.52,0,0-.57.05-.6.05-.11,0-.18-.07-.18-.17.06-.14.13-.23.24-.32l.8-.04.63-1.18c.11-.22.23-.43.35-.63.12-.2.22-.39.32-.57.16-.1.32-.18.52-.27.21-.09.39-.17.54-.23l.18.1s.03.13-.09.2c-.1.03-.18.07-.28.13-.09.05-.16.12-.2.2-.24.38-.47.77-.69,1.17-.2.36-.39.72-.57,1.08h1.77l.15.17c0,.06-.03.11-.08.14-.13.01-.25.02-.42.02-.17,0-1.15.06-1.15.06-.21.01-.39.02-.54.04-.2.52-.43,1.01-.58,1.42-.15.4-.23.74-.23,1.03,0,.47.22.53.41.53.15,0,.33-.05.53-.14.21-.1.43-.23.66-.39l.1-.04.13.07c.04.06.04.11.03.14l-.1.11c-.34.25-.68.44-.99.56-.31.12-.63.18-.96.18Z"/>
      <path class="cls-5" d="m114.44,53.09c-.54,0-.83-.29-.83-.83,0-.34.08-.71.23-1.1.15-.39.35-.75.6-1.07.24-.33.51-.61.81-.83.3-.23.6-.34.88-.34.17,0,.3.04.37.12.08.08.11.18.11.3,0,.15-.04.32-.12.5-.08.17-.21.34-.37.49-.17.15-.37.28-.62.39-.23.1-.51.15-.83.16-.04.1-.09.24-.14.42-.06.22-.09.44-.09.67,0,.55.27.62.48.62.22,0,.46-.06.7-.18.25-.12.49-.28.72-.47.23-.19.45-.4.65-.62.2-.22.37-.43.5-.63l.13-.07c.13.04.16.1.16.18-.2.31-.41.56-.66.83-.25.27-.52.51-.81.73-.29.22-.59.4-.91.54-.32.14-.64.21-.95.21Zm.45-2.56c.28,0,.51-.11.72-.33.21-.22.32-.48.32-.78,0-.12-.04-.13-.1-.13-.08,0-.17.04-.26.11-.1.08-.2.19-.3.32-.1.14-.2.29-.29.45-.07.12-.13.24-.18.35.05,0,.07,0,.09,0Z"/>
      <path class="cls-5" d="m115.58,55.24s-.16,0-.16-.2c0-.08.02-.15.07-.21.45-.58.89-1.17,1.32-1.78.42-.61.84-1.23,1.26-1.86.05-.1.14-.17.25-.17.09,0,.15.08.19.15.03.06.07.16.07.5,0,.14-.05.27-.15.38-.28.31-1.38,1.57-1.38,1.57-.2.23-.4.47-.6.72-.2.24-.42.51-.64.8-.04.04-.09.07-.17.1h-.06Z"/>
      <path class="cls-5" d="m125.51,53.11c-.35,0-.7-.03-1.03-.08-.33-.05-.67-.18-.99-.37-.08-.05-.16-.07-.21-.07-.04,0-.14.02-.31.11-.15.08-.29.18-.43.3h-.13s-.09-.09-.09-.09v-.14c.12-.16.25-.33.36-.52.11-.19.2-.35.26-.47l.9-1.73c.21-.41.43-.86.67-1.33.23-.47.46-.93.68-1.36.22-.43.41-.82.57-1.18.17-.35.29-.62.36-.79-.35.05-.68.08-.99.15-.33.07-.66.11-1,.12-.24,0-.38-.14-.38-.38,0-.03,0-.08.02-.15.03-.17.11-.19.16-.19.03,0,.07,0,.29.12.13.06.25.09.38.09.19,0,.43,0,.73-.03.3-.02.56-.04.77-.06l.77-.04c.25-.01.51-.02.77-.02.41,0,.82.03,1.22.09.41.06.78.18,1.11.36.33.18.6.44.81.78.21.33.32.78.32,1.32,0,.5-.08,1.01-.25,1.51-.16.5-.38.98-.66,1.42-.27.44-.6.85-.96,1.2-.36.36-.75.64-1.15.84-.4.2-.82.35-1.25.44-.42.09-.86.13-1.3.13Zm1.98-7.72c-.11,0-.2,0-.27.02-.05,0-.1.08-.14.14-.26.46-.53.96-.83,1.5-.29.55-.58,1.11-.86,1.68-.29.57-.56,1.13-.82,1.67-.26.54-.48,1.03-.67,1.46-.05.11-.05.15-.05.17,0,.04.02.09.07.14.17.2.39.34.68.44.3.1.6.15.91.15.62,0,1.2-.14,1.75-.41s1.03-.65,1.45-1.12c.42-.47.75-1.04.99-1.68.24-.64.37-1.35.37-2.09,0-.25-.04-.5-.11-.74-.07-.24-.21-.46-.4-.66-.19-.2-.45-.36-.78-.48-.33-.12-.76-.19-1.29-.19Z"/>
      <path class="cls-5" d="m131.2,53.09c-.54,0-.83-.29-.83-.83,0-.34.08-.71.23-1.1.15-.39.35-.75.6-1.07.24-.33.51-.61.81-.83.3-.23.6-.34.88-.34.17,0,.3.04.37.12.08.08.11.18.11.3,0,.15-.04.32-.12.5-.08.17-.21.34-.37.49-.17.15-.37.28-.62.39-.23.1-.51.15-.83.16-.04.1-.09.24-.14.42-.06.22-.09.44-.09.67,0,.55.27.62.48.62.22,0,.46-.06.7-.18.25-.12.49-.28.72-.47.23-.19.45-.4.65-.62.2-.22.37-.43.5-.63l.13-.07c.13.04.16.1.16.18-.2.31-.41.56-.66.83-.25.27-.52.51-.81.73-.29.22-.59.4-.91.54-.32.14-.64.21-.95.21Zm.45-2.56c.28,0,.51-.11.72-.33.21-.22.32-.48.32-.78,0-.12-.04-.13-.1-.13-.08,0-.17.04-.26.11-.1.08-.2.19-.3.32-.1.14-.2.29-.29.45-.07.12-.13.24-.18.35.05,0,.07,0,.09,0Z"/>
      <path class="cls-5" d="m133.01,53.04l-.25-.28.12-.22c.23-.02.4-.11.54-.27.14-.17.25-.51.33-1.03.02-.13.12-.82.12-.82.03-.21.05-.34.08-.46.03-.12.05-.21.08-.26.04-.14.04-.18.04-.18l-.49.11-.18-.17c0-.1.11-.13.15-.15l.75-.13c.27-.04.49-.1.65-.15l.16.12-.04.11-.13.11c-.06.05-.09.1-.12.17-.05.12-.09.28-.13.46-.04.19-.19,1.02-.19,1.02-.03.15-.05.26-.07.32-.07.21-.18.41-.33.61-.07.09-.14.17-.2.24.17-.09.34-.19.51-.31.27-.19.51-.41.72-.66.21-.26.39-.55.52-.86.13-.31.22-.66.25-1.04.03-.41-.03-.69-.15-.81l-.02-.18.11-.04c.3.04.47.15.6.35.11.19.16.44.12.73,0,.23-.09.49-.25.76-.15.27-.33.54-.54.8-.21.27-.44.53-.7.78-.26.25-.51.48-.75.67-.25.2-.48.36-.69.48-.23.13-.4.2-.53.2l-.08-.03Z"/>
      <path class="cls-5" d="m136.88,53.09c-.54,0-.83-.29-.83-.83,0-.34.08-.71.23-1.1.15-.39.35-.75.6-1.07.24-.33.51-.61.81-.83.3-.23.6-.34.88-.34.17,0,.3.04.37.12.08.08.11.18.11.3,0,.15-.04.32-.12.5-.08.17-.21.34-.37.49-.17.15-.37.28-.62.39-.23.1-.51.15-.83.16-.04.1-.09.24-.14.42-.06.22-.09.44-.09.67,0,.55.27.62.48.62.22,0,.46-.06.7-.18.25-.12.49-.28.72-.47.23-.19.45-.4.65-.62.2-.22.37-.43.5-.63l.13-.07c.13.04.16.1.16.18-.2.31-.41.56-.66.83-.25.27-.52.51-.81.73-.29.22-.59.4-.91.54-.32.14-.64.21-.95.21Zm.45-2.56c.28,0,.51-.11.72-.33.21-.22.32-.48.32-.78,0-.12-.04-.13-.1-.13-.08,0-.17.04-.26.11-.1.08-.2.19-.3.32-.1.14-.2.29-.29.45-.07.12-.13.24-.18.35.05,0,.07,0,.09,0Z"/>
      <path class="cls-5" d="m139.74,53.04c-.3,0-.52-.09-.66-.26-.13-.16-.2-.37-.2-.6s.08-.53.25-.94c.16-.39.35-.81.57-1.24.22-.43.44-.84.66-1.23.22-.38.38-.67.48-.87l.55-1.06,1.11-2.08c.17-.32.33-.61.48-.85.18-.31.36-.59.55-.86.19-.27.44-.55.73-.82.39-.37.77-.67,1.11-.87.47-.28.63-.31.72-.31.11,0,.2.04.27.11.07.07.11.17.11.31,0,.17-.06.42-.18.75-.11.31-.28.69-.5,1.11-.21.41-.48.86-.78,1.34-.31.48-.66.95-1.05,1.42-.39.47-.83.92-1.29,1.35-.47.43-.98.81-1.51,1.14-.06.15-.19.4-.35.71-.17.31-.33.64-.49.99-.16.35-.3.69-.42,1.02-.12.33-.17.61-.17.82,0,.41.19.46.35.46.24,0,.5-.08.76-.23.27-.16.54-.36.78-.58.25-.23.49-.48.71-.74.22-.26.41-.5.56-.7.07-.08.12-.12.18-.12l.12.1c.02.08,0,.15-.07.22-.18.25-.41.53-.66.82-.26.3-.53.57-.82.82-.29.25-.6.46-.92.62-.32.17-.65.26-.98.26Zm5.71-11.31s-.08.01-.12.04c-.04.02-.1.07-.22.2-.1.11-.21.26-.35.46-.14.2-.32.45-.54.77-.08.13-.2.31-.35.56-.15.24-.34.57-.57.97-.23.4-.51.9-.84,1.49l-.96,1.73c.49-.34.95-.75,1.39-1.2.54-.56,1.01-1.14,1.4-1.73.39-.59.7-1.17.92-1.71.22-.55.34-1.01.34-1.38,0-.18-.06-.18-.1-.18Z"/>
      <path class="cls-5" d="m142.18,53.09c-.43,0-.66-.23-.66-.66,0-.22.04-.45.11-.68.07-.23.16-.45.26-.66.11-.21.22-.42.34-.6.12-.19.24-.35.34-.47.22-.27.48-.51.77-.7.27-.18.57-.3.88-.34.02-.08.05-.17.08-.27.07-.19.19-.26.29-.28l.15-.04s.08-.02.11-.04l.1-.03c.15.06.2.13.15.25-.07.13-.12.28-.16.47-.04.19-.05.4-.05.63,0,.31.05.56.15.76.09.18.25.26.48.26.25,0,.46-.09.66-.27.21-.19.39-.4.53-.63l.15-.11.17.13c0,.05,0,.1-.05.15-.17.26-.4.51-.66.74-.27.23-.58.35-.93.35-.19,0-.39-.06-.57-.16-.13-.08-.25-.18-.34-.31-.06.14-.13.3-.21.46-.12.24-.25.49-.41.73-.16.24-.34.47-.53.67-.2.21-.41.38-.64.51-.21.1-.37.15-.52.15Zm2-3.83c-.08,0-.17.05-.26.11-.12.08-.23.19-.36.33-.12.14-.24.31-.37.49-.12.18-.24.37-.34.57-.13.25-.25.53-.36.82-.1.29-.15.56-.14.81,0,.07.01.14.03.2.03,0,.07,0,.1,0,.18,0,.33-.1.49-.27.2-.22.4-.47.58-.76.18-.29.34-.59.47-.89.12-.29.2-.52.22-.67-.02-.07-.04-.2-.05-.35-.01-.14-.02-.27-.02-.4Z"/>
      <path class="cls-5" d="m138.87,61.8c-.02-.1.03-.18.14-.22.26-.11.49-.23.67-.33.18-.1.34-.23.49-.38.15-.15.28-.32.42-.53.13-.21.29-.47.46-.78.18-.32,1.18-2.23,1.49-2.82.31-.58.64-1.2.98-1.86.33-.63.67-1.27,1-1.91-.04-.04-.06-.11-.06-.22,0-.12.07-.2.18-.22.06-.01.12-.02.15-.03l.66-1.26c.33-.61.66-1.23,1-1.89.33-.65.68-1.24,1.03-1.76.06-.07.13-.11.22-.14,0,0,.04-.02.14-.04,0,0,.31-.06.36-.06h.11c.1,0,.15.06.15.13,0,.06-.03.12-.09.19-.22.22-.41.43-.57.64-.17.2-.32.4-.46.59-.07.09-.14.18-.2.27.12-.1.23-.19.35-.26.14-.09.27-.13.4-.13.13,0,.24.05.33.14.09.09.13.23.13.42,0,.13-.04.32-.14.58-.09.25-.25.54-.46.85-.21.31-.5.63-.86.96-.25.23-.54.45-.87.65.13-.02.26-.05.4-.08.34-.07.69-.2,1.06-.38.36-.18.73-.42,1.1-.72.36-.3.71-.7,1.04-1.18l.12-.07c.08.01.15.05.15.2-.57.85-1.18,1.44-1.81,1.83-.63.38-1.31.67-2,.84-.24.06-.45.11-.63.14l-.53.11c-.23.52-.52,1.09-.79,1.65l-.81,1.69c-.39.83-.75,1.61-1.07,2.34-.32.74-.67,1.47-1.05,2.19-.08.16-.19.28-.33.36-.13.08-.28.15-.45.21-.17.06-.36.12-.58.18-.21.06-.45.14-.71.24l-.1.03-.14-.13Zm8.54-12.32s-.06,0-.17.08c-.09.06-.2.15-.32.25-.12.11-.25.24-.38.4-.13.16-.26.34-.38.53-.18.28-.34.58-.51.89-.13.25-.26.5-.39.76.25-.1.49-.24.71-.42.3-.24.57-.51.79-.79.23-.28.41-.57.54-.85.13-.28.19-.5.19-.67,0-.04,0-.09-.02-.15l-.07-.03Z"/>
      <path class="cls-5" d="m147.32,55.24s-.16,0-.16-.2c0-.08.02-.15.07-.21.45-.58.89-1.17,1.32-1.78.42-.61.84-1.23,1.26-1.86.05-.1.14-.17.25-.17.09,0,.15.08.19.15.03.06.07.16.07.5,0,.14-.05.27-.15.38-.28.31-1.38,1.57-1.38,1.57-.2.23-.4.47-.6.72-.2.24-.42.51-.64.8-.04.04-.09.07-.17.1h-.06Z"/>
      <path class="cls-5" d="m155.93,53.35c-.24,0-.41-.07-.52-.22-.1-.13-.14-.3-.14-.5,0-.17.05-.4.14-.69,0-.02.01-.04.02-.06-.15.18-.31.35-.47.51-.19.18-.38.34-.58.47-.2.13-.39.2-.55.2s-.43-.06-.43-.47c0-.28.1-.64.29-1.06.19-.42.45-.82.77-1.2.32-.38.69-.72,1.1-1,.4-.27.82-.41,1.25-.43.05-.1.09-.17.13-.21.05-.05.1-.1.15-.13l.46-.15.11.03.03.15c-.05.05-.09.12-.13.2l-.07.13s.05,0,.08,0c.11.01.19.03.24.04.14.06.16.14.16.19l-.15.15c-.07-.02-.15-.04-.29-.05-.08,0-.16-.01-.21-.02-.47.93-.8,1.65-1.02,2.18-.22.54-.33.94-.33,1.2,0,.09.02.15.05.21.03.05.13.06.21.06.15,0,.33-.06.54-.19.22-.13.46-.31.72-.55.26-.24.52-.51.79-.82.27-.31.53-.64.78-.99l.12-.08c.12.06.15.11.15.19-.26.39-.52.72-.81,1.05-.29.34-.58.64-.87.91-.29.27-.59.49-.88.66-.3.17-.58.26-.84.26Zm.73-4.1c-.28.03-.54.16-.8.39-.31.27-.59.6-.84.97-.25.37-.44.75-.59,1.11-.14.36-.22.62-.22.79,0,.01,0,.02.03.02.03,0,.09-.03.2-.1.13-.09.27-.21.43-.37.16-.15.33-.34.5-.54.17-.21.32-.43.47-.67.17-.28.32-.57.48-.89l.35-.71Z"/>
      <path class="cls-5" d="m159.7,53.19c-.14,0-.26-.02-.38-.07-.1-.04-.22-.14-.22-.4,0-.18.05-.39.16-.66.1-.25.23-.52.37-.8.14-.28.29-.57.44-.86.15-.29.27-.55.36-.79-.05.04-.19.15-.34.28-.16.14-.31.29-.47.44-.16.16-.32.32-.46.48-.15.16-.27.3-.36.43-.16.28-.3.55-.42.79-.12.25-.27.52-.45.83-.05.09-.11.16-.18.16-.15,0-.21-.2-.23-.27-.05-.18-.06-.24-.06-.27,0-.13.07-.29.21-.49l.43-.6c.16-.36.33-.75.5-1.16.17-.41.33-.78.45-1.11.05-.1.13-.15.23-.15.06,0,.16.02.25.12.07.08.1.16.1.26,0,.05-.02.13-.24.53-.08.15-.16.31-.24.48.09-.09.19-.18.28-.27.24-.22.46-.43.67-.62.21-.19.4-.34.57-.47.24-.18.34-.2.4-.2.05,0,.13.02.2.12.05.07.07.14.07.21s-.03.15-.09.26c-.12.19-.25.43-.42.72-.17.29-.32.59-.47.9-.15.31-.28.6-.38.88-.1.27-.15.48-.15.63s.03.2.05.22c.03.03.09.05.18.05.16,0,.35-.07.57-.21.24-.15.48-.34.73-.56.25-.22.49-.48.71-.75.22-.27.41-.54.55-.79l.14-.09c.12.04.15.07.16.11.02.07-.02.14-.06.19-.18.29-.4.59-.65.89-.25.3-.51.57-.79.81-.28.24-.57.43-.86.59-.3.16-.6.24-.88.24Z"/>
      <path class="cls-5" d="m163.83,54.02c-.31,0-.55-.1-.7-.29-.15-.19-.22-.43-.22-.72s.05-.6.15-.93c.04-.14.1-.29.16-.46-.1.13-.2.25-.29.36-.22.27-.42.49-.59.64-.17.16-.32.27-.45.34-.14.07-.26.11-.37.11-.18,0-.31-.06-.38-.18-.06-.1-.09-.23-.09-.39,0-.12.03-.26.08-.44.05-.18.13-.35.23-.52.39-.7.83-1.29,1.3-1.74.48-.45,1.09-.76,1.8-.9.43-.93.91-1.82,1.37-2.59.45-.78.96-1.55,1.5-2.3.45-.63.9-1.19,1.34-1.67.45-.48.91-.86,1.39-1.11.37-.2.69-.29.96-.29.14,0,.25.02.34.06.14.07.17.16.17.23,0,.1-.04.19-.12.28-.05.06-.08.14-.1.25-.04.18-.15.21-.21.21l-.14-.04-.11-.06s-.09-.04-.15-.05c-.06-.02-.15-.02-.26-.02-.17,0-.33.02-.5.07-.17.05-.32.12-.45.22-.29.21-.6.5-.92.88-.33.38-.64.8-.92,1.25-.7,1.12-1.31,2.18-1.83,3.14-.52.97-.96,1.85-1.31,2.61-.35.76-.62,1.42-.79,1.96-.17.53-.26.92-.26,1.17,0,.18.04.33.1.44.06.1.15.14.29.14.26,0,.5-.09.74-.28.25-.19.48-.44.71-.73.22-.29.43-.62.61-.97.19-.36.35-.7.48-1.01l.17-.12.15.09c.03.07-.01.15-.05.21-.18.41-.38.81-.6,1.19-.21.38-.44.72-.68,1.01-.24.29-.49.53-.75.69-.27.17-.54.26-.81.26Zm.37-4.65c-.3.03-.53.1-.69.22-.2.15-.39.34-.55.56-.39.54-.67,1.01-.83,1.39-.16.38-.24.66-.24.83.02.02.04.03.07.03.06,0,.15-.05.32-.21.19-.17.39-.4.63-.7.23-.29.47-.64.72-1.03.22-.35.41-.71.58-1.1Z"/>
      <path class="cls-5" d="m171.51,53.11c-.35,0-.7-.03-1.03-.08-.33-.05-.67-.18-.99-.37-.08-.05-.16-.07-.21-.07-.04,0-.14.02-.31.11-.15.08-.29.18-.43.3h-.13s-.09-.09-.09-.09v-.14c.12-.16.25-.33.36-.52.11-.19.2-.35.26-.47l.9-1.73c.21-.41.43-.86.67-1.33.23-.47.46-.93.68-1.36.22-.43.41-.82.57-1.18.17-.35.29-.62.36-.79-.35.05-.68.08-.99.15-.33.07-.66.11-1,.12-.24,0-.38-.14-.38-.38,0-.03,0-.08.02-.15.03-.17.11-.19.16-.19.03,0,.07,0,.29.12.13.06.25.09.38.09.19,0,.43,0,.73-.03.3-.02.56-.04.77-.06l.77-.04c.25-.01.51-.02.77-.02.41,0,.82.03,1.22.09.41.06.78.18,1.11.36.33.18.6.44.81.78.21.33.32.78.32,1.32,0,.5-.08,1.01-.25,1.51-.16.5-.38.98-.66,1.42-.27.44-.6.85-.96,1.2-.36.36-.75.64-1.15.84-.4.2-.82.35-1.25.44-.42.09-.86.13-1.3.13Zm1.98-7.72c-.11,0-.2,0-.27.02-.05,0-.1.08-.14.14-.26.46-.53.96-.83,1.5-.29.55-.58,1.11-.86,1.68-.29.57-.56,1.13-.82,1.67-.26.54-.48,1.03-.67,1.46-.05.11-.05.15-.05.17,0,.04.02.09.07.14.17.2.39.34.68.44.3.1.6.15.91.15.62,0,1.2-.14,1.75-.41s1.03-.65,1.45-1.12c.42-.47.75-1.04.99-1.68.24-.64.37-1.35.37-2.09,0-.25-.04-.5-.11-.74-.07-.24-.21-.46-.4-.66-.19-.2-.45-.36-.78-.48-.33-.12-.76-.19-1.29-.19Z"/>
      <path class="cls-5" d="m177.2,53.09c-.54,0-.83-.29-.83-.83,0-.34.08-.71.23-1.1.15-.39.35-.75.6-1.07.24-.33.51-.61.81-.83.3-.23.6-.34.88-.34.17,0,.3.04.37.12.08.08.11.18.11.3,0,.15-.04.32-.12.5-.08.17-.21.34-.37.49-.17.15-.37.28-.62.39-.23.1-.51.15-.83.16-.04.1-.09.24-.14.42-.06.22-.09.44-.09.67,0,.55.27.62.48.62.22,0,.46-.06.7-.18.25-.12.49-.28.72-.47.23-.19.45-.4.65-.62.2-.22.37-.43.5-.63l.13-.07c.13.04.16.1.16.18-.2.31-.41.56-.66.83-.25.27-.52.51-.81.73-.29.22-.59.4-.91.54-.32.14-.64.21-.95.21Zm.45-2.56c.28,0,.51-.11.72-.33.21-.22.32-.48.32-.78,0-.12-.04-.13-.1-.13-.08,0-.17.04-.26.11-.1.08-.2.19-.3.32-.1.14-.2.29-.29.45-.07.12-.13.24-.18.35.05,0,.07,0,.09,0Z"/>
      <path class="cls-5" d="m172.93,61.8c-.02-.1.03-.18.14-.22.26-.11.49-.23.67-.33.18-.1.34-.23.49-.38.15-.15.28-.32.42-.53.13-.21.29-.47.46-.78.18-.32,1.18-2.23,1.49-2.82.31-.58.64-1.2.98-1.86.33-.63.67-1.27,1-1.91-.04-.04-.06-.11-.06-.22,0-.12.07-.2.18-.22.06-.01.12-.02.15-.03l.66-1.26c.33-.61.66-1.23,1-1.89.33-.65.68-1.24,1.03-1.76.06-.07.13-.11.22-.14,0,0,.04-.02.14-.04,0,0,.31-.06.36-.06h.11c.1,0,.15.06.15.13,0,.06-.03.12-.09.19-.22.22-.41.43-.57.64-.17.2-.32.4-.46.59-.07.09-.14.18-.2.27.12-.1.23-.19.35-.26.14-.09.27-.13.4-.13.13,0,.24.05.33.14.09.09.13.23.13.42,0,.13-.04.32-.14.58-.09.25-.25.54-.46.85-.21.31-.5.63-.86.96-.25.23-.54.45-.87.65.13-.02.26-.05.4-.08.34-.07.69-.2,1.06-.38.36-.18.73-.42,1.1-.72.36-.3.71-.7,1.04-1.18l.12-.07c.08.01.15.05.15.2-.57.85-1.18,1.44-1.81,1.83-.63.38-1.31.67-2,.84-.24.06-.45.11-.63.14l-.53.11c-.23.52-.52,1.09-.79,1.65l-.81,1.69c-.39.83-.75,1.61-1.07,2.34-.32.74-.67,1.47-1.05,2.19-.08.16-.19.28-.33.36-.13.08-.28.15-.45.21-.17.06-.36.12-.58.18-.21.06-.45.14-.71.24l-.1.03-.14-.13Zm8.54-12.32s-.06,0-.17.08c-.09.06-.2.15-.32.25-.12.11-.25.24-.38.4-.13.16-.26.34-.38.53-.18.28-.34.58-.51.89-.13.25-.26.5-.39.76.25-.1.49-.24.71-.42.3-.24.57-.51.79-.79.23-.28.41-.57.54-.85.13-.28.19-.5.19-.67,0-.04,0-.09-.02-.15l-.07-.03Z"/>
      <path class="cls-5" d="m183.1,53.04c-.3,0-.52-.09-.66-.26-.13-.16-.2-.37-.2-.6s.08-.53.25-.94c.16-.39.35-.81.57-1.24.22-.43.44-.84.66-1.23.22-.38.38-.67.48-.87l.55-1.06,1.11-2.08c.17-.32.33-.61.48-.85.18-.31.36-.59.55-.86.19-.27.44-.55.73-.82.39-.37.77-.67,1.11-.87.47-.28.63-.31.72-.31.11,0,.2.04.27.11.07.07.11.17.11.31,0,.17-.06.42-.18.75-.11.32-.28.69-.5,1.11-.21.41-.48.86-.78,1.34-.31.48-.66.95-1.05,1.42-.39.47-.83.92-1.29,1.35-.47.43-.98.81-1.51,1.14-.06.15-.19.4-.35.71-.17.31-.33.64-.49.99-.16.35-.3.69-.42,1.02-.12.33-.17.61-.17.82,0,.41.19.46.35.46.24,0,.5-.08.76-.23.27-.16.54-.36.78-.58.25-.23.49-.48.71-.74.22-.26.41-.5.56-.7.07-.08.12-.12.18-.12l.12.1c.02.08,0,.15-.07.22-.18.25-.41.53-.66.82-.26.3-.53.57-.82.82-.29.25-.6.46-.92.62-.32.17-.65.26-.98.26Zm5.71-11.31s-.08.01-.12.04c-.04.02-.1.07-.22.2-.1.11-.21.26-.35.46-.14.2-.32.45-.54.77-.08.13-.2.31-.35.56-.15.24-.34.57-.57.97-.23.4-.51.9-.84,1.49l-.96,1.73c.49-.34.95-.75,1.39-1.2.54-.56,1.01-1.14,1.4-1.73.39-.59.7-1.17.92-1.71.22-.55.34-1.01.34-1.38,0-.18-.06-.18-.1-.18Z"/>
      <path class="cls-5" d="m185.54,53.09c-.43,0-.66-.23-.66-.66,0-.22.04-.45.11-.68.07-.23.16-.45.26-.66.11-.21.22-.42.34-.6.12-.19.24-.35.34-.47.22-.27.48-.51.77-.7.27-.18.57-.3.88-.34.02-.08.05-.17.08-.27.07-.19.19-.26.29-.28l.15-.04s.08-.02.11-.04l.1-.03c.15.06.2.13.15.25-.07.13-.12.28-.16.47-.04.19-.05.4-.05.63,0,.31.05.56.15.76.09.18.25.26.48.26.25,0,.46-.09.66-.27.21-.19.39-.4.53-.63l.15-.11.17.13c0,.05,0,.1-.05.15-.17.26-.4.51-.66.74-.27.23-.58.35-.93.35-.19,0-.39-.06-.57-.16-.13-.08-.25-.18-.34-.31-.06.14-.13.3-.21.46-.12.24-.25.49-.41.73-.16.24-.34.47-.53.67-.2.21-.41.38-.64.51-.21.1-.37.15-.52.15Zm2-3.83c-.08,0-.17.05-.26.11-.12.08-.23.19-.36.33-.12.14-.24.31-.37.49-.12.18-.24.37-.34.57-.13.25-.25.53-.36.82-.1.29-.15.56-.14.81,0,.07.01.14.03.2.03,0,.07,0,.1,0,.18,0,.33-.1.49-.27.2-.22.4-.47.58-.76.18-.29.34-.59.47-.89.12-.29.2-.52.22-.67-.02-.07-.04-.2-.05-.35-.01-.14-.02-.27-.02-.4Z"/>
      <path class="cls-5" d="m182.97,60.37c-.32,0-.61-.09-.87-.26-.27-.18-.4-.5-.4-.94,0-.1,0-.2.02-.3.02-.11.04-.19.06-.25l.09-.12.18.14c0,.29.1.56.29.79.19.23.53.35,1.03.35.4,0,.81-.12,1.22-.35.41-.23.82-.55,1.21-.94.39-.39.78-.85,1.15-1.37.37-.51.73-1.06,1.08-1.64.35-.57.67-1.14.99-1.72.25-.46.48-.9.7-1.32-.06.05-.13.09-.21.14-.21.13-.44.2-.66.2-.17,0-.31-.04-.41-.13-.11-.09-.16-.22-.16-.39,0-.25.13-.61.39-1.09.26-.46.56-1.01.93-1.64.05-.07.08-.12.11-.15.03-.04.06-.07.1-.09l.25-.06c.1-.02.16-.03.18-.03l.16.15c-.38.78-.7,1.38-.95,1.84-.25.44-.37.79-.37,1.03,0,.11.04.11.07.11.03,0,.08,0,.16-.04.08-.03.16-.08.25-.13.09-.06.18-.12.26-.18.08-.06.13-.11.17-.16.07-.08.18-.25.4-.73.18-.39.4-.85.66-1.38.13-.26.25-.48.36-.66.13-.21.24-.31.36-.31.11.05.16.12.21.24.04.1.06.21.06.32,0,.05-.02.13-.15.37-.09.17-.21.37-.36.6-.15.23-.3.47-.48.73-.17.26-.34.5-.49.72-.37.63-.75,1.3-1.12,1.98-.38.68-.76,1.34-1.14,1.98-.39.64-.79,1.25-1.19,1.81-.41.57-.83,1.07-1.26,1.49-.44.43-.89.77-1.36,1.01-.47.25-.98.38-1.5.38Z"/>
      <path class="cls-5" d="m197.05,53.11c-.4,0-.72-.02-.98-.04-.26-.03-.47-.08-.61-.15-.16-.07-.27-.16-.33-.27-.06-.1-.09-.22-.09-.36,0-.22.06-.46.18-.71l.73-1.43s.56-1.12.58-1.18c-.01,0-.11,0-.15,0l-.18-.15c0-.08.03-.21.27-.26.21-.03.36-.15.46-.36l.27-.54c.14-.28.28-.58.43-.9l.41-.87c.15-.33.17-.41.17-.42-.3.03-.61.04-.92.07-.3.02-.57.07-.8.14l-.11-.03-.05-.1c.02-.22.07-.37.15-.46.08,0,.16,0,.24,0,.3,0,.57.01.85.02.36.01.7.02,1.02.02.11,0,.31,0,.59-.02l1.99-.07c.35-.01.66-.02.91-.02.12,0,.19.07.19.19-.03.1-.07.19-.14.32-.06.12-.12.24-.17.37l-.12.06-.13-.11c0-.06-.01-.11-.03-.15-.33-.1-.67-.15-1.04-.17-.37-.02-.74-.03-1.12-.03-.13,0-.23.04-.29.13-.28.42-.56.9-.84,1.42-.28.53-.55,1.04-.8,1.55.15.02.3.03.44.03h.45c.47,0,.89-.01,1.25-.04.35-.03.71-.09,1.06-.18l.1.03.06.16s-.13.3-.15.36c0,.03-.05.14-.22.14-.27-.01-.57-.02-.88-.03s-.63,0-.96,0h-.7c-.22,0-.42,0-.62.02l-.09.05c-.18.35-.35.72-.54,1.1-.18.38-.34.75-.47,1.11-.1.26-.15.49-.15.68,0,.31.1.72,1,.72.26,0,.57-.02.95-.07.37-.05.76-.12,1.15-.22.39-.1.77-.22,1.12-.36.35-.14.62-.29.82-.46l.23.15c-.09.13-.14.19-.19.27-.06.09-.11.16-.15.23-.08.17-.25.29-.5.36-.26.07-.55.13-.85.19-.3.05-.61.1-.92.15-.31.05-.62.08-.93.11-.3.02-.59.03-.86.03Z"/>
      <path class="cls-5" d="m192.19,63.57c-.15,0-.32-.02-.5-.05-.18-.04-.36-.11-.53-.22-.17-.11-.33-.27-.46-.48-.13-.2-.23-.46-.29-.8,0-.09,0-.24.12-.24.1.04.13.09.16.17.01.09.05.19.12.31.07.12.17.25.3.37.13.12.3.22.49.31.2.08.43.12.71.12.45-.01.95-.11,1.49-.28.53-.18,1.1-.49,1.69-.94.59-.45,1.22-1.06,1.88-1.81.65-.76,1.34-1.73,2.04-2.88.37-.62.75-1.28,1.11-1.98.37-.71.73-1.4,1.07-2.1.35-.69.67-1.36.98-2,.27-.57.52-1.08.75-1.52-.36.03-.65.06-.87.09-.25.03-.45.09-.59.16-.14.07-.25.17-.32.29-.09.14-.19.34-.3.59l-.13.05-.11-.15c.15-.39.3-.69.45-.89.16-.21.31-.34.45-.39.09-.03.21-.05.35-.08.14-.02.3-.04.46-.05l.47-.03c.13,0,.25-.02.35-.02.51-1.05,1-2.03,1.48-2.93.49-.93.99-1.83,1.5-2.69.28-.48.58-.95.91-1.4.32-.45.66-.86.99-1.2.34-.35.68-.63,1.01-.84.34-.21.67-.32.99-.32.23,0,.43.06.6.17.18.12.28.28.28.45,0,.05,0,.14-.02.26l-.09.8c-.02.14-.02.24-.02.3l-.18.14s-.09-.01-.14-.07c0-.18,0-.25.01-.32,0-.07,0-.13,0-.2,0-.2-.07-.35-.22-.46-.15-.12-.38-.17-.66-.17-.21,0-.42.04-.64.12-.22.08-.45.22-.68.42-.24.2-.49.48-.75.82-.26.34-.53.78-.81,1.32-.15.3-.35.69-.58,1.17l-.73,1.53c-.26.54-.52,1.1-.78,1.66-.23.51-.45.99-.65,1.44.08,0,.75-.02.98-.02h1.01c.11.05.19.13.14.3l-.1.08s-.67,0-.9,0l-.71.02c-.22,0-.42,0-.6,0-.34.73-.69,1.46-1.06,2.19-.38.75-.76,1.48-1.14,2.18-.38.7-.75,1.35-1.12,1.96-.37.6-.71,1.13-1.02,1.59-.78,1.12-1.53,2.08-2.23,2.85-.7.78-1.38,1.42-2.01,1.9-.64.49-1.25.85-1.81,1.06-.56.22-1.11.33-1.62.33Z"/>
      <path class="cls-5" d="m194.7,63.57c-.15,0-.32-.02-.5-.05-.18-.04-.36-.11-.53-.22-.17-.11-.33-.27-.46-.48-.13-.2-.23-.46-.29-.8,0-.09,0-.24.12-.24.1.04.13.09.16.17.01.09.05.19.12.31.07.12.17.25.3.37.13.12.3.22.49.31.2.08.43.12.71.12.45-.01.95-.11,1.49-.28.53-.18,1.1-.49,1.69-.94.59-.45,1.22-1.06,1.88-1.81.65-.76,1.34-1.73,2.04-2.88.37-.62.75-1.28,1.11-1.98.37-.71.73-1.4,1.07-2.1.35-.69.67-1.36.98-2,.27-.57.52-1.08.75-1.52-.36.03-.65.06-.87.09-.25.03-.45.09-.59.16-.14.07-.25.17-.32.29-.09.14-.19.34-.3.59l-.13.05-.11-.15c.15-.39.3-.69.45-.89.16-.21.31-.34.45-.39.09-.03.21-.05.35-.08.14-.02.3-.04.46-.05l.47-.03c.13,0,.25-.02.35-.02.51-1.05,1-2.03,1.48-2.93.49-.93.99-1.83,1.5-2.69.28-.48.58-.95.91-1.4.32-.45.66-.86.99-1.2.34-.35.68-.63,1.01-.84.34-.21.67-.32.99-.32.23,0,.43.06.6.17.18.12.28.28.28.45,0,.05,0,.14-.02.26l-.09.77c-.02.17-.03.27-.03.34l-.18.14s-.09-.01-.14-.07c0-.18,0-.25.01-.32,0-.07,0-.13,0-.2,0-.2-.07-.35-.22-.46-.15-.12-.38-.17-.66-.17-.21,0-.42.04-.64.12-.22.08-.45.22-.68.42-.24.2-.49.48-.75.82-.26.34-.53.78-.81,1.32-.15.3-.35.69-.58,1.17l-.73,1.53c-.26.54-.52,1.1-.78,1.66-.23.51-.45.99-.65,1.44.08,0,.75-.02.98-.02h1.01c.11.05.19.13.14.3l-.1.08s-.67,0-.9,0l-.71.02c-.22,0-.42,0-.6,0-.34.73-.69,1.46-1.06,2.19-.38.75-.76,1.48-1.14,2.18-.38.7-.75,1.35-1.12,1.96-.37.6-.71,1.13-1.02,1.59-.78,1.12-1.53,2.08-2.23,2.85-.7.78-1.38,1.42-2.01,1.9-.64.49-1.25.85-1.81,1.06-.56.22-1.11.33-1.62.33Z"/>
      <path class="cls-5" d="m207.4,53.09c-.43,0-.66-.23-.66-.66,0-.22.04-.45.11-.68.07-.23.16-.45.26-.66.11-.21.22-.42.34-.6.12-.19.24-.35.34-.47.22-.27.48-.51.77-.7.27-.18.57-.3.88-.34.02-.08.05-.17.08-.27.07-.19.19-.26.29-.28l.15-.04s.08-.02.11-.04l.1-.03c.15.06.2.13.15.25-.07.13-.12.28-.16.47-.04.19-.05.4-.05.63,0,.31.05.56.15.76.09.18.25.26.48.26.25,0,.46-.09.66-.27.21-.19.39-.4.53-.63l.15-.11.17.13c0,.05,0,.1-.05.15-.17.26-.4.51-.66.74-.27.23-.58.35-.93.35-.19,0-.39-.06-.57-.16-.13-.08-.25-.18-.34-.31-.06.14-.13.3-.21.46-.12.24-.25.49-.41.73-.16.24-.34.47-.53.67-.2.21-.41.38-.64.51-.21.1-.37.15-.52.15Zm2-3.83c-.08,0-.17.05-.26.11-.12.08-.23.19-.36.33-.12.14-.24.31-.37.49-.12.18-.24.37-.34.57-.13.25-.25.53-.36.82-.1.29-.15.56-.14.81,0,.07.01.14.03.2.03,0,.07,0,.1,0,.18,0,.33-.1.49-.27.2-.22.4-.47.58-.76.18-.29.34-.59.47-.89.12-.29.2-.52.22-.67-.02-.07-.04-.2-.05-.35-.01-.14-.02-.27-.02-.4Z"/>
      <path class="cls-5" d="m210.27,53.04c-.06,0-.11-.03-.21-.14-.09-.09-.13-.16-.13-.23,0-.09.04-.2.12-.36l.99-1.92.4-.76c.11-.21.19-.37.23-.47.07-.15.12-.22.2-.22.04,0,.09.02.21.11.11.08.17.19.17.33,0,.05-.02.12-.06.22-.04.08-.15.29-.15.29.03-.02.05-.05.08-.07.15-.14.31-.28.48-.4.17-.13.34-.23.5-.31.18-.09.33-.13.47-.13.12,0,.22.03.3.1.09.07.14.15.14.24-.08.14-.14.24-.21.35-.06.11-.11.19-.12.25l-.16.12c-.07,0-.11-.07-.13-.1-.02-.03-.04-.06-.07-.1-.03-.03-.07-.06-.12-.09-.05-.03-.12-.04-.22-.04-.11,0-.25.05-.4.14-.16.1-.3.21-.42.34-.19.18-.37.38-.51.6-.15.22-.29.45-.42.68-.13.24-.26.48-.39.73-.13.25-.26.51-.41.77,0,.02-.04.1-.18.1Z"/>
      <path class="cls-5" d="m213.78,53.06c-.19,0-.36-.06-.5-.19-.15-.13-.22-.35-.22-.64,0-.25.09-.6.29-1.07.17-.42.42-.93.74-1.52,0,0-.57.05-.6.05-.11,0-.18-.07-.18-.17.06-.14.13-.23.24-.32l.8-.04.63-1.18c.11-.22.23-.43.35-.63.12-.2.22-.39.32-.57.16-.1.32-.18.52-.27.21-.09.39-.17.54-.23l.18.1s.03.13-.09.2c-.1.03-.18.07-.28.13-.09.05-.16.12-.2.2-.24.38-.47.77-.69,1.17-.2.36-.39.72-.57,1.08h1.77l.15.17c0,.06-.03.11-.08.14-.13.01-.25.02-.42.02-.17,0-1.15.06-1.15.06-.21.01-.39.02-.54.04-.2.52-.43,1.01-.58,1.42-.15.4-.23.74-.23,1.03,0,.47.22.53.41.53.15,0,.33-.05.53-.14.21-.1.43-.23.66-.39l.1-.04.13.07c.04.06.04.11.03.14l-.1.11c-.34.25-.68.44-.99.56-.31.12-.63.18-.96.18Z"/>
      <path class="cls-5" d="m216.56,53.04c-.3,0-.52-.09-.66-.26-.13-.16-.2-.37-.2-.6s.08-.53.25-.94c.16-.39.35-.81.57-1.24.22-.43.44-.84.66-1.23.22-.38.38-.67.48-.87l.55-1.06,1.11-2.08c.17-.32.33-.61.48-.85.18-.31.36-.59.55-.86.19-.27.44-.55.73-.82.39-.37.77-.67,1.11-.87.47-.28.63-.31.72-.31.11,0,.2.04.27.11.07.07.11.17.11.31,0,.17-.06.42-.18.75-.11.32-.28.69-.5,1.11-.21.41-.48.86-.78,1.34-.31.48-.66.95-1.05,1.42-.39.47-.83.92-1.29,1.35-.47.43-.98.81-1.51,1.14-.06.15-.19.4-.35.71-.17.31-.33.64-.49.99-.16.35-.3.69-.42,1.02-.12.33-.17.61-.17.82,0,.41.19.46.35.46.24,0,.5-.08.76-.23.27-.16.54-.36.78-.58.25-.23.49-.48.71-.74.22-.26.41-.5.56-.7.07-.08.12-.12.18-.12l.12.1c.02.08,0,.15-.07.22-.18.25-.41.53-.66.82-.26.3-.53.57-.82.82-.29.25-.6.46-.92.62-.32.17-.65.26-.98.26Zm5.71-11.31s-.08.01-.12.04c-.04.02-.1.07-.22.2-.1.11-.21.26-.35.46-.14.2-.32.45-.54.77-.08.13-.2.31-.35.56-.15.24-.34.57-.57.97-.23.4-.51.9-.84,1.49l-.96,1.73c.49-.34.95-.75,1.39-1.2.54-.56,1.01-1.14,1.4-1.73.39-.59.7-1.17.92-1.71.22-.55.34-1.01.34-1.38,0-.18-.06-.18-.1-.18Z"/>
      <path class="cls-5" d="m219.27,53.09c-.54,0-.83-.29-.83-.83,0-.34.08-.71.23-1.1.15-.39.35-.75.6-1.07.24-.33.51-.61.81-.83.3-.23.6-.34.88-.34.17,0,.3.04.37.12.08.08.11.18.11.3,0,.15-.04.32-.12.5-.08.17-.21.34-.37.49-.17.15-.37.28-.62.39-.23.1-.51.15-.83.16-.04.1-.09.24-.14.42-.06.22-.09.44-.09.67,0,.55.27.62.48.62.22,0,.46-.06.7-.18.25-.12.49-.28.72-.47.23-.19.45-.4.65-.62.2-.22.37-.43.5-.63l.13-.07c.13.04.16.1.16.18-.2.31-.41.56-.66.83-.25.27-.52.51-.81.73-.29.22-.59.4-.91.54-.32.14-.64.21-.95.21Zm.45-2.56c.28,0,.51-.11.72-.33.21-.22.32-.48.32-.78,0-.12-.04-.13-.1-.13-.08,0-.17.04-.26.11-.1.08-.2.19-.3.32-.1.14-.2.29-.29.45-.07.12-.13.24-.18.35.05,0,.07,0,.09,0Z"/>
      <path class="cls-5" d="m221.55,53.12c-.69,0-1.07-.27-1.14-.8l.04-.1c.05-.03.11-.08.17-.13.06-.05.1-.09.13-.12l.23.1c.05.19.14.36.27.5.13.13.27.2.44.2.08,0,.17,0,.28-.02.1-.02.19-.05.28-.11.08-.06.16-.14.23-.24.06-.1.09-.24.09-.42,0-.14-.02-.27-.07-.38-.05-.12-.1-.23-.16-.34l-.19-.36c-.07-.13-.1-.27-.1-.43s.05-.33.14-.5c.09-.17.21-.33.35-.47.14-.14.3-.26.46-.36.18-.1.35-.15.53-.15.32,0,.35.19.35.27-.04.1-.16.38-.18.44l-.14.12-.12-.09c-.03-.07-.09-.17-.3-.17-.13,0-.25.04-.38.12-.12.08-.17.18-.17.34,0,.08.02.15.07.23.05.09.12.21.21.36.08.14.16.28.24.43.08.15.12.32.12.48,0,.32-.07.59-.2.8-.13.2-.29.37-.47.49-.18.12-.37.21-.56.25-.19.04-.33.06-.44.06Z"/>
      <path class="cls-5" d="m223.95,53.12c-.69,0-1.07-.27-1.14-.8l.04-.1c.05-.03.11-.08.17-.13.06-.05.1-.09.13-.12l.23.1c.05.19.14.36.27.5.13.13.27.2.44.2.08,0,.17,0,.28-.02.1-.02.19-.05.28-.11.08-.06.16-.14.23-.24.06-.1.09-.24.09-.42,0-.14-.02-.27-.07-.38-.05-.12-.1-.23-.16-.34l-.19-.36c-.07-.13-.1-.27-.1-.43s.05-.33.14-.5c.09-.17.21-.33.35-.47.14-.14.3-.26.46-.36.18-.1.35-.15.53-.15.32,0,.35.19.35.27-.04.1-.16.38-.18.44l-.14.12-.12-.09c-.03-.07-.09-.17-.3-.17-.13,0-.25.04-.38.12-.12.08-.17.18-.17.34,0,.08.02.15.07.23.05.09.12.21.21.36.08.14.16.28.24.43.08.15.12.32.12.48,0,.32-.07.59-.2.8-.13.2-.29.37-.47.49-.18.12-.37.21-.56.25-.19.04-.33.06-.44.06Z"/>
      <path class="cls-5" d="m226.92,53.04c-.3,0-.52-.09-.66-.26-.13-.16-.2-.37-.2-.6s.08-.53.25-.94c.16-.39.35-.81.57-1.24.22-.43.44-.84.66-1.23.22-.38.38-.67.48-.87l.55-1.06,1.11-2.08c.17-.32.33-.61.48-.85.18-.31.36-.59.55-.86.19-.27.44-.55.73-.82.39-.37.77-.67,1.11-.87.47-.28.63-.31.72-.31.11,0,.2.04.27.11.07.07.11.17.11.31,0,.17-.06.42-.18.75-.11.31-.28.69-.5,1.11-.21.41-.48.86-.78,1.34-.31.48-.66.95-1.05,1.42-.39.47-.83.92-1.29,1.35-.47.43-.98.81-1.51,1.14-.06.15-.19.4-.35.71-.17.31-.33.64-.49.99-.16.35-.3.69-.42,1.02-.12.33-.17.61-.17.82,0,.41.19.46.35.46.24,0,.5-.08.76-.23.27-.16.54-.36.78-.58.25-.23.49-.48.71-.74.22-.26.41-.5.56-.7.07-.08.12-.12.18-.12l.12.1c.02.08,0,.15-.07.22-.18.25-.41.53-.66.82-.26.3-.53.57-.82.82-.29.25-.6.46-.92.62-.32.17-.65.26-.98.26Zm5.71-11.31s-.08.01-.12.04c-.04.02-.1.07-.22.2-.1.11-.21.26-.35.46-.14.2-.32.45-.54.77-.08.13-.2.31-.35.56-.15.24-.34.57-.57.97-.23.4-.51.9-.84,1.49l-.96,1.73c.49-.34.95-.75,1.39-1.2.54-.56,1.01-1.14,1.4-1.73.39-.59.7-1.17.92-1.71.22-.55.34-1.01.34-1.38,0-.18-.06-.18-.1-.18Z"/>
      <path class="cls-5" d="m223.29,60.37c-.32,0-.61-.09-.87-.26-.27-.18-.4-.5-.4-.94,0-.1,0-.2.02-.3.02-.11.04-.19.06-.25l.09-.12.18.14c0,.29.1.56.29.79.19.23.53.35,1.03.35.4,0,.81-.12,1.22-.35.41-.23.82-.55,1.21-.94.39-.39.78-.85,1.15-1.37.37-.51.73-1.06,1.08-1.64.35-.57.67-1.14.99-1.72.25-.46.48-.9.7-1.32-.06.05-.13.09-.21.14-.21.13-.44.2-.66.2-.17,0-.31-.04-.41-.13-.11-.09-.16-.22-.16-.39,0-.25.13-.61.39-1.09.26-.46.56-1.01.93-1.64.05-.07.08-.12.11-.15.03-.04.06-.07.1-.09l.25-.06c.1-.02.16-.03.18-.03l.16.15c-.38.78-.7,1.38-.95,1.84-.25.44-.37.79-.37,1.03,0,.11.04.11.07.11.03,0,.08,0,.16-.04.08-.03.16-.08.25-.13.09-.06.18-.12.26-.18.08-.06.13-.11.17-.16.07-.08.18-.25.4-.73.18-.39.4-.85.66-1.38.13-.26.25-.48.36-.66.13-.21.24-.31.36-.31.11.05.16.12.21.24.04.1.06.21.06.32,0,.05-.02.13-.15.37-.09.17-.21.37-.36.6-.15.23-.3.47-.48.73-.17.26-.34.5-.49.72-.37.63-.75,1.3-1.12,1.98-.38.68-.76,1.34-1.14,1.98-.39.64-.79,1.25-1.19,1.81-.41.57-.83,1.07-1.26,1.49-.44.43-.89.77-1.36,1.01-.47.25-.98.38-1.5.38Z"/>
    </g>
  </g>
</svg>