<?xml version="1.0" encoding="UTF-8"?>
<svg id="Layer_2" data-name="Layer 2" xmlns="http://www.w3.org/2000/svg" viewBox="0 0 409.19 408.78">
  <defs>
    <style>
      .cls-1 {
        fill: #000;
      }
    </style>
  </defs>
  <g id="Layer_1-2" data-name="Layer 1">
    <g>
      <path class="cls-1" d="m38.14,407.78c-12.45,0-23.8-5.74-30.37-15.34-3.3-4.83-5.53-10.8-6.45-17.28-.38-2.67-.33-5.55-.29-8.33v-.21c.01-.76.03-1.51.03-2.25,0-3.53.09-7.13.17-10.62,0-.04.08-3.33.1-4.48.2-10.03.15-20.23.1-30.09-.02-4.52-.04-9-.04-13.47V112.01c0-11.31,2.57-19.71,8.1-26.43,5.5-6.69,13.47-11.05,22.44-12.29,2.86-.39,5.75-.45,8.45-.45.67,0,4.16.01,4.16.01h9.17c11.72-.02,23.45-.02,35.17-.02,20.02,0,36.38.03,51.46.08,1.86,0,5.31,0,5.71-4.21.26-2.7.3-5.44.35-8.09.07-4.04.14-8.2.96-12.19,1.17-5.62,3.4-11.32,6.63-16.95,5.93-10.34,14.91-18.95,25.28-24.27,6.13-3.14,12.62-5.11,19.29-5.87,2.02-.23,4.08-.34,6.12-.34,2.86,0,5.75.23,8.6.68,18.41,2.92,32.66,12.56,42.36,28.68,5.62,9.33,8.26,19.89,8.07,32.29-.07,4.66-.11,7.23,1.35,8.71,1.46,1.48,3.96,1.48,8.94,1.48,9.71,0,19.42,0,29.13-.01h2.13c9,0,18-.01,27-.01,13.17,0,26.35.01,39.52.05,21.4.06,36.36,14.92,36.38,36.13.07,76.45.05,153.22.03,227.47v35.14c-.01,6.3-1.14,11.59-3.48,16.15-6.79,13.29-18.13,20.02-33.71,20.02H94.01s-55.87,0-55.87,0Zm-9.37-241.21c-2.22,0-3.47.35-4.32,1.2-.86.86-1.2,2.11-1.2,4.34.09,52.82.09,106.49.09,158.39v39.57c0,10.9,4.87,15.76,15.78,15.76h331.27c10.96,0,15.85-4.84,15.85-15.69v-39.88c0-49.08,0-104.71.08-158.08,0-1.93-.2-3.42-1.19-4.41-.84-.85-2.11-1.21-4.24-1.21-38.21.09-76.73.1-109.38.1h-66.27s-65.01,0-65.01,0c-33.25,0-72.49-.01-111.39-.09h-.04Zm48.55-71.78c-13.25,0-26.49,0-39.74.02-9.01,0-14.2,5.29-14.24,14.48-.01,3.43,0,6.86.02,10.29.03,6.43.06,13.09-.11,19.62-.06,2.18.28,3.48,1.12,4.35.86.88,2.13,1.24,4.37,1.24,38.66-.08,77.89-.09,111.17-.09h165.07s36.28-.01,36.28-.01c10.9,0,25.28.01,39.94.1h.11c1.97,0,3.15-.34,3.94-1.14.8-.81,1.1-1.99,1.06-4.07-.12-5.86-.11-11.81-.09-17.55.01-4.56.03-9.28-.03-13.97-.09-7.75-5.46-13.19-13.04-13.21-19.95-.05-40.23-.06-59.85-.06h-1.64c-14.76,0-29.52,0-44.28-.03-1.06,0-2.24.11-3.01.92-.58.62-.82,1.5-.75,2.79.16,2.79.09,5.66.03,8.43v.27c-.17,7.01-4.61,11.44-11.61,11.56-2.25.04-4.5.05-6.75.05-1.73,0-3.46,0-5.19-.01-1.73,0-3.47-.01-5.2-.01h-42.74c-11.3,0-22.59,0-33.89-.01-7.9-.01-12.29-4.41-12.37-12.38,0-.65-.02-1.29-.04-1.94-.05-1.71-.09-3.46.08-5.12.17-1.58-.07-2.67-.74-3.42-.89-.99-2.35-1.13-3.8-1.13h-.05c-21.48.05-43.03.05-63.88.06h-.16ZM205.69,22.97c-3.42,0-6.98.51-10.58,1.52-15.04,4.19-24.2,14.43-26.49,29.6-1.28,8.49-1.08,17.18-.88,25.57.11,4.6.22,9.33.09,13.99-.03,1.11.21,1.91.74,2.45.64.66,1.5.73,2.09.73.25,0,.51-.02.76-.03.23-.01.44-.03.63-.03,5.72.01,11.44.02,17.15.02l32.63-.02c5.22,0,10.43.01,15.65.05h.18c1.42,0,2.45-.15,3.21-.92.63-.64.92-1.62.9-3.06-.08-5.36-.07-10.77-.05-16.01.01-5.59.03-11.38-.07-17.1-.17-9.76-3.41-18.04-9.65-24.6-7.68-8.07-16.53-12.17-26.31-12.17Z"/>
      <path class="cls-1" d="m120.85,359.07h-33.8c-7.89,0-15.78,0-23.67,0-4.69,0-8.01-1.05-10.14-3.19-2.14-2.16-3.17-5.51-3.13-10.25.01-2.02,0-4.04-.02-6.05-.06-7.5-.13-15.26,1.49-22.76,3.93-18.19,13.94-32.32,29.75-41.98,1.75-1.07,2.89-2.01,3.16-3.36.23-1.15-.23-2.4-1.52-4.16-11.44-15.57-11.9-36.27-1.18-52.74,8.51-13.07,23.57-21.19,39.3-21.19,3.25,0,6.49.35,9.64,1.04,19.18,4.21,33.51,19.42,36.49,38.76,1.91,12.37-.91,23.91-8.39,34.3-1.01,1.41-1.82,2.68-1.55,4.05.22,1.07,1.04,1.97,2.74,3.01,20.24,12.33,30.92,30.95,31.74,55.33.19,5.71.11,11.53.02,17.16v.35c-.11,7.17-4.66,11.65-11.87,11.67-8.48.03-16.97.03-25.46.03h-33.61Zm-3.92-71.84c-13.02,0-24.24,4.34-32.44,12.56-8.11,8.13-12.56,19.72-12.53,32.62,0,3.1.73,4.79,4.52,4.79h.18c6.13-.07,12.63-.11,21.07-.11,3.87,0,7.74,0,11.6.01h1.46c3.38,0,6.77.01,10.15.01h19.62c8.36,0,16.72,0,25.08-.01.21,0,.41.01.61.02.23.01.46.02.68.02,1.81,0,2.79-1,2.99-3.05,1.91-20.06-11.83-39.97-31.3-45.32-5.08-1.4-10.26-1.59-15.1-1.59-1.08,0-2.17,0-3.25.02-1.08,0-2.16.02-3.24.02h-.09Zm3.99-71.84c-13.61,0-24.79,11.1-24.91,24.75-.12,13.65,10.93,24.91,24.64,25.1h.34c6.55,0,12.76-2.61,17.51-7.37,4.76-4.77,7.37-11.01,7.36-17.59-.03-13.67-11.17-24.84-24.85-24.89h-.09Z"/>
      <path class="cls-1" d="m337.49,239.32c-2.48,0-4.96,0-7.44,0,0,0-5.42,0-7.5,0h-50.53c-14.02,0-28.05,0-42.07-.02-4.43,0-8.22-1.84-10.41-5.03-1.95-2.84-2.31-6.43-.99-9.85,1.74-4.53,5.79-7.03,11.4-7.04,8.5-.01,17.01-.02,25.52-.02h33.55c5.74,0,11.47,0,17.21,0,0,0,12.4-.01,17.34-.01,8.31,0,16.61.01,24.92.05,4.2.02,7.83,1.83,9.97,4.96,1.97,2.88,2.34,6.49,1.03,9.91-1.67,4.35-5.64,6.97-10.61,7.02-3.79.04-7.59.05-11.39.05Z"/>
      <path class="cls-1" d="m254.28,287.23c-8.29,0-16.58-.01-24.87-.06-4.2-.02-7.96-1.98-10.04-5.25-1.93-3.02-2.16-6.69-.62-10.05,2-4.39,5.68-6.62,10.92-6.62,5.99,0,11.95.01,17.91.01l68.13-.02c10.85,0,21.69,0,32.54.04,4.37.01,8.12,1.86,10.29,5.07,1.95,2.89,2.29,6.51.93,9.93-1.8,4.52-5.78,6.91-11.5,6.92-8.5.01-17,.01-25.5.01h-33.57c-5.77,0-11.53,0-17.3,0-5.77,0-11.53.01-17.3.01Z"/>
      <path class="cls-1" d="m254.2,335.14c-9.65,0-17.54-.02-24.83-.06-4.19-.02-7.93-1.98-10.01-5.25-1.93-3.04-2.16-6.71-.6-10.08,2.01-4.37,5.69-6.59,10.94-6.59,7,.01,13.98.01,20.96.01,0,0,61.35-.02,67.83-.02,9.93,0,19.86,0,29.79.04,4.35.01,8.09,1.86,10.26,5.08,1.95,2.9,2.29,6.53.91,9.95-1.81,4.5-5.8,6.88-11.53,6.88-8.24.01-16.47.01-24.71.01h-34.36c-5.77,0-11.55,0-17.32,0h-2.17c-5.05,0-10.09.01-15.14.01Z"/>
      <path class="cls-1" d="m204.75,70.8c-5.93-.02-10.93-5.05-10.91-10.98.02-5.91,5.03-10.91,10.94-10.91,2.9,0,5.65,1.17,7.73,3.26,2.08,2.09,3.22,4.83,3.21,7.72-.02,5.91-5.03,10.91-10.94,10.91h-.04Z"/>
    </g>
  </g>
</svg>
