<?xml version="1.0" encoding="UTF-8"?>
<svg id="Layer_2" data-name="Layer 2" xmlns="http://www.w3.org/2000/svg" viewBox="0 0 321.37 386">
  <defs>
    <style>
      .cls-1 {
        fill: #000 ;
      }
    </style>
  </defs>
  <g id="Layer_1-2" data-name="Layer 1">
    <path class="cls-1" d="m53.28,386l-.28-.23c-.08-.07-.17-.15-.25-.24-.01-.01-.03-.03-.04-.04-13.48-2.98-22.3-11.25-26.23-24.58-.16-.55-1.05-1.36-1.76-1.6C8.14,353.73.07,342.64.07,325.43c0-22.52,0-45.04,0-67.56C.06,203.88.06,148.04,0,93.12c0-3.94,1.3-7,4.22-9.91,17.92-17.85,36.08-36.06,53.65-53.66,7.52-7.53,15.03-15.07,22.55-22.59,1.56-1.56,3.18-3.1,4.76-4.59.74-.7,1.47-1.4,2.21-2.1l.29-.28h180.41l.28.22c.09.07.17.15.26.24.01.01.03.03.04.04,13.45,2.94,22.27,11.21,26.24,24.58.06.22.42.83,2.25,1.79,1.27.66,2.64,1.26,3.96,1.83,2.43,1.05,4.94,2.14,7.09,3.74,8.88,6.57,13.19,16.02,13.17,28.9-.08,72.37-.08,145.95-.07,217.12v71.47c0,1.34,0,2.93-.07,4.54-.6,14.25-9.85,26.08-23.58,30.14-.95.28-1.9.59-2.84.91l-1.48.49H53.28Zm214.26-15.22c6.52,0,13.04,0,19.57.01,6.17,0,10.99-2.15,14.76-6.56,2.95-3.45,4.26-7.66,4.25-13.64-.04-73.76-.04-147.51-.04-221.27V59.99c0-1.33,0-2.71-.13-4.02-.6-6.28-5.17-12.17-10.64-13.97v39.42c0,80.79,0,161.57-.02,242.36v.61c0,2.69,0,5.47-.49,8.16-3.04,16.68-16.41,27.46-34.05,27.46-32.94,0-65.88.01-98.82.01H41.86c2.87,6.87,9.25,10.77,17.71,10.77,31.54,0,63.09,0,94.63,0h113.35ZM15.31,154.83c0,56.92,0,113.84,0,170.76,0,13.08,7.24,20.28,20.39,20.28,37.53,0,75.06,0,112.59,0s75.06,0,112.59,0c13.2,0,20.47-7.32,20.47-20.61,0-96.62,0-193.23,0-289.85,0-13.17-7.19-20.42-20.24-20.42-24.17,0-162.81,0-162.81,0v3.36c0,4.2.02,8.4.04,12.6.05,10.62.09,21.61-.17,32.41-.15,5.97-1.16,11.11-3.01,15.27-5.58,12.54-15.89,19.29-29.82,19.51-5.93.09-12.3.13-20.06.13-5.07,0-10.15-.02-15.28-.04-4.86-.02-9.76-.03-14.7-.04v56.62Zm32.57-71.6c5.2,0,10.38,0,15.56-.02,12.02-.03,19.55-7.54,19.63-19.61.07-9.72.04-19.6.02-29.15l-.02-7.94c0-.16,0-.33-.02-.49l-57.14,57.21h21.96Z"/>
    <path class="cls-1" d="m148.18,297c-6.22,0-12.68-.08-19.2-.24-19.78-.48-33.17-14.24-33.33-34.24-.04-5.46-.03-10.84-.02-16.54,0-2.29,0-4.62.01-6.97-1.79,0-3.55,0-5.29.02-2.03,0-4.03.02-6.02.02-3.2,0-5.82-.02-8.25-.07l-1.47-.03c-3.66-.06-7.44-.13-11.05-.92-14.94-3.29-25.49-16.4-25.66-31.88-.13-12.32-.14-25.38-.01-38.81.17-18.53,14.29-32.83,32.84-33.27,2.5-.06,5.19-.09,8.46-.09,2.1,0,4.2.01,6.31.02,2.1.01,4.2.02,6.3.02h3.86c0-2.09-.02-4.15-.04-6.2-.05-5.68-.09-11.04.13-16.49.17-4.23.55-9.15,2.09-13.56,4.52-13.01,16.42-21.26,31.05-21.55,6.96-.14,13.43-.2,19.79-.2s12.37.07,18.21.2c19.5.45,33.2,14.55,33.32,34.3.03,5.48.02,10.95.02,16.58,0,2.28,0,4.58,0,6.93,1.9,0,3.78-.01,5.65-.02,2.15-.01,4.29-.02,6.41-.02,3.49,0,6.34.03,8.97.09,3.66.08,7.81.18,11.75,1.14,14.76,3.6,24.81,16.31,24.99,31.63.15,12.3.09,24.81.03,36.9v1.16c-.09,19.42-14.23,33.77-33.62,34.1-2.34.04-4.84.06-7.87.06-2.12,0-4.24,0-6.37-.02-2.12,0-4.24-.02-6.36-.02h-3.6c0,2.38,0,4.7,0,6.99,0,5.6.01,10.99-.01,16.38-.11,20.02-13.45,33.84-33.19,34.38-6.11.17-12.44.25-18.81.25Zm-5.01-103.16c-5.75,0-10.43.02-14.73.08-9.61.12-17.53,7.67-17.66,16.83-.24,17.36-.24,35.51,0,53.96.12,8.62,7.25,16.13,15.57,16.4,7.06.23,14.22.35,21.28.35h0c7.32,0,14.73-.13,22.03-.37,7.97-.27,15.01-7.53,15.37-15.85.26-6.17.2-12.29.14-18.77-.03-2.54-.05-5.11-.06-7.72h-19.13c-1.64,0-3.28,0-4.92.02-1.64,0-3.29.02-4.93.02-3.2,0-5.78-.03-8.14-.11-4.32-.14-7.44-3.26-7.42-7.43.02-4.1,3.03-7.01,7.48-7.26.56-.03,1.12-.04,1.68-.04h1.75s35.17.03,41.93.03c9.97,0,19.94,0,29.91-.04,11.76-.04,19.39-7.68,19.43-19.46.04-11.8.04-23.91,0-35.99-.04-11.67-7.53-19.3-19.07-19.45-2.28-.03-4.55-.04-6.83-.04-1.84,0-3.68,0-5.52.01-1.84,0-3.68.01-5.53.01h-5.83v2.83c0,2.56,0,4.92,0,7.28-.07,20.76-14.07,34.73-34.85,34.75h-2.58c-3.23,0-6.45,0-9.68-.01-3.22,0-6.45-.01-9.67-.01Zm-40.44-44.72c-10.12,0-20.23,0-30.35.04-11.65.03-19.2,7.57-19.24,19.21-.05,13.39-.04,25.4,0,36.73.05,10.61,6.86,18.15,16.96,18.76,2.96.18,6.16.26,10.04.26,2.66,0,5.35-.04,8.09-.08,2.51-.04,5.06-.07,7.66-.08v-2.74c0-2.56,0-5,0-7.43.11-20.64,14.02-34.53,34.61-34.57h3.84c3.17,0,6.34,0,9.5,0,3.17,0,6.33.01,9.5.01,4.48,0,8.96-.01,13.44-.05,10.17-.09,18.23-7.73,18.33-17.38.18-16.58.19-33.86,0-52.84-.09-9.06-7.16-16.69-15.77-17.02-7.15-.27-14.36-.41-21.45-.41s-14.39.14-21.47.42c-8.59.34-15.49,7.84-15.71,17.08-.14,5.8-.11,11.71-.08,17.43,0,2.05.02,4.11.02,6.16,0,.47.08.98.17,1.56,0,.05.01.09.02.14h15.84c5.97,0,11.92,0,17.87,0h1.62c.96,0,2,.02,3.04.22,3.85.75,6.23,3.9,5.93,7.84-.28,3.7-2.93,6.31-6.75,6.65-.77.07-1.54.08-2.12.08h-1.69s-35.26-.02-41.88-.02Z"/>
    <path class="cls-1" d="m94.4,328.33c-7.51,0-15.02,0-22.53.01-3.93,0-6.47-1.61-7.17-4.53-.5-2.08-.3-5.25,1.05-7.28,1.18-1.76,4.17-2.86,6.27-2.87,16.66-.08,34.2-.11,55.19-.11,13.02,0,26.04.01,39.06.03,2.49,0,4.67.83,6.13,2.31,1.33,1.35,2.03,3.14,2,5.18-.05,4.39-3.31,7.23-8.29,7.24-6.86.02-13.72.02-20.57.02h-51.14Z"/>
    <path class="cls-1" d="m227.84,328.34h-16.29c-3.67,0-7.34,0-11,0-3.09,0-5.43-.8-6.95-2.34-1.26-1.28-1.88-3-1.85-5.11.06-4.64,3.34-7.3,9.01-7.31,9.14,0,18.27-.02,27.41-.02s17.87,0,26.81.02c2.98,0,5.38.84,6.93,2.42,1.28,1.3,1.94,3.07,1.91,5.12-.07,4.51-3.31,7.21-8.67,7.23-3.73.01-7.47.02-11.2.02h-16.1Z"/>
    <path class="cls-1" d="m194.41,40.35c-2.38,0-4.76,0-7.13-.02-5.09-.04-8.2-2.71-8.3-7.14-.05-2.12.61-3.94,1.9-5.27,1.48-1.52,3.7-2.33,6.43-2.34,6.02-.03,12.05-.04,18.07-.04s12.1.01,18.16.04c2.65.01,4.96.9,6.49,2.49,1.32,1.38,1.99,3.16,1.92,5.15-.15,4.28-3.46,7.07-8.43,7.1-2.45.02-4.89.02-7.34.02h-10.96s-10.8,0-10.8,0Z"/>
    <path class="cls-1" d="m260.45,40.35c-.74,0-1.47-.01-2.21-.02-.67,0-1.33-.02-1.99-.02-.65,0-1.3.01-1.96.02-.66.01-1.33.02-1.99.02-.95,0-1.73-.02-2.47-.07-3.97-.24-6.81-2.98-7.05-6.83-.26-4.1,2.65-7.5,6.62-7.75,2.27-.14,4.65-.22,7.07-.22,2.2,0,4.51.06,6.86.18,4.02.2,6.98,3.43,6.88,7.5-.1,3.97-3.05,6.9-7.19,7.12-.77.04-1.59.06-2.58.06Z"/>
    <path class="cls-1" d="m42.31,328.33h-1s-.03,0-.04,0c-.36,0-.72.01-1.08.01-.44,0-.88-.01-1.31-.04-4.07-.28-7.09-3.29-7.18-7.15-.09-3.89,2.87-7.12,6.88-7.5,1-.1,2.07-.14,3.27-.14s2.27.04,3.21.08c4.54.2,7.8,3.33,7.77,7.46-.03,4.19-3.2,7.11-7.87,7.28-.33.01-.66.02-.99.02h-1.66Z"/>
    <path class="cls-1" d="m135.04,123.53c-1.95-.02-3.86-.86-5.23-2.29-1.38-1.44-2.11-3.3-2.05-5.25.12-3.88,3.37-7.1,7.24-7.18h.14c4,0,7.26,3.3,7.27,7.36,0,2.02-.75,3.88-2.11,5.25-1.35,1.36-3.19,2.1-5.17,2.1h-.09Z"/>
    <path class="cls-1" d="m160.67,264.4c-3.94,0-7.28-3.37-7.3-7.36-.02-3.95,3.04-7.17,6.97-7.34.11,0,.22,0,.34,0,4.05,0,7.19,3.04,7.31,7.07.06,2-.67,3.9-2.05,5.35-1.36,1.43-3.17,2.24-5.12,2.28h-.16Z"/>
  </g>
</svg>
