<?xml version="1.0" encoding="UTF-8"?>
<svg id="Layer_2" data-name="Layer 2" xmlns="http://www.w3.org/2000/svg" viewBox="0 0 306.65 383.19">
  <defs>
    <style>
      .cls-1 {
        fill: #000;
      }
    </style>
  </defs>
  <g id="Layer_1-2" data-name="Layer 1">
    <path class="cls-1" d="m296.26,383.19h-29.94c-3.03-2.09-5.47-4.72-4.31-8.63,1.28-4.31,5.06-4.51,8.87-4.44,5.24.1,10.48.06,15.71.02,7.08-.06,6.64,1.01,6.65-6.59q0-5.55-5.43-5.55c-77.45,0-154.9,0-232.35,0-1.87,0-3.74.05-5.61-.05-17.08-.85-28.79-18.03-23.32-34.2,3.77-11.15,13.62-17.76,26.66-17.77,67.47-.02,134.95,0,202.42,0,10.98,0,21.95-.17,32.92.09,3.92.09,5.23-1.27,4.71-4.93-.09-.61-.01-1.25-.01-1.87-.02-4.95-.02-4.97-4.91-4.97-78.57,0-157.15,0-235.72,0-2.24,0-4.52-.1-6.72.25-17.02,2.66-30.67,16.33-32.31,32.23-1.89,18.38,8.18,34.34,25.57,40.67,6.33,2.31,12.88,2.7,19.5,2.7,60.11,0,120.23,0,180.34,0,1.5,0,3-.08,4.49.08,4.36.46,6.64,4.23,5.27,8.36-.73,2.19-2.54,3.27-4.14,4.6H46.99c-.55-.23-1.09-.59-1.67-.69C17.6,377.8.02,357.01.02,328.8,0,236.98.02,145.16,0,53.34c0-4.01.21-7.99,1.01-11.91C6.06,16.82,26.53.04,51.69.02c77.6-.04,155.2-.02,232.8-.02,14.61,0,22.07,7.48,22.08,22.13,0,40.55,0,81.09,0,121.64,0,53.4-.02,106.79.03,160.19,0,4.98-.94,9.46-5.18,12.58-1.34.99-1.37,2.21-1.37,3.61.02,7.86.06,15.72-.03,23.58-.02,1.91.49,3.23,2.03,4.46,3.13,2.48,4.41,5.96,4.49,9.88.07,2.99-.14,6,.05,8.98.52,7.97-2.63,13.49-10.33,16.15ZM57.63,146.56c0,43.16.06,86.33-.1,129.49-.01,3.94,1.18,4.69,4.82,4.68,75.6-.1,151.2-.1,226.8,0,3.6,0,4.6-1.01,4.6-4.6-.09-84.71-.07-169.41-.08-254.12,0-7.23-1.93-9.16-9.06-9.16-74.23,0-148.45.02-222.68-.07-3.35,0-4.38.78-4.37,4.28.12,43.16.08,86.33.08,129.49Zm110.31,172.79c-10.6,0-21.2,0-31.8,0-28.18,0-56.36-.03-84.54.03-7.37.02-12.52,4.66-13.24,11.56-.66,6.31,3.91,12.11,10.86,13.55,1.93.4,3.96.43,5.94.43,74.94.02,149.88.02,224.82.02,1.5,0,3-.12,4.49.03,2.34.23,3-.78,2.95-3.01-.12-5.98-.28-11.98.05-17.95.21-3.78-.88-4.76-4.7-4.75-38.28.15-76.56.09-114.84.09Z"/>
    <path class="cls-1" d="m160.11,82.89c26.37-.15,40.57,18.47,34.55,39.45-3.74,13.05-7.6,26.06-11.4,39.09-.31,1.05-1.19,2.27-.39,3.18,1.01,1.15,2.35.03,3.44-.29,9.73-2.82,13.19-1.08,16.34,8.37.63,1.89,1.23,3.79,1.76,5.71,1.17,4.22-.02,8.08-3.63,10.16-12.83,7.41-26.65,11.71-41.49,8.6-16.65-3.49-26.51-20.57-21.97-37.08,3.72-13.57,7.87-27.02,11.8-40.53.3-1.03,1.17-2.35.42-3.14-.93-.99-2.32-.17-3.5.19-9.52,2.92-13.12,1.06-16.27-8.39-3.95-11.83-2.69-14.62,8.77-19.52,8.33-3.57,16.97-5.73,21.58-5.82Zm8.61,102.21c7.19-.25,14-2.1,20.58-4.92.91-.39,1.89-.8,1.46-2.16-.46-1.45-1.49-.98-2.44-.76-.73.17-1.43.45-2.15.61-8.41,1.9-16.06-3.6-16.77-12.06-.24-2.8.68-5.42,1.44-8.04,3.93-13.5,8.06-26.94,11.8-40.49,2.89-10.47-4.81-21.13-15.32-21.55-8.36-.34-16.31,1.63-23.95,4.9-.95.41-2.38.61-1.76,2.27.58,1.56,1.69,1,2.78.68,2.52-.75,5.04-1.35,7.71-.77,7.89,1.71,12.52,9.07,10.29,17-3.94,14.01-8.14,27.95-12.19,41.93-3.91,13.5,4.6,24.21,18.51,23.35Z"/>
    <path class="cls-1" d="m172.3,223.8c-18.32,0-36.65,0-54.97,0-2.01,0-4.02,0-5.78-1.14-2.28-1.48-3.48-3.63-3.11-6.34.37-2.66,1.87-4.69,4.55-5.38,1.66-.43,3.45-.51,5.18-.51,36.27-.03,72.55-.02,108.82-.02.5,0,1,0,1.5.01,5,.19,7.91,2.58,7.99,6.54.08,4.14-2.98,6.8-8.08,6.81-18.7.04-37.4.01-56.1.02Z"/>
    <path class="cls-1" d="m204.49,54.21c.01,12.55-10.07,22.66-22.53,22.61-12.37-.06-22.68-10.46-22.54-22.75.14-12.32,10.15-22.25,22.49-22.32,12.59-.07,22.56,9.85,22.58,22.46Zm-22.5,9.59c5.31.03,9.51-4.05,9.61-9.33.11-5.47-4.07-9.78-9.51-9.8-5.33-.02-9.5,4.03-9.61,9.33-.12,5.48,4.05,9.77,9.51,9.8Z"/>
    <path class="cls-1" d="m172.34,255.72c-9.47,0-18.94.02-28.4-.01-1.61,0-3.26-.03-4.83-.35-3.24-.64-4.98-2.92-5.13-6.05-.15-2.99,1.36-5.29,4.29-6.33,1.14-.4,2.43-.56,3.65-.56,20.31-.03,40.61-.03,60.92-.02.87,0,1.76,0,2.6.16,3.27.66,5.6,3.47,5.55,6.59-.05,3.21-2.33,5.79-5.76,6.32-1.47.23-2.98.24-4.47.24-9.47.02-18.94.01-28.4,0Z"/>
  </g>
</svg>
