<svg xmlns="http://www.w3.org/2000/svg" viewBox="0 0 20.01 23.97" xmlns:v="https://vecta.io/nano"><path d="M19.28 18.93c-.39-.63-.28-2.02-1.23-2.27.95-2.53-.9-5.52-2.38-7.17-2.58-2.23-.73-5.59-2.45-8.28-.9-1.67-4.8-1.56-5.75 0-1.15 1.52-.61 4.04-.65 5.09.01 1.63-.98 2.97-2.08 4.32-1.07 1.52-2.21 3.53-2.05 5.48.04.19.04.21-.08.36-.27.27-.46.6-.67.84-.49.43-1.33.37-1.68 1.08-.37.63.13 1.55-.04 2.11-.44 1.17-.24 1.8.84 2.09.82.2 1.93.13 2.81.6.93.46 1.89.67 2.64.47.54-.12.99-.47 1.23-.95.67-.02 1.23-.26 2.28-.33.87-.05 1.65.27 2.61.2.66 2.07 3.1 1.61 4.31.1 1.12-1.39 4.55-1.49 2.34-3.74zM9.86 4.89c.03-2.12 2.34-1.8 2.41-.11 0 0 0 .15-.01.08-.01.35-.11.76-.37 1.02-.21-.08-.38-.2-.6-.24.31-.23.34-.67.21-1.02-.07-.2-.23-.47-.47-.47-.46.08-.61.75-.54 1.16-.24-.13-.69-.08-.63-.42zm-2.52-.71c.43-1.47 1.8-.44 1.66.7 0 .06-.02.12 0 .18-.31.05-.53.42-.48-.06-.3-1.55-1.25 0-.54.69-.51.75-.89-1.08-.63-1.51zm.11 2.11c.75-.41 1.02-1.14 1.99-1.14a2 2 0 0 1 1.22.4c.29.26 1.3.41 1.56.87v-.14c.21.63-.36 1.03-1.06 1.32-.61.31-1.03.76-1.81.73-.6.05-.92-.45-1.4-.73-.61-.38-1.01-.89-.5-1.31zm.16 15.65c-.24 1.77-2.17 1.53-3.57.84-1.43-.99-4.47.27-3.49-2.24.22-.6-.27-1.53.02-2.06.35-.66 1.11-.52 1.62-1 .43-.44.67-1.16 1.35-1.18 1.02-.09 1.68 1.73 2.12 2.43.41.88 1.99 2.2 1.95 3.21zm3.29-.63c-1.47.39-3.21-.08-4.06-1.45.95.03 1.05-.79.44-1.57-.37-.67-1.9-1.45-2.57-2.19-1.23-1.57 0-3.74.88-5.13-.22.91-1.91 3.1-.54 4.83.01-2.87 2.34-5.31 2.51-8.15 1.42 1.22 2.04 1.32 3.64.34.47-.12.85-.4 1.07-.7.63 2.83 2.32 4.87 2.87 7.5.51.11.64-.03.68-.57.19-1.39-.69-2.75-1.19-3.26-.18-.12-.37-.43-.2-.41 1.04.94 2.1 2.82 1.69 4.43 1 .39 1.71 1 1.45 1.6.04-.08-.18-.03-.2-.04.15-.47-.18-.83-1.08-1.22-.92-.4-1.66-.34-1.79.46.01.13-.1.19-.23.2-2.01 1.61.35 4.84-3.37 5.33zm8.3-.51c-.63.4-1.76.71-2.48 1.57-1.06 1.24-2.8 1.82-3.66.29-.44-.93.49-2.63.53-3.59.09-1.1-.02-2.28.89-2.82.07 1.77 1.79 1.66 2.7.61h.21c1.32-.19 1.12 1.5 1.67 2.21.72.85.97 1.23.14 1.74z"/><path d="M13.47 17.17c.15-.57.44-1.1 1.01-1.25l.02-.14c.03-1.5 3.31-.19 2.87.76h.2v.04c.18-.6-.2-1-1.25-1.53-.39-.16.07-1.27-.23-1.74-.3-1.18-.96-2.1-1.66-2.76-.11 0-.1.14.12.34.58.55 1.44 1.88 1.27 3.33-.58 2.1-1.19-1.76-1.74-2.34-.59-1.06-1.43-3.1-1.81-4.59-.22.3-.59.57-1.06.7-1.65.98-2.2.89-3.65-.34-.17 2.84-2.5 5.27-2.51 8.15-1.03-1.36-.28-3.11.12-3.86l.03-.06c.42-.79.49-.98.39-.91-.51.79-1.06 1.76-1.29 2.76-1.09 2.98 3.52 3.41 3.33 5.73-.12.32-.44.4-.79.4.85 1.37 2.59 1.84 4.06 1.45 2.68-.41 2.24-2.16 2.57-4.14z" fill="#fff"/><path d="M9.99,5.77c.38-.05-.11-.32-.28-.2-.1.12.15.14.28.2Z"/><path d="M10.49 5.31c-.19-.71.62-1.77 1.01-.69.13.35.1.79-.21 1.02.22.04.39.16.6.24.26-.26.36-.67.37-1.02.02.07 0-.08.01-.08.03-1.07-1.55-2.16-2.26-.66-.25.6-.28 1.1.48 1.19zm-2.8.61c.13-.04.2-.13.31-.21-.17-.12-.26-.42-.28-.64-.06-.9.71-1 .79-.07-.05.48.17.11.48.06.04-.55-.07-1.12-.5-1.48-1.3-.67-1.57 1.68-.8 2.34z" fill="#fff"/><path d="M5.67 18.73c-.51-.85-1.53-3.37-2.8-2.1-.23.24-.44.57-.68.85-.51.48-1.27.34-1.62 1-.29.53.2 1.46-.02 2.06-.24.63-.24 1.03-.13 1.23.84.85 2.37.22 3.62 1.01 1.4.7 3.34.93 3.57-.84.05-1.01-1.55-2.31-1.94-3.21zM18.65 18c-.12-.82-.69-1.29-1.47-1.14-1.13 1.15-2.46 1.1-2.75-.59-1.27 1.07-.54 3.15-1.31 4.7-.53 1.36.15 2.72 1.54 2.59.67-.05 1.43-.45 2.06-1.19.72-.86 1.85-1.17 2.48-1.57 1.4-.7-.55-1.67-.55-2.8zM7.95 7.6c.7.64 1.58 1.02 2.42.46.66-.48 2.17-.82 1.85-1.78v.14c-.26-.46-1.27-.61-1.56-.87-.67-.45-1.11-.45-1.7-.34-.54.19-.66.49-1.02.74-.83.42-1.03 1.03 0 1.65zm1.74-1.98c.04-.15.44-.07.44.09-.05.1-.2.05-.28 0-.06-.02-.17 0-.16-.09zm-.86-.05c.08-.03.28-.06.29.05.03.08-.13.06-.3.16-.2.01-.15-.2 0-.21zm-1.3 1.06c1.17 1.36 2.45 1.2 3.81.06.23-.34.56-.37.14.07-.92.74-2.48 1.45-3.5.53-.2-.21-.65-.43-.45-.66z" fill="#f9c105"/><path d="M7.98 7.29c.73.68 2.02.48 2.8-.06.22-.16 1.06-.6.85-.8-.62.53-1.46 1.19-2.36 1.2-.81-.01-1.28-.59-1.74-1-.2.23.25.45.45.66zm.98-1.58c.33-.04.08-.24-.13-.14-.3.07-.06.33.13.14z"/></svg>
