<?xml version="1.0" encoding="UTF-8"?>
<svg id="Layer_2" data-name="Layer 2" xmlns="http://www.w3.org/2000/svg" viewBox="0 0 552.99 267.6">
  <defs>
    <style>
      .cls-1 {
        fill: #fff;
      }
    </style>
  </defs>
  <g id="Layer_1-2" data-name="Layer 1">
    <path d="M246.11.6c83.06-3.9,207.29,10.43,271.73,67.68,59.49,52.85,37.73,109.28-22.61,147.44-110.89,70.13-340.45,70.49-447.81-7.02C-22.38,158.29-11.81,95.39,57.4,51.89,109.92,18.88,184.56,3.49,246.11.6ZM258.11,8.6C185.02,11.25,77.74,31.33,27.81,89.29c-36.16,41.97-14.29,82.91,24.79,111.24,104.98,76.08,330.53,75.88,438.64,6.19,63.84-41.15,72.13-95.05,7.4-141.23C435.62,20.53,334.07,5.84,258.11,8.6Z"/>
    <path class="cls-1" d="M258.11,8.6c75.95-2.75,177.51,11.94,240.52,56.89,64.73,46.18,56.44,100.08-7.4,141.23-108.11,69.68-333.66,69.89-438.64-6.19-39.08-28.32-60.95-69.26-24.79-111.24C77.74,31.33,185.02,11.25,258.11,8.6ZM252.11,16.6c-66.91,2.64-201.29,28.63-230.97,98.03C.99,161.77,61.82,200.79,97.96,217.16c104.78,47.46,276.24,46.31,377.38-10.34,42.54-23.83,84.03-64.16,43.95-111.99C464.54,29.5,332.03,13.45,252.11,16.6Z"/>
    <path d="M252.11,16.6c79.92-3.15,212.43,12.91,267.18,78.24,40.08,47.83-1.41,88.16-43.95,111.99-101.14,56.65-272.6,57.8-377.38,10.34C61.82,200.79.99,161.77,21.15,114.63,50.82,45.22,185.2,19.24,252.11,16.6ZM408.32,189.3h18l17.68-28.86,11.31-.14c1.62,10.44-10.64,17.21-4.85,27.36,4.66,8.18,17.77,1.64,23.78-1.94,5.32-3.18,19.37-14.28,21.06-19.94.39-1.29-.2-1.96-1.47-1.47-7.4,2.89-17.43,20.02-28.51,19.98.47-8.17,8.12-13.35,3.76-22.27-.97-1.99-4.77-4.22-4.38-5.78l13.12-14.94c2.43-1.01,1.12,4.95,2.01,6.97,4.06,9.2,19.92-3,11.5-12.5-6.41-7.23-16.74,1.56-21.53,6.51-1.82,1.88-3.12,4.95-4.85,6.65-4.07,4.01-9.93,6.03-15.64,5.35l36.99-61.99h-16.5c-2.38,0-26.63,31.91-30.53,36.47-11.05,12.95-41.03,50.16-56.16,53.84-4.14,1.01-9.07,1.51-12.84-.79-5.01-5.08,7.18-25.18,10.61-30.44,1.67-2.56,10.85-16.29,14.41-13.08-11.74,22.08,20.42,19.38,11.05.45-5.46-11.02-25.98-4.12-34.35.75-12.63,7.35-18.9,17.62-28.65,27.35-2.28,2.28-14.59,13.5-16.6,13.46l-2.4-1.57,22.96-45.43h-14.5c-.85,0-5.74,7.21-5.51,9-2.93.48-2.67-2.86-3.99-4.5-1.84-2.27-4.56-4.97-7.56-5.44-28.38-4.51-48.31,30.39-67.96,44.92-1.64,1.22-10.09,7.44-11.48,6.02-.85-9.19,2.19-18.03,6.48-26.01l40.52-64.98h-16.5c-14.08,21.03-28.96,41.66-47.49,59,0-13.74-2.71-26.93-16.38-32.92l-.62-2.07c29.66-7.76,44.08-44.28,12.02-60.52,0-.78,6.03-3.53,7.33-4.65,1.07-.93,2.42-1,.67-2.36-4.98-2.78-12.71,3.91-17.47,4.56-5.02.69-9.52-1-14-1.08-30.16-.55-59,1.03-84.85,18.23-10.62,7.07-29.9,25.66-28.59,39.2,2.48,25.64,38.48,23.42,53.42,10.64,8.88-7.6,16.58-25.97,16.57-37.52,0-4.34-1.92-8.89-1.1-13.5l-4.17,6.31c-7.31,15.64-19.23,41.71-37.38,46.62-26.5,7.18-23.76-21.45-10.09-35.59,19.9-20.58,58.29-30.08,86.14-28.34,2.03.13,12.51,1.18,12.49,2.49-24.02,17.6-43.94,42.69-58.15,68.83-8.83,16.24-15.93,44.38-33.83,52.17-13.91,6.06-34.24,2.55-39-13.49,10.52-1.31,23.53-3.76,19.05-17.57-4.82-14.86-24.73-3.95-26.82,6.29-5.18,25.29,22.21,33.89,42.26,32.26,70.24-5.74,62.87-82.13,99-120,1.45-1.52,8.41-8.16,9.87-7.92,17.95,17.07,7.99,39.02-9.99,50.87-6.06-6.1-22.3-3.11-19.18,7.35,1.87,6.28,12.01.48,14.18.9,7.22,1.42,7.27,16.8,6.64,22.31-.93,8.1-11.98,26.29-17.96,32.04-9.16,8.82-24.51,14.07-21.95-4.96,1.31-9.69,10.85-13.76,14.91-21.58-23.05,7.17-29.52,44.29,3.49,40.98,18.9-1.89,26.11-13.67,37.48-25.52,5.81-6.06,11.84-12.35,18.52-17.48l-8.98,18.02c-2.88,7.89-5.92,21.03,4.65,24.33,18.66,5.81,31.98-19.84,44.83-28.34-6.58,13.14-6.2,30.17,12.54,29.05,10.02-.6,16.74-10.48,24.96-15.06-4.3,23.52,15.71,15.3,26.52,5.52,6.42-5.8,10.51-13.73,17.98-18.51-2.81,9.56-4.58,22.18,6.71,26.8,26.91,11,54.14-26.41,70.27-43.32,2.12-2.23,4.67-5.26,7.52-6.48l-30.49,51.01Z"/>
    <path class="cls-1" d="M408.32,189.3l30.49-51.01c-2.84,1.22-5.39,4.26-7.52,6.48-16.13,16.91-43.36,54.32-70.27,43.32-11.29-4.62-9.52-17.23-6.71-26.8-7.46,4.78-11.55,12.71-17.98,18.51-10.82,9.77-30.82,18-26.52-5.52-8.22,4.58-14.95,14.46-24.96,15.06-18.74,1.12-19.12-15.91-12.54-29.05-12.85,8.49-26.17,34.15-44.83,28.34-10.57-3.29-7.53-16.43-4.65-24.33l8.98-18.02c-6.68,5.13-12.7,11.43-18.52,17.48-11.37,11.85-18.58,23.62-37.48,25.52-33.02,3.31-26.54-33.81-3.49-40.98-4.06,7.82-13.6,11.88-14.91,21.58-2.56,19.02,12.78,13.77,21.95,4.96,5.98-5.75,17.04-23.94,17.96-32.04.63-5.51.58-20.88-6.64-22.31-2.17-.43-12.31,5.38-14.18-.9-3.11-10.46,13.13-13.45,19.18-7.35,17.97-11.85,27.94-33.8,9.99-50.87-1.47-.24-8.42,6.4-9.87,7.92-36.13,37.87-28.76,114.26-99,120-20.05,1.64-47.43-6.97-42.26-32.26,2.1-10.24,22.01-21.15,26.82-6.29,4.48,13.81-8.53,16.27-19.05,17.57,4.76,16.04,25.09,19.55,39,13.49,17.89-7.79,24.99-35.93,33.83-52.17,14.22-26.14,34.13-51.23,58.15-68.83.02-1.31-10.46-2.36-12.49-2.49-27.85-1.74-66.24,7.76-86.14,28.34-13.67,14.14-16.41,42.77,10.09,35.59,18.15-4.92,30.06-30.98,37.38-46.62l4.17-6.31c-.81,4.61,1.1,9.15,1.1,13.5.01,11.55-7.69,29.92-16.57,37.52-14.94,12.79-50.94,15.01-53.42-10.64-1.31-13.54,17.97-32.13,28.59-39.2,25.85-17.21,54.69-18.78,84.85-18.23,4.48.08,8.99,1.77,14,1.08,4.76-.65,12.49-7.34,17.47-4.56,1.75,1.36.4,1.44-.67,2.36-1.3,1.13-7.33,3.87-7.33,4.65,32.06,16.23,17.65,52.76-12.02,60.52l.62,2.07c13.67,5.98,16.38,19.18,16.38,32.92,18.53-17.34,33.41-37.97,47.49-59h16.5l-40.52,64.98c-4.28,7.98-7.33,16.82-6.48,26.01,1.39,1.42,9.83-4.8,11.48-6.02,19.66-14.53,39.58-49.44,67.96-44.92,2.99.48,5.71,3.17,7.56,5.44,1.32,1.63,1.06,4.98,3.99,4.5-.23-1.79,4.67-9,5.51-9h14.5l-22.96,45.43,2.4,1.57c2.01.04,14.32-11.18,16.6-13.46,9.75-9.73,16.03-20,28.65-27.35,8.37-4.87,28.89-11.77,34.35-.75,9.37,18.93-22.79,21.63-11.05-.45-3.56-3.21-12.74,10.52-14.41,13.08-3.43,5.26-15.62,25.37-10.61,30.44,3.78,2.3,8.7,1.8,12.84.79,15.13-3.68,45.1-40.89,56.16-53.84,3.9-4.57,28.15-36.47,30.53-36.47h16.5l-36.99,61.99c5.71.68,11.56-1.34,15.64-5.35,1.73-1.7,3.03-4.77,4.85-6.65,4.8-4.96,15.12-13.75,21.53-6.51,8.42,9.5-7.44,21.7-11.5,12.5-.89-2.02.42-7.98-2.01-6.97l-13.12,14.94c-.39,1.56,3.41,3.79,4.38,5.78,4.36,8.92-3.29,14.1-3.76,22.27,11.08.04,21.11-17.09,28.51-19.98,1.26-.49,1.85.18,1.47,1.47-1.69,5.66-15.74,16.76-21.06,19.94-6.01,3.58-19.12,10.12-23.78,1.94-5.78-10.16,6.47-16.93,4.85-27.36l-11.31.14-17.68,28.86h-18ZM315.86,138.69c-9.9-1.4-28.24,25.85-30.09,34.55-.57,2.7-1.25,6.28.54,8.59,4.69,5.35,18.5-10.01,21.53-13.51,5.96-6.88,18.94-22.4,8.02-29.63Z"/>
    <path d="M315.86,138.69c10.92,7.22-2.06,22.75-8.02,29.63-3.03,3.5-16.84,18.86-21.53,13.51-1.79-2.31-1.11-5.89-.54-8.59,1.85-8.7,20.19-35.95,30.09-34.55Z"/>
  </g>
</svg>
