<?xml version="1.0" encoding="UTF-8"?>
<svg data-name="Layer 2" viewBox="0 0 180.87 179.95" xmlns="http://www.w3.org/2000/svg">
<defs>
<style>.cls-1 {
        fill: #2a6db2;
      }

      .cls-1, .cls-2 {
        stroke: #000;
        stroke-miterlimit: 10;
        stroke-width: 4px;
      }

      .cls-2 {
        fill: #505050;
      }</style>
</defs>
<path class="cls-1" d="M89.8,2c-44.9,0-42.1,19.47-42.1,19.47l.05,20.17h42.85v6.06H30.73S2,44.44,2,89.75s25.08,43.7,25.08,43.7h14.97v-21.02s-.81-25.08,24.68-25.08h42.5s23.88.39,23.88-23.08V25.48s3.63-23.48-43.3-23.48h0ZM66.17,15.56c4.26,0,7.71,3.45,7.71,7.71s-3.45,7.71-7.71,7.71-7.71-3.45-7.71-7.71,3.45-7.71,7.71-7.71Z"/>
<path class="cls-2" d="m91.07 177.95c44.9 0 42.1-19.47 42.1-19.47l-0.05-20.17h-42.85v-6.06h59.87s28.73 3.26 28.73-42.05c0-45.3-25.08-43.7-25.08-43.7h-14.97v21.02s0.81 25.08-24.68 25.08h-42.5s-23.88-0.39-23.88 23.08v38.79s-3.63 23.48 43.3 23.48zm23.63-13.57c-4.26 0-7.71-3.45-7.71-7.71s3.45-7.71 7.71-7.71 7.71 3.45 7.71 7.71-3.45 7.71-7.71 7.71z"/>
</svg>
