<?xml version="1.0" encoding="UTF-8"?>
<svg viewBox="0 0 65.812 58" xmlns="http://www.w3.org/2000/svg">
<g stroke="#ccc" stroke-linejoin="bevel" stroke-width=".072694">
<path transform="translate(564.38 -156.01) scale(2.9273)" d="m-186.33 59.726 3.185 1.16v3.742l-3.185-1.159z" color-rendering="auto" fill="#e9e9ff" image-rendering="auto" shape-rendering="auto" style="isolation:auto;mix-blend-mode:normal"/>
<path transform="translate(564.38 -156.01) scale(2.9273)" d="m-189.56 60.903v3.743l3.231-1.177v-3.743z" color-rendering="auto" fill="#353564" image-rendering="auto" shape-rendering="auto" style="isolation:auto;mix-blend-mode:normal"/>
<path transform="translate(564.38 -156.01) scale(2.9273)" d="m-189.56 64.646 3.184 1.159 3.232-1.177-3.185-1.159z" color-rendering="auto" fill="#afafde" image-rendering="auto" shape-rendering="auto" style="isolation:auto;mix-blend-mode:normal"/>
<path transform="translate(564.38 -156.01) scale(2.9273)" d="m-189.56 60.903 3.184 1.159 3.232-1.177-3.185-1.159z" fill="#f7f7f4"/>
<path transform="translate(564.38 -156.01) scale(2.9273)" d="m-186.38 62.062v3.743l3.232-1.177v-3.743z" fill="#fff"/>
<path transform="translate(564.38 -156.01) scale(2.9273)" d="m-189.56 60.903 3.184 1.159v3.743l-3.185-1.16z" fill="#efeeea"/>
</g>
<g stroke="#ccc" stroke-linejoin="bevel" stroke-width=".072694">
<path transform="translate(573.74 -163.67) scale(2.9273)" d="m-186.33 59.726 3.185 1.16v3.742l-3.185-1.159z" color-rendering="auto" fill="#e9e9ff" image-rendering="auto" shape-rendering="auto" style="isolation:auto;mix-blend-mode:normal"/>
<path transform="translate(573.74 -163.67) scale(2.9273)" d="m-189.56 60.903v3.743l3.231-1.177v-3.743z" color-rendering="auto" fill="#353564" image-rendering="auto" shape-rendering="auto" style="isolation:auto;mix-blend-mode:normal"/>
<path transform="translate(573.74 -163.67) scale(2.9273)" d="m-189.56 64.646 3.184 1.159 3.232-1.177-3.185-1.159z" color-rendering="auto" fill="#afafde" image-rendering="auto" shape-rendering="auto" style="isolation:auto;mix-blend-mode:normal"/>
<path transform="translate(573.74 -163.67) scale(2.9273)" d="m-189.56 60.903 3.184 1.159 3.232-1.177-3.185-1.159z" fill="#f7f7f4"/>
<path transform="translate(573.74 -163.67) scale(2.9273)" d="m-186.38 62.062v3.743l3.232-1.177v-3.743z" fill="#fff"/>
<path transform="translate(573.74 -163.67) scale(2.9273)" d="m-189.56 60.903 3.184 1.159v3.743l-3.185-1.16z" fill="#efeeea"/>
</g>
<g stroke="#ccc" stroke-linejoin="bevel" stroke-width=".072694">
<path transform="translate(555.01 -141.54) scale(2.9273)" d="m-186.33 59.726 3.185 1.16v3.742l-3.185-1.159z" color-rendering="auto" fill="#e9e9ff" image-rendering="auto" shape-rendering="auto" style="isolation:auto;mix-blend-mode:normal"/>
<path transform="translate(555.01 -141.54) scale(2.9273)" d="m-189.56 60.903v3.743l3.231-1.177v-3.743z" color-rendering="auto" fill="#353564" image-rendering="auto" shape-rendering="auto" style="isolation:auto;mix-blend-mode:normal"/>
<path transform="translate(555.01 -141.54) scale(2.9273)" d="m-189.56 64.646 3.184 1.159 3.232-1.177-3.185-1.159z" color-rendering="auto" fill="#afafde" image-rendering="auto" shape-rendering="auto" style="isolation:auto;mix-blend-mode:normal"/>
<path transform="translate(555.01 -141.54) scale(2.9273)" d="m-189.56 60.903 3.184 1.159 3.232-1.177-3.185-1.159z" fill="#f7f7f4"/>
<path transform="translate(555.01 -141.54) scale(2.9273)" d="m-186.38 62.062v3.743l3.232-1.177v-3.743z" fill="#fff"/>
<path transform="translate(555.01 -141.54) scale(2.9273)" d="m-189.56 60.903 3.184 1.159v3.743l-3.185-1.16z" fill="#efeeea"/>
</g>
<g stroke="#ccc" stroke-linejoin="bevel" stroke-width=".072694">
<path transform="translate(564.38 -138.14) scale(2.9273)" d="m-186.33 59.726 3.185 1.16v3.742l-3.185-1.159z" color-rendering="auto" fill="#e9e9ff" image-rendering="auto" shape-rendering="auto" style="isolation:auto;mix-blend-mode:normal"/>
<path transform="translate(564.38 -138.14) scale(2.9273)" d="m-189.56 60.903v3.743l3.231-1.177v-3.743z" color-rendering="auto" fill="#353564" image-rendering="auto" shape-rendering="auto" style="isolation:auto;mix-blend-mode:normal"/>
<path transform="translate(564.38 -138.14) scale(2.9273)" d="m-189.56 64.646 3.184 1.159 3.232-1.177-3.185-1.159z" color-rendering="auto" fill="#afafde" image-rendering="auto" shape-rendering="auto" style="isolation:auto;mix-blend-mode:normal"/>
<path transform="translate(564.38 -138.14) scale(2.9273)" d="m-189.56 60.903 3.184 1.159 3.232-1.177-3.185-1.159z" fill="#f7f7f4"/>
<path transform="translate(564.38 -138.14) scale(2.9273)" d="m-186.38 62.062v3.743l3.232-1.177v-3.743z" fill="#fff"/>
<path transform="translate(564.38 -138.14) scale(2.9273)" d="m-189.56 60.903 3.184 1.159v3.743l-3.185-1.16z" fill="#efeeea"/>
</g>
<g stroke="#ccc" stroke-linejoin="bevel" stroke-width=".072694">
<path transform="translate(564.38 -149.2) scale(2.9273)" d="m-186.33 59.726 3.185 1.16v3.742l-3.185-1.159z" color-rendering="auto" fill="#e9e9ff" image-rendering="auto" shape-rendering="auto" style="isolation:auto;mix-blend-mode:normal"/>
<path transform="translate(564.38 -149.2) scale(2.9273)" d="m-189.56 60.903v3.743l3.231-1.177v-3.743z" color-rendering="auto" fill="#353564" image-rendering="auto" shape-rendering="auto" style="isolation:auto;mix-blend-mode:normal"/>
<path transform="translate(564.38 -149.2) scale(2.9273)" d="m-189.56 64.646 3.184 1.159 3.232-1.177-3.185-1.159z" color-rendering="auto" fill="#afafde" image-rendering="auto" shape-rendering="auto" style="isolation:auto;mix-blend-mode:normal"/>
<path transform="translate(564.38 -149.2) scale(2.9273)" d="m-189.56 60.903 3.184 1.159 3.232-1.177-3.185-1.159z" fill="#f7f7f4"/>
<path transform="translate(564.38 -149.2) scale(2.9273)" d="m-186.38 62.062v3.743l3.232-1.177v-3.743z" fill="#fff"/>
<path transform="translate(564.38 -149.2) scale(2.9273)" d="m-189.56 60.903 3.184 1.159v3.743l-3.185-1.16z" fill="#efeeea"/>
</g>
<g stroke="#ccc" stroke-linejoin="bevel" stroke-width=".072694">
<path transform="translate(601.83 -144.95) scale(2.9273)" d="m-186.33 59.726 3.185 1.16v3.742l-3.185-1.159z" color-rendering="auto" fill="#e9e9ff" image-rendering="auto" shape-rendering="auto" style="isolation:auto;mix-blend-mode:normal"/>
<path transform="translate(601.83 -144.95) scale(2.9273)" d="m-189.56 60.903v3.743l3.231-1.177v-3.743z" color-rendering="auto" fill="#353564" image-rendering="auto" shape-rendering="auto" style="isolation:auto;mix-blend-mode:normal"/>
<path transform="translate(601.83 -144.95) scale(2.9273)" d="m-189.56 64.646 3.184 1.159 3.232-1.177-3.185-1.159z" color-rendering="auto" fill="#afafde" image-rendering="auto" shape-rendering="auto" style="isolation:auto;mix-blend-mode:normal"/>
<path transform="translate(601.83 -144.95) scale(2.9273)" d="m-189.56 60.903 3.184 1.159 3.232-1.177-3.185-1.159z" fill="#f7f7f4"/>
<path transform="translate(601.83 -144.95) scale(2.9273)" d="m-186.38 62.062v3.743l3.232-1.177v-3.743z" fill="#fff"/>
<path transform="translate(601.83 -144.95) scale(2.9273)" d="m-189.56 60.903 3.184 1.159v3.743l-3.185-1.16z" fill="#efeeea"/>
</g>
<g transform="translate(-1683.7 -513.28) scale(.65177)">
<g stroke="#ccc" stroke-linejoin="bevel" stroke-width=".072694">
<path transform="translate(3492.2 570.34) scale(4.4914)" d="m-186.33 59.726 3.185 1.16v3.742l-3.185-1.159z" color-rendering="auto" fill="#e9e9ff" image-rendering="auto" shape-rendering="auto" style="isolation:auto;mix-blend-mode:normal"/>
<path transform="translate(3492.2 570.34) scale(4.4914)" d="m-189.56 60.903v3.743l3.231-1.177v-3.743z" color-rendering="auto" fill="#353564" image-rendering="auto" shape-rendering="auto" style="isolation:auto;mix-blend-mode:normal"/>
<path transform="translate(3492.2 570.34) scale(4.4914)" d="m-189.56 64.646 3.184 1.159 3.232-1.177-3.185-1.159z" color-rendering="auto" fill="#afafde" image-rendering="auto" shape-rendering="auto" style="isolation:auto;mix-blend-mode:normal"/>
<path transform="translate(3492.2 570.34) scale(4.4914)" d="m-189.56 60.903 3.184 1.159 3.232-1.177-3.185-1.159z" fill="#f7f7f4"/>
<path transform="translate(3492.2 570.34) scale(4.4914)" d="m-186.38 62.062v3.743l3.232-1.177v-3.743z" fill="#ffd242"/>
<path transform="translate(3492.2 570.34) scale(4.4914)" d="m-189.56 60.903 3.184 1.159v3.743l-3.185-1.16z" fill="#efeeea"/>
</g>
<circle transform="skewY(-20) scale(.9397 1)" cx="2835.2" cy="1823.9" r="2.967" fill="#fff"/>
</g>
<g stroke="#ccc" stroke-linejoin="bevel" stroke-width=".072694">
<path transform="translate(583.1 -138.14) scale(2.9273)" d="m-186.33 59.726 3.185 1.16v3.742l-3.185-1.159z" color-rendering="auto" fill="#e9e9ff" image-rendering="auto" shape-rendering="auto" style="isolation:auto;mix-blend-mode:normal"/>
<path transform="translate(583.1 -138.14) scale(2.9273)" d="m-189.56 60.903v3.743l3.231-1.177v-3.743z" color-rendering="auto" fill="#353564" image-rendering="auto" shape-rendering="auto" style="isolation:auto;mix-blend-mode:normal"/>
<path transform="translate(583.1 -138.14) scale(2.9273)" d="m-189.56 64.646 3.184 1.159 3.232-1.177-3.185-1.159z" color-rendering="auto" fill="#afafde" image-rendering="auto" shape-rendering="auto" style="isolation:auto;mix-blend-mode:normal"/>
<path transform="translate(583.1 -138.14) scale(2.9273)" d="m-189.56 60.903 3.184 1.159 3.232-1.177-3.185-1.159z" fill="#f7f7f4"/>
<path transform="translate(583.1 -138.14) scale(2.9273)" d="m-186.38 62.062v3.743l3.232-1.177v-3.743z" fill="#ffd242"/>
<path transform="translate(583.1 -138.14) scale(2.9273)" d="m-189.56 60.903 3.184 1.159v3.743l-3.185-1.16z" fill="#efeeea"/>
</g>
<g stroke="#ccc" stroke-linejoin="bevel" stroke-width=".072694">
<path transform="translate(573.74 -134.73) scale(2.9273)" d="m-186.33 59.726 3.185 1.16v3.742l-3.185-1.159z" color-rendering="auto" fill="#e9e9ff" image-rendering="auto" shape-rendering="auto" style="isolation:auto;mix-blend-mode:normal"/>
<path transform="translate(573.74 -134.73) scale(2.9273)" d="m-189.56 60.903v3.743l3.231-1.177v-3.743z" color-rendering="auto" fill="#353564" image-rendering="auto" shape-rendering="auto" style="isolation:auto;mix-blend-mode:normal"/>
<path transform="translate(573.74 -134.73) scale(2.9273)" d="m-189.56 64.646 3.184 1.159 3.232-1.177-3.185-1.159z" color-rendering="auto" fill="#afafde" image-rendering="auto" shape-rendering="auto" style="isolation:auto;mix-blend-mode:normal"/>
<path transform="translate(573.74 -134.73) scale(2.9273)" d="m-189.56 60.903 3.184 1.159 3.232-1.177-3.185-1.159z" fill="#f7f7f4"/>
<path transform="translate(573.74 -134.73) scale(2.9273)" d="m-186.38 62.062v3.743l3.232-1.177v-3.743z" fill="#fff"/>
<path transform="translate(573.74 -134.73) scale(2.9273)" d="m-189.56 60.903 3.184 1.159v3.743l-3.185-1.16z" fill="#efeeea"/>
</g>
<g stroke="#ccc" stroke-linejoin="bevel" stroke-width=".072694">
<path transform="translate(601.83 -156.01) scale(2.9273)" d="m-186.33 59.726 3.185 1.16v3.742l-3.185-1.159z" color-rendering="auto" fill="#e9e9ff" image-rendering="auto" shape-rendering="auto" style="isolation:auto;mix-blend-mode:normal"/>
<path transform="translate(601.83 -156.01) scale(2.9273)" d="m-189.56 60.903v3.743l3.231-1.177v-3.743z" color-rendering="auto" fill="#353564" image-rendering="auto" shape-rendering="auto" style="isolation:auto;mix-blend-mode:normal"/>
<path transform="translate(601.83 -156.01) scale(2.9273)" d="m-189.56 64.646 3.184 1.159 3.232-1.177-3.185-1.159z" color-rendering="auto" fill="#afafde" image-rendering="auto" shape-rendering="auto" style="isolation:auto;mix-blend-mode:normal"/>
<path transform="translate(601.83 -156.01) scale(2.9273)" d="m-189.56 60.903 3.184 1.159 3.232-1.177-3.185-1.159z" fill="#f7f7f4"/>
<path transform="translate(601.83 -156.01) scale(2.9273)" d="m-186.38 62.062v3.743l3.232-1.177v-3.743z" fill="#ffd242"/>
<path transform="translate(601.83 -156.01) scale(2.9273)" d="m-189.56 60.903 3.184 1.159v3.743l-3.185-1.16z" fill="#efeeea"/>
</g>
<g stroke="#ccc" stroke-linejoin="bevel" stroke-width=".072694">
<path transform="translate(601.83 -167.08) scale(2.9273)" d="m-186.33 59.726 3.185 1.16v3.742l-3.185-1.159z" color-rendering="auto" fill="#e9e9ff" image-rendering="auto" shape-rendering="auto" style="isolation:auto;mix-blend-mode:normal"/>
<path transform="translate(601.83 -167.08) scale(2.9273)" d="m-189.56 60.903v3.743l3.231-1.177v-3.743z" color-rendering="auto" fill="#353564" image-rendering="auto" shape-rendering="auto" style="isolation:auto;mix-blend-mode:normal"/>
<path transform="translate(601.83 -167.08) scale(2.9273)" d="m-189.56 64.646 3.184 1.159 3.232-1.177-3.185-1.159z" color-rendering="auto" fill="#afafde" image-rendering="auto" shape-rendering="auto" style="isolation:auto;mix-blend-mode:normal"/>
<path transform="translate(601.83 -167.08) scale(2.9273)" d="m-189.56 60.903 3.184 1.159 3.232-1.177-3.185-1.159z" fill="#ffc91d"/>
<path transform="translate(601.83 -167.08) scale(2.9273)" d="m-186.38 62.062v3.743l3.232-1.177v-3.743z" fill="#ffd242"/>
<path transform="translate(601.83 -167.08) scale(2.9273)" d="m-189.56 60.903 3.184 1.159v3.743l-3.185-1.16z" fill="#efeeea"/>
</g>
<g stroke="#ccc" stroke-linejoin="bevel" stroke-width=".072694">
<path transform="translate(592.47 -152.61) scale(2.9273)" d="m-186.33 59.726 3.185 1.16v3.742l-3.185-1.159z" color-rendering="auto" fill="#e9e9ff" image-rendering="auto" shape-rendering="auto" style="isolation:auto;mix-blend-mode:normal"/>
<path transform="translate(592.47 -152.61) scale(2.9273)" d="m-189.56 60.903v3.743l3.231-1.177v-3.743z" color-rendering="auto" fill="#353564" image-rendering="auto" shape-rendering="auto" style="isolation:auto;mix-blend-mode:normal"/>
<path transform="translate(592.47 -152.61) scale(2.9273)" d="m-189.56 64.646 3.184 1.159 3.232-1.177-3.185-1.159z" color-rendering="auto" fill="#afafde" image-rendering="auto" shape-rendering="auto" style="isolation:auto;mix-blend-mode:normal"/>
<path transform="translate(592.47 -152.61) scale(2.9273)" d="m-189.56 60.903 3.184 1.159 3.232-1.177-3.185-1.159z" fill="#f7f7f4"/>
<path transform="translate(592.47 -152.61) scale(2.9273)" d="m-186.38 62.062v3.743l3.232-1.177v-3.743z" fill="#ffd242"/>
<path transform="translate(592.47 -152.61) scale(2.9273)" d="m-189.56 60.903 3.184 1.159v3.743l-3.185-1.16z" fill="#efeeea"/>
</g>
<g stroke="#ccc" stroke-linejoin="bevel" stroke-width=".072694">
<path transform="translate(592.47 -163.67) scale(2.9273)" d="m-186.33 59.726 3.185 1.16v3.742l-3.185-1.159z" color-rendering="auto" fill="#e9e9ff" image-rendering="auto" shape-rendering="auto" style="isolation:auto;mix-blend-mode:normal"/>
<path transform="translate(592.47 -163.67) scale(2.9273)" d="m-189.56 60.903v3.743l3.231-1.177v-3.743z" color-rendering="auto" fill="#353564" image-rendering="auto" shape-rendering="auto" style="isolation:auto;mix-blend-mode:normal"/>
<path transform="translate(592.47 -163.67) scale(2.9273)" d="m-189.56 64.646 3.184 1.159 3.232-1.177-3.185-1.159z" color-rendering="auto" fill="#afafde" image-rendering="auto" shape-rendering="auto" style="isolation:auto;mix-blend-mode:normal"/>
<path transform="translate(592.47 -163.67) scale(2.9273)" d="m-189.56 60.903 3.184 1.159 3.232-1.177-3.185-1.159z" fill="#f7f7f4"/>
<path transform="translate(592.47 -163.67) scale(2.9273)" d="m-186.38 62.062v3.743l3.232-1.177v-3.743z" fill="#3775a9"/>
<path transform="translate(592.47 -163.67) scale(2.9273)" d="m-189.56 60.903 3.184 1.159v3.743l-3.185-1.16z" fill="#efeeea"/>
</g>
<g stroke="#ccc" stroke-linejoin="bevel" stroke-width=".072694">
<path transform="translate(592.47 -174.74) scale(2.9273)" d="m-186.33 59.726 3.185 1.16v3.742l-3.185-1.159z" color-rendering="auto" fill="#e9e9ff" image-rendering="auto" shape-rendering="auto" style="isolation:auto;mix-blend-mode:normal"/>
<path transform="translate(592.47 -174.74) scale(2.9273)" d="m-189.56 60.903v3.743l3.231-1.177v-3.743z" color-rendering="auto" fill="#353564" image-rendering="auto" shape-rendering="auto" style="isolation:auto;mix-blend-mode:normal"/>
<path transform="translate(592.47 -174.74) scale(2.9273)" d="m-189.56 64.646 3.184 1.159 3.232-1.177-3.185-1.159z" color-rendering="auto" fill="#afafde" image-rendering="auto" shape-rendering="auto" style="isolation:auto;mix-blend-mode:normal"/>
<path transform="translate(592.47 -174.74) scale(2.9273)" d="m-189.56 60.903 3.184 1.159 3.232-1.177-3.185-1.159z" fill="#2f6491"/>
<path transform="translate(592.47 -174.74) scale(2.9273)" d="m-186.38 62.062v3.743l3.232-1.177v-3.743z" fill="#3775a9"/>
<path transform="translate(592.47 -174.74) scale(2.9273)" d="m-189.56 60.903 3.184 1.159v3.743l-3.185-1.16z" fill="#efeeea"/>
</g>
<g stroke="#ccc" stroke-linejoin="bevel" stroke-width=".072694">
<path transform="translate(583.1 -149.2) scale(2.9273)" d="m-186.33 59.726 3.185 1.16v3.742l-3.185-1.159z" color-rendering="auto" fill="#e9e9ff" image-rendering="auto" shape-rendering="auto" style="isolation:auto;mix-blend-mode:normal"/>
<path transform="translate(583.1 -149.2) scale(2.9273)" d="m-189.56 60.903v3.743l3.231-1.177v-3.743z" color-rendering="auto" fill="#353564" image-rendering="auto" shape-rendering="auto" style="isolation:auto;mix-blend-mode:normal"/>
<path transform="translate(583.1 -149.2) scale(2.9273)" d="m-189.56 64.646 3.184 1.159 3.232-1.177-3.185-1.159z" color-rendering="auto" fill="#afafde" image-rendering="auto" shape-rendering="auto" style="isolation:auto;mix-blend-mode:normal"/>
<path transform="translate(583.1 -149.2) scale(2.9273)" d="m-189.56 60.903 3.184 1.159 3.232-1.177-3.185-1.159z" fill="#f7f7f4"/>
<path transform="translate(583.1 -149.2) scale(2.9273)" d="m-186.38 62.062v3.743l3.232-1.177v-3.743z" fill="#ffd242"/>
<path transform="translate(583.1 -149.2) scale(2.9273)" d="m-189.56 60.903 3.184 1.159v3.743l-3.185-1.16z" fill="#efeeea"/>
</g>
<g stroke="#ccc" stroke-linejoin="bevel" stroke-width=".072694">
<path transform="translate(583.1 -160.27) scale(2.9273)" d="m-186.33 59.726 3.185 1.16v3.742l-3.185-1.159z" color-rendering="auto" fill="#e9e9ff" image-rendering="auto" shape-rendering="auto" style="isolation:auto;mix-blend-mode:normal"/>
<path transform="translate(583.1 -160.27) scale(2.9273)" d="m-189.56 60.903v3.743l3.231-1.177v-3.743z" color-rendering="auto" fill="#353564" image-rendering="auto" shape-rendering="auto" style="isolation:auto;mix-blend-mode:normal"/>
<path transform="translate(583.1 -160.27) scale(2.9273)" d="m-189.56 64.646 3.184 1.159 3.232-1.177-3.185-1.159z" color-rendering="auto" fill="#afafde" image-rendering="auto" shape-rendering="auto" style="isolation:auto;mix-blend-mode:normal"/>
<path transform="translate(583.1 -160.27) scale(2.9273)" d="m-189.56 60.903 3.184 1.159 3.232-1.177-3.185-1.159z" fill="#f7f7f4"/>
<path transform="translate(583.1 -160.27) scale(2.9273)" d="m-186.38 62.062v3.743l3.232-1.177v-3.743z" fill="#3775a9"/>
<path transform="translate(583.1 -160.27) scale(2.9273)" d="m-189.56 60.903 3.184 1.159v3.743l-3.185-1.16z" fill="#efeeea"/>
</g>
<g stroke="#ccc" stroke-linejoin="bevel" stroke-width=".072694">
<path transform="translate(573.74 -145.8) scale(2.9273)" d="m-186.33 59.726 3.185 1.16v3.742l-3.185-1.159z" color-rendering="auto" fill="#e9e9ff" image-rendering="auto" shape-rendering="auto" style="isolation:auto;mix-blend-mode:normal"/>
<path transform="translate(573.74 -145.8) scale(2.9273)" d="m-189.56 60.903v3.743l3.231-1.177v-3.743z" color-rendering="auto" fill="#353564" image-rendering="auto" shape-rendering="auto" style="isolation:auto;mix-blend-mode:normal"/>
<path transform="translate(573.74 -145.8) scale(2.9273)" d="m-189.56 64.646 3.184 1.159 3.232-1.177-3.185-1.159z" color-rendering="auto" fill="#afafde" image-rendering="auto" shape-rendering="auto" style="isolation:auto;mix-blend-mode:normal"/>
<path transform="translate(573.74 -145.8) scale(2.9273)" d="m-189.56 60.903 3.184 1.159 3.232-1.177-3.185-1.159z" fill="#f7f7f4"/>
<path transform="translate(573.74 -145.8) scale(2.9273)" d="m-186.38 62.062v3.743l3.232-1.177v-3.743z" fill="#3775a9"/>
<path transform="translate(573.74 -145.8) scale(2.9273)" d="m-189.56 60.903 3.184 1.159v3.743l-3.185-1.16z" fill="#2f6491"/>
</g>
<g stroke="#ccc" stroke-linejoin="bevel" stroke-width=".072694">
<path transform="translate(573.74 -156.86) scale(2.9273)" d="m-186.33 59.726 3.185 1.16v3.742l-3.185-1.159z" color-rendering="auto" fill="#e9e9ff" image-rendering="auto" shape-rendering="auto" style="isolation:auto;mix-blend-mode:normal"/>
<path transform="translate(573.74 -156.86) scale(2.9273)" d="m-189.56 60.903v3.743l3.231-1.177v-3.743z" color-rendering="auto" fill="#353564" image-rendering="auto" shape-rendering="auto" style="isolation:auto;mix-blend-mode:normal"/>
<path transform="translate(573.74 -156.86) scale(2.9273)" d="m-189.56 64.646 3.184 1.159 3.232-1.177-3.185-1.159z" color-rendering="auto" fill="#afafde" image-rendering="auto" shape-rendering="auto" style="isolation:auto;mix-blend-mode:normal"/>
<path transform="translate(573.74 -156.86) scale(2.9273)" d="m-189.56 60.903 3.184 1.159 3.232-1.177-3.185-1.159z" fill="#2f6491"/>
<path transform="translate(573.74 -156.86) scale(2.9273)" d="m-186.38 62.062v3.743l3.232-1.177v-3.743z" fill="#3775a9"/>
<path transform="translate(573.74 -156.86) scale(2.9273)" d="m-189.56 60.903 3.184 1.159v3.743l-3.185-1.16z" fill="#2f6491"/>
</g>
<g transform="translate(-1683.7 -513.28) scale(.65177)">
<g stroke="#ccc" stroke-linejoin="bevel" stroke-width=".072694">
<path transform="translate(3477.9 524.63) scale(4.4914)" d="m-186.33 59.726 3.185 1.16v3.742l-3.185-1.159z" color-rendering="auto" fill="#e9e9ff" image-rendering="auto" shape-rendering="auto" style="isolation:auto;mix-blend-mode:normal"/>
<path transform="translate(3477.9 524.63) scale(4.4914)" d="m-189.56 60.903v3.743l3.231-1.177v-3.743z" color-rendering="auto" fill="#353564" image-rendering="auto" shape-rendering="auto" style="isolation:auto;mix-blend-mode:normal"/>
<path transform="translate(3477.9 524.63) scale(4.4914)" d="m-189.56 64.646 3.184 1.159 3.232-1.177-3.185-1.159z" color-rendering="auto" fill="#afafde" image-rendering="auto" shape-rendering="auto" style="isolation:auto;mix-blend-mode:normal"/>
<path transform="translate(3477.9 524.63) scale(4.4914)" d="m-189.56 60.903 3.184 1.159 3.232-1.177-3.185-1.159z" fill="#2f6491"/>
<path transform="translate(3477.9 524.63) scale(4.4914)" d="m-186.38 62.062v3.743l3.232-1.177v-3.743z" fill="#3775a9"/>
<path transform="translate(3477.9 524.63) scale(4.4914)" d="m-189.56 60.903 3.184 1.159v3.743l-3.185-1.16z" fill="#2f6491"/>
</g>
<circle transform="skewY(-20) scale(.9397 1)" cx="2816" cy="1772.9" r="2.967" fill="#fff"/>
</g>
</svg>
