<?xml version="1.0" encoding="UTF-8"?>
<svg id="Layer_2" data-name="Layer 2" xmlns="http://www.w3.org/2000/svg" viewBox="0 0 1000 1000">
  <defs>
    <style>
      .cls-1 {
        fill: #136504;
      }

      .cls-1, .cls-2 {
        stroke-width: 0px;
      }

      .cls-2 {
        fill: #fff;
      }
    </style>
  </defs>
  <g id="Layer_1-2" data-name="Layer 1">
    <rect class="cls-2" width="1000" height="1000" rx="132.02" ry="132.02"/>
    <path class="cls-1" d="M941.35,439.6c-.3-1.15-.71-2.23-1.22-3.18-.47-.9-1.23-2.9-2.11-7.28-2.75-13.67-8.18-24.83-13.04-34.21-9.71-18.75-22.89-42.29-38.74-58.04-15.6-15.5-31.39-23.35-46.91-23.35-14.04,0-28.09,6.41-41.76,19.07-6.1,5.64-11.72,12.97-16.88,20.04-2.64,3.62-5.4,4.33-9.58,4.36-34.86.3-70.23.76-105.15,1.39-11.47.2-24.97,2.24-38.05,15.84-26.21,27.26-42.58,74.8-47.33,137.47-1.77,23.29-1.59,47.26-1.41,70.44.07,9.36.15,19.05.09,28.45-.05,7.97.02,15.98.1,23.74.06,6.71.13,13.64.11,20.4,0,.76-.02,1.39-.05,1.9-3.34.06-7,.09-11.34.09-2.96,0-5.93-.02-8.95-.03-.93,0-1.86-.01-2.8-.01-.03-.6-.06-1.21-.08-1.81-.42-8.84-.81-17.19-.94-25.37-.34-21.61-.46-43.65-.57-64.97l-.03-5.73c-.16-30.7-.3-61.41-.44-92.11-.36-79.81-.74-162.35-1.53-243.53-.28-28.65-2.31-51.3-6.21-69.25-13.94-64.07-37.12-99.67-67.02-102.96-5.83-.64-11.99-.96-18.32-.96-9.35,0-19.45.69-30.88,2.11-34.23,4.26-64.46,65.12-68.81,138.54-1.65,27.71-1.54,56.07-1.44,83.5l.03,7.69c.17,51.95.67,104.75,1.15,155.81l.25,26.46c.42,44.16.86,88.32,1.31,132.48.46,45.93.92,91.86,1.35,137.8.16,17.62.17,36.22.02,55.26-.23,29.29-6.88,34.32-13.35,35.37-6.76,1.1-13.52,1.19-20.68,1.28-1.52.01-3.03.03-4.55.06-3.05.06-6.11.16-9.16.25-4.85.15-9.85.31-14.75.31-5.35,0-10.02-.19-14.27-.58-7.1-.66-10.91-10.86-11.34-30.31-.36-15.9-.5-31.74-.59-43.76-.24-33.12-.47-66.24-.7-99.36-.34-48.68-.68-97.37-1.06-146.05l-.11-14.51c-.45-56.2-.9-114.32-1.71-171.49-.28-20.07-1.03-41.63-4.63-63.23-5.66-33.99-16.63-59.39-32.6-75.49-9.06-9.14-18.03-13.77-26.65-13.77-15.97,0-30.67,15.6-43.7,46.36-9.98,23.57-15.27,53.24-15.29,85.82-.01,27.73.12,55.91.25,83.15.07,14.5.13,29.01.18,43.51.03,8.69.02,17.39.02,26.08-.01,6.65-.01,13.29,0,19.93.05,26.44-4.58,45.06-13.75,55.34-3.06,3.43-7.55,4.17-12.3,4.96-.68.11-1.37.22-2.05.34-5.44.98-11.09,1.46-16.55,1.94-4.95.42-10.07.86-15.17,1.67-23.13,3.65-46.43,7.84-66.17,11.46-2.72.51-5.05,2.28-6.92,3.7-.68.51-1.32,1-1.89,1.37-3.41,2.16-5.33,8.37-4.48,14.44,2.81,20,11.22,21.26,14.81,21.8l10.82,1.66c23,3.53,46.79,7.18,70.24,10.09,3.19.4,6.55.6,10.01.6,5.38,0,11.17-.48,17.71-1.46,23.12-3.45,45.06-44.95,48.91-92.49,1.74-21.58,2.76-42.48,3.01-62.14.52-39.45.59-79.52.66-118.27l.03-18.13c.03-16.34,2.48-29.56,7.49-40.43,3.74-8.14,9.12-12.99,14.39-12.99,2.85,0,5.5,1.36,7.86,4.03.58.66,1.65,2.78,2.63,5.89,5.52,17.41,7.89,33.08,7.67,50.8-.59,49.89-.93,100.6-1.27,149.64-.17,25.56-.34,51.12-.55,76.67-.24,29.56-.52,59.13-.8,88.69-.32,34.4-.66,69.97-.93,104.97-.04,5.82-.11,11.66-.18,17.49-.23,20.25-.48,41.18.24,61.86,1.05,29.87,7.67,60.76,18.18,84.73,11.4,26.03,25.94,41.19,40.94,42.7,5.26.53,10.63,1.15,15.82,1.76,5.51.64,11.21,1.3,16.83,1.85,7.79.78,16.28,1.44,25.96,2.03,2.31.14,4.34.21,6.19.21,9.99,0,23.01-1.82,35.07-15.98,26.4-30.99,40.04-78.77,40.53-142.01.49-61.14.85-123.3,1.21-183.41.22-36.65.43-73.31.68-109.97.53-80.02,1-147.14,1.59-214.63.17-19.33.61-39.76,1.32-60.71.59-17.42,3.66-17.42,7.21-17.42h.12c14.24.15,26.87.51,38.59,1.12,2.57.13,5,.26,5.42,15.63.13,5.06.1,10.16.07,15.56l-.02,2.93c-.19,31.28-.37,62.56-.55,93.84-.56,99.33-1.15,202.05-1.9,303.07-.21,27.89-.07,53.07,3.73,78.82,9.35,63.47,29.51,103.21,59.92,118.1,9.74,4.75,20.02,7.17,30.57,7.17,8.49,0,17.24-1.57,26.01-4.66,20.93-7.39,38.88-31.79,51.91-70.56,14.16-42.1,15.99-90.47,16.59-132.49.21-14.7.16-29.56.12-43.93-.03-9.58-.07-19.48-.02-29.18.02-5.4.17-8.3.32-9.87.5-.08,1.27-.16,2.41-.16h.2c30.52.22,61.56.71,91.58,1.19l7.47.12c8.95.14,17.13,5.5,25.75,16.88,14.05,18.56,29.44,27.96,45.74,27.96,8.35,0,17-2.5,25.71-7.44,16.4-9.28,31.62-25.42,46.53-49.34,10.86-17.42,21.96-37.63,29.66-67.24.38-.81.7-1.69.95-2.63.42-1.59.64-3.33.64-5.1v-20.95c0-1.78-.22-3.52-.65-5.11Z"/>
    <path class="cls-1" d="M994.47,487.93c.43,1.82.42,3.99-.05,5.79-.34,1.32-.68,2.64-1.01,3.98-.48,1.89-1.39,3.11-2.39,3.22-.05,0-.1.01-.15.01-.95,0-1.84-1.01-2.38-2.7-.73-2.3-1.45-4.68-2.17-7.06-1.63-5.38-3.17-10.47-4.84-14.66-.81-2.04-1.73-4.26-2.61-5.9-4.46.01-8.93.05-13.42.1-5.29.05-10.59.1-15.91.1-2.87,0-5.59-.02-8.18-.05.42-1.59.64-3.33.64-5.1v-20.95c0-1.78-.22-3.52-.65-5.11,2.6-.03,5.32-.05,8.2-.05,5.32,0,10.64.05,15.93.1,4.48.04,8.94.09,13.39.1.88-1.65,1.8-3.86,2.61-5.9,1.67-4.19,3.21-9.28,4.84-14.67.72-2.37,1.44-4.75,2.17-7.05.54-1.69,1.43-2.7,2.38-2.7.05,0,.1,0,.15.01,1,.11,1.91,1.33,2.39,3.22.33,1.33.67,2.66,1.01,3.98.47,1.79.48,3.97.05,5.79l-7.86,32.75,7.86,32.75Z"/>
  </g>
</svg>