<?xml version="1.0" encoding="UTF-8"?>
<svg id="Layer_2" data-name="Layer 2" xmlns="http://www.w3.org/2000/svg" viewBox="0 0 201.35 201.35">
  <defs>
    <style>
      .cls-1 {
        fill: #136504;
      }

      .cls-1, .cls-2 {
        stroke-width: 0px;
      }

      .cls-2 {
        fill: #fff;
      }
    </style>
  </defs>
  <g id="Layer_1-2" data-name="Layer 1">
    <rect class="cls-2" x="0" y="0" width="201.35" height="201.35" rx="30.15" ry="30.15"/>
    <g>
      <path class="cls-1" d="M184.35,89.16c-.06-.22-.14-.43-.23-.61-.09-.17-.23-.55-.4-1.39-.52-2.61-1.56-4.73-2.49-6.52-1.85-3.57-4.36-8.06-7.38-11.06-2.97-2.95-5.98-4.45-8.94-4.45-2.68,0-5.35,1.22-7.96,3.64-1.16,1.08-2.23,2.47-3.22,3.82-.5.69-1.03.83-1.83.83-6.64.06-13.39.14-20.04.26-2.19.04-4.76.43-7.25,3.02-5,5.2-8.12,14.26-9.02,26.2-.34,4.44-.3,9.01-.27,13.43.01,1.78.03,3.63.02,5.42,0,1.52,0,3.05.02,4.53.01,1.28.02,2.6.02,3.89,0,.14,0,.26,0,.36-.64.01-1.33.02-2.16.02-.56,0-1.13,0-1.71,0-.18,0-.35,0-.53,0,0-.11-.01-.23-.02-.35-.08-1.69-.15-3.28-.18-4.84-.06-4.12-.09-8.32-.11-12.38v-1.09c-.04-5.85-.06-11.71-.09-17.56-.07-15.21-.14-30.95-.29-46.42-.05-5.46-.44-9.78-1.18-13.2-2.66-12.21-7.08-19-12.78-19.63-1.11-.12-2.29-.18-3.49-.18-1.78,0-3.71.13-5.89.4-6.52.81-12.29,12.41-13.12,26.41-.31,5.28-.29,10.69-.27,15.92v1.47c.04,9.9.13,19.97.22,29.7l.05,5.04c.08,8.42.16,16.84.25,25.25.09,8.75.18,17.51.26,26.27.03,3.36.03,6.9,0,10.53-.04,5.58-1.31,6.54-2.54,6.74-1.29.21-2.58.23-3.94.24-.29,0-.58,0-.87.01-.58.01-1.16.03-1.75.05-.92.03-1.88.06-2.81.06-1.02,0-1.91-.04-2.72-.11-1.35-.13-2.08-2.07-2.16-5.78-.07-3.03-.1-6.05-.11-8.34-.05-6.31-.09-12.63-.13-18.94-.06-9.28-.13-18.56-.2-27.84l-.02-2.77c-.09-10.71-.17-21.79-.33-32.69-.05-3.83-.2-7.94-.88-12.05-1.08-6.48-3.17-11.32-6.21-14.39-1.73-1.74-3.44-2.62-5.08-2.62-3.04,0-5.85,2.97-8.33,8.84-1.9,4.49-2.91,10.15-2.91,16.36,0,5.29.02,10.66.05,15.85.01,2.76.02,5.53.03,8.29,0,1.66,0,3.31,0,4.97,0,1.27,0,2.53,0,3.8,0,5.04-.87,8.59-2.62,10.55-.58.65-1.44.79-2.34.95-.13.02-.26.04-.39.06-1.04.19-2.11.28-3.15.37-.94.08-1.92.16-2.89.32-4.41.7-8.85,1.49-12.61,2.18-.52.1-.96.43-1.32.71-.13.1-.25.19-.36.26-.65.41-1.02,1.6-.85,2.75.54,3.81,2.14,4.05,2.82,4.16l2.06.32c4.38.67,8.92,1.37,13.39,1.92.61.08,1.25.11,1.91.11,1.03,0,2.13-.09,3.38-.28,4.41-.66,8.59-8.57,9.32-17.63.33-4.11.53-8.1.57-11.84.1-7.52.11-15.16.13-22.54v-3.46c.01-3.11.48-5.63,1.43-7.71.71-1.55,1.74-2.48,2.74-2.48.54,0,1.05.26,1.5.77.11.13.31.53.5,1.12,1.05,3.32,1.5,6.31,1.46,9.68-.11,9.51-.18,19.18-.24,28.52-.03,4.87-.06,9.74-.1,14.61-.05,5.63-.1,11.27-.15,16.91-.06,6.56-.13,13.34-.18,20.01,0,1.11-.02,2.22-.03,3.33-.04,3.86-.09,7.85.05,11.79.2,5.69,1.46,11.58,3.47,16.15,2.17,4.96,4.94,7.85,7.8,8.14,1,.1,2.03.22,3.02.34,1.05.12,2.14.25,3.21.35,1.48.15,3.1.27,4.95.39.44.03.83.04,1.18.04,1.9,0,4.39-.35,6.68-3.05,5.03-5.91,7.63-15.01,7.73-27.07.09-11.65.16-23.5.23-34.96.04-6.99.08-13.97.13-20.96.1-15.25.19-28.05.3-40.91.03-3.68.12-7.58.25-11.57.11-3.32.7-3.32,1.37-3.32h.02c2.71.03,5.12.1,7.36.21.49.02.95.05,1.03,2.98.02.96.02,1.94.01,2.97v.56c-.04,5.96-.07,11.92-.11,17.89-.11,18.93-.22,38.51-.36,57.77-.04,5.32-.01,10.12.71,15.02,1.78,12.1,5.63,19.67,11.42,22.51,1.86.91,3.82,1.37,5.83,1.37,1.62,0,3.29-.3,4.96-.89,3.99-1.41,7.41-6.06,9.89-13.45,2.7-8.02,3.05-17.24,3.16-25.25.04-2.8.03-5.63.02-8.37,0-1.83-.01-3.71,0-5.56,0-1.03.03-1.58.06-1.88.1-.02.24-.03.46-.03h.04c5.82.04,11.73.14,17.46.23l1.42.02c1.71.03,3.27,1.05,4.91,3.22,2.68,3.54,5.61,5.33,8.72,5.33,1.59,0,3.24-.48,4.9-1.42,3.13-1.77,6.03-4.85,8.87-9.4,2.07-3.32,4.19-7.17,5.65-12.82.07-.15.13-.32.18-.5.08-.3.12-.63.12-.97v-3.99c0-.34-.04-.67-.12-.97Z"/>
      <path class="cls-1" d="M194.47,98.38c.08.35.08.76,0,1.1-.06.25-.13.5-.19.76-.09.36-.26.59-.46.61,0,0-.02,0-.03,0-.18,0-.35-.19-.45-.51-.14-.44-.28-.89-.41-1.35-.31-1.03-.6-2-.92-2.79-.15-.39-.33-.81-.5-1.12-.85,0-1.7,0-2.56.02-1.01,0-2.02.02-3.03.02-.55,0-1.07,0-1.56,0,.08-.3.12-.63.12-.97v-3.99c0-.34-.04-.67-.12-.97.5,0,1.01,0,1.56,0,1.01,0,2.03,0,3.04.02.85,0,1.7.02,2.55.02.17-.31.34-.74.5-1.12.32-.8.61-1.77.92-2.8.14-.45.27-.91.41-1.34.1-.32.27-.51.45-.51,0,0,.02,0,.03,0,.19.02.36.25.46.61.06.25.13.51.19.76.09.34.09.76,0,1.1l-1.5,6.24,1.5,6.24Z"/>
    </g>
  </g>
</svg>