<?xml version="1.0" encoding="UTF-8"?>
<svg id="Layer_2" data-name="Layer 2" xmlns="http://www.w3.org/2000/svg" viewBox="0 0 360.17 359.32">
  <defs>
    <style>
      .cls-1 {
        fill: #000;
      }
    </style>
  </defs>
  <g id="Layer_1-2" data-name="Layer 1">
    <g>
      <path class="cls-1" d="m179.84,359.31c-43.25,0-86.5,0-129.74,0-29.36,0-50.03-20.63-50.04-49.9,0-14.97-.02-29.94,0-44.91.05-27.85,20.96-48.86,48.78-48.89,48-.05,95.99-.02,143.99,0,8.01,0,13.44,4.81,13.49,11.87.05,7.22-5.42,12.07-13.67,12.07-47.5,0-94.99,0-142.49,0-16.25,0-26.09,9.86-26.1,26.12,0,14.85-.03,29.69,0,44.54.03,14.97,10.2,25.14,25.21,25.14,87.25.02,174.49.02,261.74,0,14.76,0,24.99-10.22,25.04-24.93.05-15.34,0-30.69.02-46.03.01-7.67-2.78-14.04-8.54-19.17-5.49-4.89-6.09-12.12-1.56-17.27,4.58-5.21,11.79-5.61,17.35-.72,10.68,9.39,16.46,21.25,16.67,35.47.24,15.84.08,31.69.06,47.53-.03,28.21-20.98,49.07-49.34,49.09-43.62.03-87.25,0-130.87,0Z"/>
      <path class="cls-1" d="m179.91,176.69c-43.25,0-86.49,0-129.74,0C20.56,176.69.05,156.15.05,126.52c0-15.34-.12-30.69.04-46.03.15-14.09,5.7-25.89,16.1-35.36,5.92-5.39,13.11-5.21,17.92.21,4.62,5.21,3.92,12.37-1.79,17.53-5.5,4.98-8.26,11.14-8.27,18.53-.01,15.72-.07,31.44.02,47.15.08,13.77,10.43,24.16,24.26,24.16,87.74.05,175.49.05,263.23,0,14.22,0,24.43-10.4,24.48-24.71.05-14.97.02-29.94.01-44.91,0-16.29-9.84-26.17-26.07-26.17-43.25,0-86.49,0-129.74-.01-1.87,0-3.74.14-5.58-.4-5.71-1.66-9.37-6.91-8.83-12.75.53-5.72,5.25-10.3,11.16-10.76,1.24-.1,2.5-.04,3.75-.04,42.87,0,85.75.44,128.61-.15,29.45-.41,51.83,22.7,50.79,50.93-.54,14.7-.07,29.44-.1,44.16-.07,27.78-21.02,48.74-48.89,48.77-43.75.05-87.49.01-131.24.01Z"/>
      <path class="cls-1" d="m150.92,48.01c.12,7.5-1.48,14.66-5.03,21.23-1.38,2.55-.94,4.01,1.06,5.67,1.43,1.19,2.72,2.58,3.93,4.01,4.06,4.8,3.85,11.54-.41,15.99-4.35,4.54-11.32,4.99-16.29.92-1.73-1.42-3.37-3-4.81-4.71-1.41-1.67-2.6-1.55-4.47-.63-29.04,14.28-62.29-1.79-68.96-33.25C50.55,31.81,67.79,5.98,93.54.91c26.14-5.14,51.83,12.05,56.58,37.81.57,3.09.81,6.17.81,9.29Zm-25.44,6.61c3.71-10.03-.91-21.51-9.83-27.04-9.76-6.05-22.2-4.4-30.13,4-7.75,8.21-8.67,20.72-2.22,29.97,5.73,8.21,17.24,12.32,25.65,8.63-2.05-1.82-4.02-3.36-5.74-5.15-4.88-5.08-4.89-12.41-.14-17.1,4.79-4.74,12.01-4.7,17.1.27,1.84,1.79,3.3,3.96,5.31,6.42Z"/>
      <path class="cls-1" d="m261.68,191.47c12.42-.03,23.07,6.86,27.18,18.59,7.01,19.96,13.61,40.06,20.21,60.17,2.11,6.43-1.46,12.97-7.64,14.96-6.28,2.02-12.52-1.15-15.07-7.56-1.06-2.65-.93-6.5-3.17-7.73-2.33-1.28-5.82-.51-8.81-.51-10.49-.03-20.98.07-31.47-.07-2.46-.03-3.62.77-4.19,3.07-.51,2.05-1.19,4.07-2.02,6.01-2.55,5.99-9.21,8.85-15.22,6.66-5.8-2.12-9.24-8.54-7.26-14.58,6.51-19.87,13-39.75,19.96-59.46,4.24-12,15.41-19.5,27.5-19.53Zm.2,53.94c3.75,0,7.49-.07,11.24.03,2,.05,2.29-.57,1.66-2.41-2.71-7.88-5.27-15.81-7.93-23.71-.84-2.48-2.49-3.93-5.29-3.88-2.62.05-4.19,1.4-4.98,3.75-2.67,7.9-5.25,15.82-7.97,23.7-.75,2.19.1,2.58,2.04,2.54,3.74-.08,7.49-.02,11.24-.02Z"/>
      <path class="cls-1" d="m113.7,277.73c13.74,0,27.47-.07,41.21.03,6.44.05,11.19,4.44,11.98,10.64.74,5.85-3.09,11.39-9.02,12.88-1.31.33-2.72.37-4.08.37-26.85.02-53.69.03-80.54,0-7.73,0-13.09-4.83-13.19-11.77-.11-7.08,5.33-12.14,13.19-12.17,13.49-.04,26.97-.01,40.46,0Z"/>
      <path class="cls-1" d="m246.56,116.81c-13.36,0-26.72.02-40.08,0-7.96-.01-13.4-4.89-13.4-11.95,0-7.01,5.51-11.98,13.4-11.98,26.72-.02,53.45-.02,80.17,0,7.95,0,13.38,4.91,13.38,11.99,0,7.09-5.39,11.94-13.38,11.95-13.36.02-26.72,0-40.08,0Z"/>
    </g>
  </g>
</svg>
